SplineFontDB: 3.2
FontName: Sawasdee-BoldOblique
FullName: Sawasdee Bold Oblique
FamilyName: Sawasdee
Weight: Bold
Copyright: Copyright (c) 2007 Pol Udomwittayanukul. All rights reserved.
Version: 003.004
ItalicAngle: -12
UnderlinePosition: -153
UnderlineWidth: 102
Ascent: 1536
Descent: 512
InvalidEm: 0
LayerCount: 3
Layer: 0 0 "Back" 1
Layer: 1 0 "Fore" 0
Layer: 2 1 "Quad" 0
XUID: [1021 180 1442959360 14302000]
UniqueID: 4076113
FSType: 8
OS2Version: 4
OS2_WeightWidthSlopeOnly: 0
OS2_UseTypoMetrics: 1
CreationTime: 1178430034
ModificationTime: 1587961926
PfmFamily: 17
TTFWeight: 700
TTFWidth: 5
LineGap: 0
VLineGap: 0
OS2TypoAscent: 2368
OS2TypoAOffset: 0
OS2TypoDescent: -848
OS2TypoDOffset: 0
OS2TypoLinegap: 0
OS2WinAscent: 0
OS2WinAOffset: 1
OS2WinDescent: 0
OS2WinDOffset: 1
HheadAscent: 2368
HheadAOffset: 0
HheadDescent: -848
HheadDOffset: 0
OS2Vendor: 'PfEd'
Lookup: 4 0 1 "'liga' Standard Ligatures in Latin lookup 0" { "'liga' Standard Ligatures in Latin lookup 0"  } ['liga' ('latn' <'dflt' > ) ]
Lookup: 4 0 0 "'frac' Diagonal Fractions in Latin lookup 42" { "'frac' Diagonal Fractions in Latin lookup 42"  } ['frac' ('latn' <'dflt' > ) ]
Lookup: 6 0 0 "'ccmp' Thai Tone Tilde Reordering" { "'ccmp' Thai Tone Tilde Reordering"  } ['ccmp' ('DFLT' <'dflt' > 'latn' <'dflt' > 'thai' <'KUY ' 'MLY ' 'PAL ' 'SAN ' 'THA ' 'dflt' > ) ]
Lookup: 6 0 0 "'ccmp' Thai Tone Macron Reordering" { "'ccmp' Thai Tone Macron Reordering"  } ['ccmp' ('DFLT' <'dflt' > 'latn' <'dflt' > 'thai' <'KUY ' 'MLY ' 'PAL ' 'SAN ' 'THA ' 'dflt' > ) ]
Lookup: 6 0 0 "'ccmp' Thai Below Vowel Macron Reordering" { "'ccmp' Thai Below Vowel Macron Reordering"  } ['ccmp' ('DFLT' <'dflt' > 'latn' <'dflt' > 'thai' <'KUY ' 'MLY ' 'PAL ' 'SAN ' 'THA ' 'dflt' > ) ]
Lookup: 4 0 0 "'ccmp' Patani Malay Ligatures" { "'ccmp' Patani Malay Ligatures"  } ['ccmp' ('DFLT' <'dflt' > 'thai' <'KUY ' 'MLY ' 'PAL ' 'SAN ' 'THA ' 'dflt' > ) ]

StartChar: exclam
Encoding: 33 33 1
Width: 570
VWidth: 2982
Flags: W
HStem: -11 237<232.897 384.665>
VStem: 188 244<35.7286 179.716>
LayerCount: 3
Fore
SplineSet
188 83 m 0
 188 154 258 226 336 226 c 0
 391 226 432 186 432 132 c 0
 432 51 349 -11 284 -11 c 0
 228 -11 188 30 188 83 c 0
425 352 m 1
 295 352 l 1
 506 1489 l 1
 698 1489 l 1
 425 352 l 1
EndSplineSet
Validated: 1
Layer: 2
SplineSet
188 83 m 0,0,1
 188 137 188 137 233 181.5 c 128,-1,2
 278 226 278 226 336 226 c 0,3,4
 377 226 377 226 404.5 199 c 128,-1,5
 432 172 432 172 432 132 c 0,6,7
 432 74 432 74 384 31.5 c 128,-1,8
 336 -11 336 -11 284 -11 c 0,9,10
 242 -11 242 -11 215 16 c 128,-1,11
 188 43 188 43 188 83 c 0,0,1
425 352 m 1,12,-1
 295 352 l 1,13,-1
 506 1489 l 1,14,-1
 698 1489 l 1,15,-1
 425 352 l 1,12,-1
EndSplineSet
EndChar

StartChar: quotedbl
Encoding: 34 34 2
Width: 762
VWidth: 2982
Flags: W
HStem: 1128 459<741 805 980 1042>
VStem: 438 500
LayerCount: 3
Fore
SplineSet
566 1128 m 1
 438 1128 l 1
 502 1587 l 1
 698 1587 l 1
 566 1128 l 1
803 1128 m 1
 679 1128 l 1
 741 1587 l 1
 938 1587 l 1
 803 1128 l 1
EndSplineSet
Validated: 1
Layer: 2
SplineSet
566 1128 m 1,0,-1
 438 1128 l 1,1,-1
 502 1587 l 1,2,-1
 698 1587 l 1,3,-1
 566 1128 l 1,0,-1
803 1128 m 1,4,-1
 679 1128 l 1,5,-1
 741 1587 l 1,6,-1
 938 1587 l 1,7,-1
 803 1128 l 1,4,-1
EndSplineSet
EndChar

StartChar: numbersign
Encoding: 35 35 3
Width: 1066
VWidth: 2982
Flags: W
HStem: -2 21G<58 233.371 477 649.417> 427 162<90 260 495 679 914 1090> 904 162<293 474 714 891 1130 1296> 1475 20G<740.629 916 1156.63 1335>
DStem2: 58 -2 224 -2 0.419596 0.907711<69.653 474.166 719.821 996.938 1244.69 1649.2> 477 -2 640 -2 0.421093 0.907017<68.6382 474.171 720.065 996.09 1243.67 1647.94>
LayerCount: 3
Fore
SplineSet
640 -2 m 1
 477 -2 l 1
 679 427 l 1
 425 427 l 1
 224 -2 l 1
 58 -2 l 1
 260 427 l 1
 56 427 l 1
 90 589 l 1
 333 589 l 1
 474 904 l 1
 258 904 l 1
 293 1066 l 1
 549 1066 l 1
 750 1495 l 1
 916 1495 l 1
 714 1066 l 1
 965 1066 l 1
 1166 1495 l 1
 1335 1495 l 1
 1130 1066 l 1
 1330 1066 l 1
 1296 904 l 1
 1057 904 l 1
 914 589 l 1
 1124 589 l 1
 1090 427 l 1
 842 427 l 1
 640 -2 l 1
495 589 m 1
 748 589 l 1
 891 904 l 1
 638 904 l 1
 495 589 l 1
EndSplineSet
Validated: 1
Layer: 2
SplineSet
640 -2 m 1,0,-1
 477 -2 l 1,1,-1
 679 427 l 1,2,-1
 425 427 l 1,3,-1
 224 -2 l 1,4,-1
 58 -2 l 1,5,-1
 260 427 l 1,6,-1
 56 427 l 1,7,-1
 90 589 l 1,8,-1
 333 589 l 1,9,-1
 474 904 l 1,10,-1
 258 904 l 1,11,-1
 293 1066 l 1,12,-1
 549 1066 l 1,13,-1
 750 1495 l 1,14,-1
 916 1495 l 1,15,-1
 714 1066 l 1,16,-1
 965 1066 l 1,17,-1
 1166 1495 l 1,18,-1
 1335 1495 l 1,19,-1
 1130 1066 l 1,20,-1
 1330 1066 l 1,21,-1
 1296 904 l 1,22,-1
 1057 904 l 1,23,-1
 914 589 l 1,24,-1
 1124 589 l 1,25,-1
 1090 427 l 1,26,-1
 842 427 l 1,27,-1
 640 -2 l 1,0,-1
495 589 m 1,28,-1
 748 589 l 1,29,-1
 891 904 l 1,30,-1
 638 904 l 1,31,-1
 495 589 l 1,28,-1
EndSplineSet
EndChar

StartChar: dollar
Encoding: 36 36 4
Width: 1066
VWidth: 2982
Flags: W
HStem: -15 158<396.92 461>
VStem: 139 160<238.813 466> 393 162<1006.79 1228.77> 974 165<349.812 613.181> 1047 160<1186.34 1269.5>
DStem2: 434 -137 596 -137 0.207912 0.978148<33.6817 124.948 319.622 905.258 1116.58 1507.07 1705.96 1810.89>
LayerCount: 3
Fore
SplineSet
141 466 m 1xf0
 302 485 l 1
 299 463 299 440 299 419 c 0
 299 297 333 177 495 143 c 1
 632 786 l 1
 524 839 393 914 393 1070 c 0
 393 1243 542 1461 784 1502 c 1
 812 1634 l 1
 969 1634 l 1
 940 1502 l 1
 1184 1450 1200 1229 1207 1191 c 1
 1047 1139 l 1xe8
 1043 1164 1036 1298 912 1343 c 1
 814 891 l 1
 965 824 1139 739 1139 534 c 0
 1139 312 938 45 624 -4 c 1
 596 -137 l 1
 434 -137 l 1
 461 -15 l 1
 286 9 139 119 139 399 c 0
 139 421 139 444 141 466 c 1xf0
654 143 m 1
 855 190 974 354 974 495 c 0xf0
 974 604 889 662 775 716 c 1
 654 143 l 1
748 1337 m 1
 604 1296 555 1164 555 1102 c 0
 555 1038 598 996 667 955 c 1
 748 1337 l 1
EndSplineSet
Validated: 1
Layer: 2
SplineSet
141 466 m 1,0,-1
 302 485 l 1,1,2
 299 463 299 463 299 419 c 0,3,4
 299 351 299 351 313 299.5 c 128,-1,5
 327 248 327 248 372.5 203.5 c 128,-1,6
 418 159 418 159 495 143 c 1,7,-1
 632 786 l 1,8,9
 582 811 582 811 547.5 832.5 c 128,-1,10
 513 854 513 854 473.5 888.5 c 128,-1,11
 434 923 434 923 413.5 969 c 128,-1,12
 393 1015 393 1015 393 1070 c 0,13,14
 393 1159 393 1159 439 1249 c 128,-1,15
 485 1339 485 1339 576.5 1410.5 c 128,-1,16
 668 1482 668 1482 784 1502 c 1,17,-1
 812 1634 l 1,18,-1
 969 1634 l 1,19,-1
 940 1502 l 1,20,21
 975 1494 975 1494 1006.5 1481 c 128,-1,22
 1038 1468 1038 1468 1061 1453.5 c 128,-1,23
 1084 1439 1084 1439 1104 1419 c 128,-1,24
 1124 1399 1124 1399 1137.5 1381.5 c 128,-1,25
 1151 1364 1151 1364 1162.5 1341 c 128,-1,26
 1174 1318 1174 1318 1180.5 1302 c 128,-1,27
 1187 1286 1187 1286 1192.5 1265 c 128,-1,28
 1198 1244 1198 1244 1200 1233.5 c 128,-1,29
 1202 1223 1202 1223 1204.5 1207.5 c 128,-1,30
 1207 1192 1207 1192 1207 1191 c 2,31,-1
 1047 1139 l 2,32,33
 1047 1140 1047 1140 1045.5 1151 c 128,-1,34
 1044 1162 1044 1162 1042.5 1170 c 128,-1,35
 1041 1178 1041 1178 1038 1193 c 128,-1,36
 1035 1208 1035 1208 1030 1220 c 128,-1,37
 1025 1232 1025 1232 1018 1247.5 c 128,-1,38
 1011 1263 1011 1263 1001 1276 c 128,-1,39
 991 1289 991 1289 978.5 1302 c 128,-1,40
 966 1315 966 1315 949 1325.5 c 128,-1,41
 932 1336 932 1336 912 1343 c 1,42,-1
 814 891 l 1,43,44
 854 873 854 873 880.5 860.5 c 128,-1,45
 907 848 907 848 944 827 c 128,-1,46
 981 806 981 806 1006 787 c 128,-1,47
 1031 768 1031 768 1058 740 c 128,-1,48
 1085 712 1085 712 1101.5 682.5 c 128,-1,49
 1118 653 1118 653 1128.5 615 c 128,-1,50
 1139 577 1139 577 1139 534 c 0,51,52
 1139 450 1139 450 1102 363 c 128,-1,53
 1065 276 1065 276 1000 200.5 c 128,-1,54
 935 125 935 125 836.5 69.5 c 128,-1,55
 738 14 738 14 624 -4 c 1,56,-1
 596 -137 l 1,57,-1
 434 -137 l 1,58,-1
 461 -15 l 1,59,60
 392 -6 392 -6 336.5 21 c 128,-1,61
 281 48 281 48 235 95.5 c 128,-1,62
 189 143 189 143 164 220 c 128,-1,63
 139 297 139 297 139 399 c 0,64,65
 139 444 139 444 141 466 c 1,0,-1
654 143 m 1,66,67
 798 177 798 177 886 280 c 128,-1,68
 974 383 974 383 974 495 c 0,69,70
 974 570 974 570 923.5 620 c 128,-1,71
 873 670 873 670 775 716 c 1,72,-1
 654 143 l 1,66,67
748 1337 m 1,73,74
 697 1323 697 1323 657.5 1292.5 c 128,-1,75
 618 1262 618 1262 597 1227 c 128,-1,76
 576 1192 576 1192 565.5 1160 c 128,-1,77
 555 1128 555 1128 555 1102 c 0,78,79
 555 1057 555 1057 583 1022.5 c 128,-1,80
 611 988 611 988 667 955 c 1,81,-1
 748 1337 l 1,73,74
EndSplineSet
EndChar

StartChar: percent
Encoding: 37 37 5
Width: 1452
VWidth: 2982
Flags: W
HStem: -17 156<1022.51 1245.78> 0 21G<92 304.835> 453 156<1073.18 1296.27> 882 156<489.023 711.7> 1352 156<537.972 762.745> 1473 20G<1478.18 1692>
VStem: 297 162<1066.33 1275.43> 792 161<1113.19 1324> 831 163<167.773 377.368> 1325 164<215.081 424.065>
DStem2: 92 0 286 0 0.685578 0.728<133.002 2050.14>
LayerCount: 3
Fore
SplineSet
1489 359 m 0xb2c0
 1489 179 1309 -17 1092 -17 c 0
 938 -17 831 90 831 233 c 0
 831 416 1014 609 1226 609 c 0
 1382 609 1489 502 1489 359 c 0xb2c0
1194 453 m 0
 1077 453 994 352 994 265 c 0
 994 192 1045 139 1126 139 c 0
 1220 139 1325 222 1325 327 c 0
 1325 399 1273 453 1194 453 c 0
953 1260 m 0x3b40
 953 1072 771 882 560 882 c 0
 406 882 297 989 297 1130 c 0
 297 1318 479 1508 692 1508 c 0
 848 1508 953 1403 953 1260 c 0x3b40
658 1352 m 0
 549 1352 459 1254 459 1164 c 0
 459 1092 510 1038 593 1038 c 0
 687 1038 792 1121 792 1226 c 0
 792 1298 741 1352 658 1352 c 0
1497 1493 m 1x7640
 1692 1493 l 1
 286 0 l 1
 92 0 l 1
 1497 1493 l 1x7640
EndSplineSet
Validated: 1
Layer: 2
SplineSet
1489 359 m 0,0,1
 1489 292 1489 292 1457 224.5 c 128,-1,2
 1425 157 1425 157 1372.5 103.5 c 128,-1,3
 1320 50 1320 50 1245.5 16.5 c 128,-1,4
 1171 -17 1171 -17 1092 -17 c 0,5,6
 977 -17 977 -17 904 54 c 128,-1,7
 831 125 831 125 831 233 c 0,8,9
 831 301 831 301 863.5 369 c 128,-1,10
 896 437 896 437 949 490 c 128,-1,11
 1002 543 1002 543 1075.5 576 c 128,-1,12
 1149 609 1149 609 1226 609 c 0,13,14
 1342 609 1342 609 1415.5 538 c 128,-1,15
 1489 467 1489 467 1489 359 c 0,0,1
1194 453 m 0,16,17
 1110 453 1110 453 1052 393.5 c 128,-1,18
 994 334 994 334 994 265 c 0,19,20
 994 209 994 209 1030 174 c 128,-1,21
 1066 139 1066 139 1126 139 c 0,22,23
 1199 139 1199 139 1262 195 c 128,-1,24
 1325 251 1325 251 1325 327 c 0,25,26
 1325 382 1325 382 1289 417.5 c 128,-1,27
 1253 453 1253 453 1194 453 c 0,16,17
953 1260 m 0,28,29
 953 1167 953 1167 899.5 1079.5 c 128,-1,30
 846 992 846 992 754 937 c 128,-1,31
 662 882 662 882 560 882 c 0,32,33
 445 882 445 882 371 953 c 128,-1,34
 297 1024 297 1024 297 1130 c 0,35,36
 297 1199 297 1199 329 1268 c 128,-1,37
 361 1337 361 1337 414 1389.5 c 128,-1,38
 467 1442 467 1442 540.5 1475 c 128,-1,39
 614 1508 614 1508 692 1508 c 0,40,41
 808 1508 808 1508 880.5 1438 c 128,-1,42
 953 1368 953 1368 953 1260 c 0,28,29
658 1352 m 0,43,44
 579 1352 579 1352 519 1293 c 128,-1,45
 459 1234 459 1234 459 1164 c 0,46,47
 459 1109 459 1109 495.5 1073.5 c 128,-1,48
 532 1038 532 1038 593 1038 c 0,49,50
 666 1038 666 1038 729 1094 c 128,-1,51
 792 1150 792 1150 792 1226 c 0,52,53
 792 1281 792 1281 755.5 1316.5 c 128,-1,54
 719 1352 719 1352 658 1352 c 0,43,44
1497 1493 m 1,55,-1
 1692 1493 l 1,56,-1
 286 0 l 1,57,-1
 92 0 l 1,58,-1
 1497 1493 l 1,55,-1
EndSplineSet
EndChar

StartChar: ampersand
Encoding: 38 38 6
Width: 1501
VWidth: 2982
Flags: W
HStem: -17 151<548.948 936.916> 0 21G<1185.23 1390> 1356 152<887.273 1145.64>
VStem: 218 160<294.945 641.586> 656 162<1036.41 1287.77> 1166 157<1132 1221.29> 1249 157<429.53 575>
DStem2: 846 1045 716 914 0.461754 -0.887008<53.8536 736.176 940.904 1088.54>
LayerCount: 3
Fore
SplineSet
1030 1356 m 0xbc
 912 1356 818 1285 818 1160 c 0
 818 1126 824 1088 846 1045 c 2
 1184 391 l 1
 1211 436 1231 485 1243 542 c 1
 1249 575 l 1
 1412 575 l 1
 1406 542 l 1
 1384 434 1330 336 1258 250 c 1
 1390 0 l 1
 1196 0 l 1x7a
 1126 130 l 1
 1003 38 850 -17 698 -17 c 0
 416 -17 218 175 218 430 c 0
 218 649 367 920 665 1047 c 1
 658 1074 656 1102 656 1128 c 0
 656 1345 842 1508 1061 1508 c 0
 1215 1508 1341 1424 1341 1251 c 0
 1341 1226 1339 1198 1332 1168 c 2
 1323 1132 l 1
 1166 1132 l 1
 1173 1168 l 2
 1177 1188 1179 1207 1179 1222 c 0
 1179 1327 1097 1356 1030 1356 c 0xbc
716 914 m 1
 517 833 378 643 378 461 c 0
 378 275 521 134 732 134 c 0xb8
 850 134 969 181 1061 252 c 1
 716 914 l 1
EndSplineSet
Validated: 1
Layer: 2
SplineSet
1030 1356 m 0,0,1
 938 1356 938 1356 878 1303.5 c 128,-1,2
 818 1251 818 1251 818 1160 c 0,3,4
 818 1100 818 1100 846 1045 c 2,5,-1
 1184 391 l 1,6,7
 1226 461 1226 461 1243 542 c 2,8,-1
 1249 575 l 1,9,-1
 1412 575 l 1,10,-1
 1406 542 l 2,11,12
 1375 390 1375 390 1258 250 c 1,13,-1
 1390 0 l 1,14,-1
 1196 0 l 1,15,-1
 1126 130 l 1,16,17
 929 -17 929 -17 698 -17 c 0,18,19
 488 -17 488 -17 353 110 c 128,-1,20
 218 237 218 237 218 430 c 0,21,22
 218 514 218 514 246.5 601.5 c 128,-1,23
 275 689 275 689 329 772.5 c 128,-1,24
 383 856 383 856 470 928.5 c 128,-1,25
 557 1001 557 1001 665 1047 c 1,26,27
 656 1082 656 1082 656 1128 c 0,28,29
 656 1289 656 1289 775.5 1398.5 c 128,-1,30
 895 1508 895 1508 1061 1508 c 0,31,32
 1183 1508 1183 1508 1262 1441.5 c 128,-1,33
 1341 1375 1341 1375 1341 1251 c 0,34,35
 1341 1207 1341 1207 1332 1168 c 2,36,-1
 1323 1132 l 1,37,-1
 1166 1132 l 1,38,-1
 1173 1168 l 2,39,40
 1179 1198 1179 1198 1179 1222 c 0,41,42
 1179 1294 1179 1294 1134.5 1325 c 128,-1,43
 1090 1356 1090 1356 1030 1356 c 0,0,1
716 914 m 1,44,45
 567 854 567 854 472.5 726 c 128,-1,46
 378 598 378 598 378 461 c 0,47,48
 378 320 378 320 476.5 227 c 128,-1,49
 575 134 575 134 732 134 c 0,50,51
 908 134 908 134 1061 252 c 1,52,-1
 716 914 l 1,44,45
EndSplineSet
EndChar

StartChar: quoteright
Encoding: 8217 8217 7
Width: 476
VWidth: 2982
Flags: W
HStem: 1059 466
VStem: 403 262<1306.63 1478.13>
LayerCount: 3
Fore
SplineSet
403 1386 m 0
 403 1453 474 1525 551 1525 c 0
 607 1525 665 1489 665 1408 c 0
 665 1220 436 1066 436 1066 c 1
 414 1059 l 1
 267 1059 l 1
 363 1124 l 1
 419 1160 477 1231 506 1288 c 1
 502 1288 l 2
 453 1288 403 1325 403 1386 c 0
EndSplineSet
Validated: 1
Layer: 2
SplineSet
403 1386 m 0,0,1
 403 1437 403 1437 448.5 1481 c 128,-1,2
 494 1525 494 1525 551 1525 c 0,3,4
 597 1525 597 1525 631 1495 c 128,-1,5
 665 1465 665 1465 665 1408 c 0,6,7
 665 1370 665 1370 652.5 1330 c 128,-1,8
 640 1290 640 1290 619.5 1257.5 c 128,-1,9
 599 1225 599 1225 574.5 1194.5 c 128,-1,10
 550 1164 550 1164 526 1141 c 128,-1,11
 502 1118 502 1118 481.5 1101 c 128,-1,12
 461 1084 461 1084 448.5 1075 c 2,13,-1
 436 1066 l 1,14,-1
 414 1059 l 1,15,-1
 267 1059 l 1,16,-1
 363 1124 l 2,17,18
 403 1150 403 1150 443 1196.5 c 128,-1,19
 483 1243 483 1243 506 1288 c 1,20,-1
 502 1288 l 2,21,22
 463 1288 463 1288 433 1315 c 128,-1,23
 403 1342 403 1342 403 1386 c 0,0,1
EndSplineSet
EndChar

StartChar: parenleft
Encoding: 40 40 8
Width: 521
VWidth: 2982
Flags: W
VStem: 141 166<-147.859 647.914>
LayerCount: 3
Fore
SplineSet
141 273 m 0
 141 808 349 1241 624 1610 c 1
 771 1610 l 1
 544 1265 307 810 307 226 c 0
 307 32 333 -141 369 -305 c 1
 224 -305 l 1
 177 -134 141 56 141 273 c 0
EndSplineSet
Validated: 1
Layer: 2
SplineSet
141 273 m 0,0,1
 141 468 141 468 177 653.5 c 128,-1,2
 213 839 213 839 280.5 1006 c 128,-1,3
 348 1173 348 1173 431.5 1318.5 c 128,-1,4
 515 1464 515 1464 624 1610 c 1,5,-1
 771 1610 l 1,6,7
 695 1495 695 1495 634.5 1389 c 128,-1,8
 574 1283 574 1283 510.5 1142.5 c 128,-1,9
 447 1002 447 1002 404.5 865.5 c 128,-1,10
 362 729 362 729 334.5 562 c 128,-1,11
 307 395 307 395 307 226 c 0,12,13
 307 -23 307 -23 369 -305 c 1,14,-1
 224 -305 l 1,15,16
 141 -3 141 -3 141 273 c 0,0,1
EndSplineSet
EndChar

StartChar: parenright
Encoding: 41 41 9
Width: 521
VWidth: 2982
Flags: W
VStem: 500 169<691.606 1451.03>
LayerCount: 3
Fore
SplineSet
669 1066 m 0
 669 487 380 0 171 -305 c 1
 25 -305 l 1
 242 34 500 517 500 1102 c 0
 500 1285 472 1448 436 1610 c 1
 581 1610 l 1
 634 1448 669 1267 669 1066 c 0
EndSplineSet
Validated: 1
Layer: 2
SplineSet
669 1066 m 0,0,1
 669 900 669 900 636 729.5 c 128,-1,2
 603 559 603 559 555 422 c 128,-1,3
 507 285 507 285 435.5 141.5 c 128,-1,4
 364 -2 364 -2 304 -100 c 128,-1,5
 244 -198 244 -198 171 -305 c 1,6,-1
 25 -305 l 1,7,8
 99 -189 99 -189 158.5 -83.5 c 128,-1,9
 218 22 218 22 285 167.5 c 128,-1,10
 352 313 352 313 396.5 452.5 c 128,-1,11
 441 592 441 592 470.5 762.5 c 128,-1,12
 500 933 500 933 500 1102 c 0,13,14
 500 1322 500 1322 436 1610 c 1,15,-1
 581 1610 l 1,16,17
 669 1341 669 1341 669 1066 c 0,0,1
EndSplineSet
EndChar

StartChar: asterisk
Encoding: 42 42 10
Width: 982
VWidth: 2982
Flags: W
HStem: 1173 629
VStem: 479 660
DStem2: 504 1265 618 1173 0.659077 0.752075<5.94382 246.564>
LayerCount: 3
Fore
SplineSet
792 1802 m 1
 961 1802 l 1
 918 1602 l 1
 1139 1654 l 1
 1144 1497 l 1
 933 1450 l 1
 1021 1265 l 1
 867 1173 l 1
 781 1359 l 1
 618 1173 l 1
 504 1265 l 1
 667 1450 l 1
 479 1497 l 1
 549 1654 l 1
 750 1602 l 1
 792 1802 l 1
EndSplineSet
Validated: 1
Layer: 2
SplineSet
792 1802 m 1,0,-1
 961 1802 l 1,1,-1
 918 1602 l 1,2,-1
 1139 1654 l 1,3,-1
 1144 1497 l 1,4,-1
 933 1450 l 1,5,-1
 1021 1265 l 1,6,-1
 867 1173 l 1,7,-1
 781 1359 l 1,8,-1
 618 1173 l 1,9,-1
 504 1265 l 1,10,-1
 667 1450 l 1,11,-1
 479 1497 l 1,12,-1
 549 1654 l 1,13,-1
 750 1602 l 1,14,-1
 792 1802 l 1,0,-1
EndSplineSet
EndChar

StartChar: plus
Encoding: 43 43 11
Width: 935
VWidth: 2982
Flags: W
HStem: 665 161<213 530 726 1043>
DStem2: 455 314 615 314 0.207912 0.978148<33.2659 358.923 557.156 884.146>
LayerCount: 3
Fore
SplineSet
615 314 m 1
 455 314 l 1
 530 665 l 1
 177 665 l 1
 213 826 l 1
 564 826 l 1
 638 1179 l 1
 799 1179 l 1
 726 826 l 1
 1077 826 l 1
 1043 665 l 1
 692 665 l 1
 615 314 l 1
EndSplineSet
Validated: 1
Layer: 2
SplineSet
615 314 m 1,0,-1
 455 314 l 1,1,-1
 530 665 l 1,2,-1
 177 665 l 1,3,-1
 213 826 l 1,4,-1
 564 826 l 1,5,-1
 638 1179 l 1,6,-1
 799 1179 l 1,7,-1
 726 826 l 1,8,-1
 1077 826 l 1,9,-1
 1043 665 l 1,10,-1
 692 665 l 1,11,-1
 615 314 l 1,0,-1
EndSplineSet
EndChar

StartChar: comma
Encoding: 44 44 12
Width: 570
VWidth: 2982
Flags: W
HStem: -242 466
VStem: 188 260<2.80596 177.078>
LayerCount: 3
Fore
SplineSet
188 79 m 0
 188 154 260 224 333 224 c 0
 393 224 448 184 448 105 c 0
 448 -107 197 -242 197 -242 c 1
 79 -242 l 1
 166 -184 269 -79 282 -15 c 1
 226 -13 188 25 188 79 c 0
EndSplineSet
Validated: 1
Layer: 2
SplineSet
188 79 m 0,0,1
 188 135 188 135 233 179.5 c 128,-1,2
 278 224 278 224 333 224 c 0,3,4
 381 224 381 224 414.5 192.5 c 128,-1,5
 448 161 448 161 448 105 c 0,6,7
 448 46 448 46 422 -12 c 128,-1,8
 396 -70 396 -70 359 -109.5 c 128,-1,9
 322 -149 322 -149 285.5 -180.5 c 128,-1,10
 249 -212 249 -212 223 -227 c 2,11,-1
 197 -242 l 1,12,-1
 79 -242 l 1,13,14
 148 -196 148 -196 210.5 -128.5 c 128,-1,15
 273 -61 273 -61 282 -15 c 1,16,17
 240 -14 240 -14 214 12 c 128,-1,18
 188 38 188 38 188 79 c 0,0,1
EndSplineSet
EndChar

StartChar: hyphen
Encoding: 45 45 13
Width: 899
VWidth: 2982
Flags: W
HStem: 517 162<250 904>
LayerCount: 3
Fore
SplineSet
938 679 m 1
 904 517 l 1
 218 517 l 1
 250 679 l 1
 938 679 l 1
EndSplineSet
Validated: 1
Layer: 2
SplineSet
938 679 m 1,0,-1
 904 517 l 1,1,-1
 218 517 l 1,2,-1
 250 679 l 1,3,-1
 938 679 l 1,0,-1
EndSplineSet
EndChar

StartChar: period
Encoding: 46 46 14
Width: 570
VWidth: 2982
Flags: W
HStem: -11 237<232.897 384.665>
VStem: 188 244<35.7286 179.716>
LayerCount: 3
Fore
SplineSet
188 83 m 0
 188 154 258 226 336 226 c 0
 391 226 432 186 432 132 c 0
 432 51 349 -11 284 -11 c 0
 228 -11 188 30 188 83 c 0
EndSplineSet
Validated: 1
Layer: 2
SplineSet
188 83 m 0,0,1
 188 137 188 137 233 181.5 c 128,-1,2
 278 226 278 226 336 226 c 0,3,4
 377 226 377 226 404.5 199 c 128,-1,5
 432 172 432 172 432 132 c 0,6,7
 432 74 432 74 384 31.5 c 128,-1,8
 336 -11 336 -11 284 -11 c 0,9,10
 242 -11 242 -11 215 16 c 128,-1,11
 188 43 188 43 188 83 c 0,0,1
EndSplineSet
EndChar

StartChar: slash
Encoding: 47 47 15
Width: 1168
VWidth: 2982
Flags: W
DStem2: -77 -36 121 -36 0.678124 0.734947<134.269 2128.05>
LayerCount: 3
Fore
SplineSet
1365 1529 m 1
 1565 1529 l 1
 121 -36 l 1
 -77 -36 l 1
 1365 1529 l 1
EndSplineSet
Validated: 1
Layer: 2
SplineSet
1365 1529 m 1,0,-1
 1565 1529 l 1,1,-1
 121 -36 l 1,2,-1
 -77 -36 l 1,3,-1
 1365 1529 l 1,0,-1
EndSplineSet
EndChar

StartChar: zero
Encoding: 48 48 16
Width: 1179
VWidth: 2877
Flags: W
HStem: -13 152<504.948 758.244> 1352 154<752.32 1005.43>
VStem: 211 158<307.85 818.029> 1141 160<672.894 1183.73>
LayerCount: 3
Fore
SplineSet
1301 976 m 0
 1301 521 978 -13 593 -13 c 0
 344 -13 211 220 211 515 c 0
 211 969 532 1506 918 1506 c 0
 1166 1506 1301 1273 1301 976 c 0
884 1352 m 0
 667 1352 369 974 369 549 c 0
 369 295 487 139 626 139 c 0
 844 139 1141 517 1141 942 c 0
 1141 1196 1023 1352 884 1352 c 0
EndSplineSet
Validated: 1
Layer: 2
SplineSet
1301 976 m 0,0,1
 1301 841 1301 841 1265 699 c 128,-1,2
 1229 557 1229 557 1162 431 c 128,-1,3
 1095 305 1095 305 1009 204.5 c 128,-1,4
 923 104 923 104 814 45.5 c 128,-1,5
 705 -13 705 -13 593 -13 c 0,6,7
 472 -13 472 -13 384 58 c 128,-1,8
 296 129 296 129 253.5 247 c 128,-1,9
 211 365 211 365 211 515 c 0,10,11
 211 684 211 684 268 861 c 128,-1,12
 325 1038 325 1038 419 1181 c 128,-1,13
 513 1324 513 1324 645.5 1415 c 128,-1,14
 778 1506 778 1506 918 1506 c 0,15,16
 1039 1506 1039 1506 1127 1435 c 128,-1,17
 1215 1364 1215 1364 1258 1245.5 c 128,-1,18
 1301 1127 1301 1127 1301 976 c 0,0,1
884 1352 m 0,19,20
 820 1352 820 1352 747.5 1310 c 128,-1,21
 675 1268 675 1268 608.5 1191 c 128,-1,22
 542 1114 542 1114 488 1016 c 128,-1,23
 434 918 434 918 401.5 795 c 128,-1,24
 369 672 369 672 369 549 c 0,25,26
 369 364 369 364 443.5 251.5 c 128,-1,27
 518 139 518 139 626 139 c 0,28,29
 691 139 691 139 763 181 c 128,-1,30
 835 223 835 223 901.5 300 c 128,-1,31
 968 377 968 377 1022 475 c 128,-1,32
 1076 573 1076 573 1108.5 696 c 128,-1,33
 1141 819 1141 819 1141 942 c 0,34,35
 1141 1127 1141 1127 1066.5 1239.5 c 128,-1,36
 992 1352 992 1352 884 1352 c 0,19,20
EndSplineSet
EndChar

StartChar: one
Encoding: 49 49 17
Width: 1177
VWidth: 2880
Flags: W
HStem: 0 21G<513 677.263> 1486 20G<955.376 989.737>
VStem: 513 481
DStem2: 513 0 673 0 0.207912 0.978148<33.2659 1260.53>
LayerCount: 3
Fore
SplineSet
775 1233 m 1
 622 1155 l 1
 573 1288 l 1
 994 1506 l 1
 673 0 l 1
 513 0 l 1
 775 1233 l 1
EndSplineSet
Validated: 1
Layer: 2
SplineSet
775 1233 m 1,0,-1
 622 1155 l 1,1,-1
 573 1288 l 1,2,-1
 994 1506 l 1,3,-1
 673 0 l 1,4,-1
 513 0 l 1,5,-1
 775 1233 l 1,0,-1
EndSplineSet
EndChar

StartChar: two
Encoding: 50 50 18
Width: 1177
VWidth: 2877
Flags: W
HStem: 0 154<275 1100> 1354 152<728.761 1026.34>
VStem: 346 160<985 1117.64> 1126 159<942.944 1250.35>
LayerCount: 3
Fore
SplineSet
1285 1126 m 0
 1285 587 455 513 275 154 c 1
 1132 154 l 1
 1100 0 l 1
 77 0 l 1
 92 74 l 1
 199 585 1041 662 1117 1021 c 1
 1124 1047 1126 1074 1126 1100 c 0
 1126 1249 1025 1354 886 1354 c 0
 726 1354 553 1211 513 1021 c 1
 506 985 l 1
 346 985 l 1
 354 1021 l 1
 410 1285 658 1506 918 1506 c 0
 1139 1506 1285 1341 1285 1126 c 0
EndSplineSet
Validated: 1
Layer: 2
SplineSet
1285 1126 m 0,0,1
 1285 1039 1285 1039 1256.5 962.5 c 128,-1,2
 1228 886 1228 886 1178 827 c 128,-1,3
 1128 768 1128 768 1063 715 c 128,-1,4
 998 662 998 662 923 617 c 128,-1,5
 848 572 848 572 770.5 530 c 128,-1,6
 693 488 693 488 616.5 445.5 c 128,-1,7
 540 403 540 403 475 360 c 128,-1,8
 410 317 410 317 356.5 264 c 128,-1,9
 303 211 303 211 275 154 c 1,10,-1
 1132 154 l 1,11,-1
 1100 0 l 1,12,-1
 77 0 l 1,13,-1
 92 74 l 2,14,15
 114 178 114 178 178.5 268 c 128,-1,16
 243 358 243 358 329.5 423.5 c 128,-1,17
 416 489 416 489 516 547.5 c 128,-1,18
 616 606 616 606 715.5 659 c 128,-1,19
 815 712 815 712 899 765 c 128,-1,20
 983 818 983 818 1042.5 883.5 c 128,-1,21
 1102 949 1102 949 1117 1021 c 0,22,23
 1126 1054 1126 1054 1126 1100 c 0,24,25
 1126 1211 1126 1211 1058.5 1282.5 c 128,-1,26
 991 1354 991 1354 886 1354 c 0,27,28
 764 1354 764 1354 653 1257.5 c 128,-1,29
 542 1161 542 1161 513 1021 c 2,30,-1
 506 985 l 1,31,-1
 346 985 l 1,32,-1
 354 1021 l 2,33,34
 382 1151 382 1151 466 1262.5 c 128,-1,35
 550 1374 550 1374 670.5 1440 c 128,-1,36
 791 1506 791 1506 918 1506 c 0,37,38
 1081 1506 1081 1506 1183 1398 c 128,-1,39
 1285 1290 1285 1290 1285 1126 c 0,0,1
EndSplineSet
EndChar

StartChar: three
Encoding: 51 51 19
Width: 1179
VWidth: 2877
Flags: W
HStem: -13 152<477.822 797> 777 154<763 918.475> 1352 154<743.129 1013.07>
VStem: 199 164<250.03 492.469> 1032 159<358.443 667.121> 1074 161<1045.33 1292.82>
LayerCount: 3
Fore
SplineSet
1191 553 m 0xf8
 1191 273 914 -13 593 -13 c 0
 361 -13 199 148 199 365 c 0
 199 396 201 427 208 459 c 1
 218 493 l 1
 376 493 l 1
 369 459 l 2
 365 436 363 416 363 396 c 0
 363 250 472 139 628 139 c 0
 822 139 1032 316 1032 521 c 0xf8
 1032 667 922 777 765 777 c 2
 730 777 l 1
 763 931 l 1
 797 931 l 2
 931 931 1074 1030 1074 1175 c 0
 1074 1276 998 1352 886 1352 c 0
 761 1352 638 1254 613 1132 c 1
 604 1100 l 1
 448 1100 l 1
 455 1132 l 2
 500 1341 707 1506 920 1506 c 0
 1106 1506 1235 1382 1235 1209 c 0xf4
 1235 1070 1155 940 1034 859 c 1
 1132 792 1191 683 1191 553 c 0xf8
EndSplineSet
Validated: 1
Layer: 2
SplineSet
1191 553 m 0,0,1
 1191 450 1191 450 1142 347 c 128,-1,2
 1093 244 1093 244 1013 165 c 128,-1,3
 933 86 933 86 821.5 36.5 c 128,-1,4
 710 -13 710 -13 593 -13 c 0,5,6
 420 -13 420 -13 309.5 94 c 128,-1,7
 199 201 199 201 199 365 c 0,8,9
 199 418 199 418 208 459 c 2,10,-1
 218 493 l 1,11,-1
 376 493 l 1,12,-1
 369 459 l 2,13,14
 363 425 363 425 363 396 c 0,15,16
 363 286 363 286 437.5 212.5 c 128,-1,17
 512 139 512 139 628 139 c 0,18,19
 724 139 724 139 817.5 191 c 128,-1,20
 911 243 911 243 971.5 332.5 c 128,-1,21
 1032 422 1032 422 1032 521 c 0,22,23
 1032 631 1032 631 957 704 c 128,-1,24
 882 777 882 777 765 777 c 2,25,-1
 730 777 l 1,26,-1
 763 931 l 1,27,-1
 797 931 l 2,28,29
 903 931 903 931 988.5 1001 c 128,-1,30
 1074 1071 1074 1071 1074 1175 c 0,31,32
 1074 1252 1074 1252 1021.5 1302 c 128,-1,33
 969 1352 969 1352 886 1352 c 0,34,35
 792 1352 792 1352 712 1287.5 c 128,-1,36
 632 1223 632 1223 613 1132 c 1,37,-1
 604 1100 l 1,38,-1
 448 1100 l 1,39,-1
 455 1132 l 2,40,41
 489 1288 489 1288 624.5 1397 c 128,-1,42
 760 1506 760 1506 920 1506 c 0,43,44
 1059 1506 1059 1506 1147 1422.5 c 128,-1,45
 1235 1339 1235 1339 1235 1209 c 0,46,47
 1235 1106 1235 1106 1180.5 1013.5 c 128,-1,48
 1126 921 1126 921 1034 859 c 1,49,50
 1108 808 1108 808 1149.5 728.5 c 128,-1,51
 1191 649 1191 649 1191 553 c 0,0,1
EndSplineSet
EndChar

StartChar: four
Encoding: 52 52 20
Width: 1177
VWidth: 2880
Flags: W
HStem: 2 21G<803 967.226> 267 154<346 859 1050 1139>
DStem2: -2 267 346 421 0.703575 0.710621<354.28 1339.28> 803 2 963 2 0.207912 0.978148<33.2659 270.852 461.198 1142.07>
LayerCount: 3
Fore
SplineSet
893 421 m 1
 1041 1119 l 1
 346 421 l 1
 893 421 l 1
963 2 m 1
 803 2 l 1
 859 267 l 1
 -2 267 l 1
 1296 1578 l 1
 1050 421 l 1
 1224 421 l 1
 1139 267 l 1
 1019 267 l 1
 963 2 l 1
EndSplineSet
Validated: 1
Layer: 2
SplineSet
893 421 m 1,0,-1
 1041 1119 l 1,1,-1
 346 421 l 1,2,-1
 893 421 l 1,0,-1
963 2 m 1,3,-1
 803 2 l 1,4,-1
 859 267 l 1,5,-1
 -2 267 l 1,6,-1
 1296 1578 l 1,7,-1
 1050 421 l 1,8,-1
 1224 421 l 1,9,-1
 1139 267 l 1,10,-1
 1019 267 l 1,11,-1
 963 2 l 1,3,-1
EndSplineSet
EndChar

StartChar: five
Encoding: 53 53 21
Width: 1177
VWidth: 2877
Flags: W
HStem: -17 154<466.592 795.29> 933 148<617.99 947.686> 1339 154<604 1220>
VStem: 168 161<282.917 491> 1085 162<434.121 792.451>
DStem2: 258 712 497 980 0.285884 0.958264<44.0262 147.219 325.141 699.748>
LayerCount: 3
Fore
SplineSet
622 137 m 0
 859 137 1085 374 1085 624 c 0
 1085 803 963 933 792 933 c 0
 660 933 521 857 412 712 c 1
 258 712 l 1
 491 1493 l 1
 1305 1493 l 1
 1220 1339 l 1
 604 1339 l 1
 497 980 l 1
 596 1043 707 1081 824 1081 c 0
 1079 1081 1247 893 1247 651 c 0
 1247 320 940 -17 591 -17 c 0
 336 -17 168 171 168 412 c 1
 173 491 l 1
 329 491 l 1
 329 446 l 2
 329 267 450 137 622 137 c 0
EndSplineSet
Validated: 1
Layer: 2
SplineSet
622 137 m 0,0,1
 738 137 738 137 845.5 206 c 128,-1,2
 953 275 953 275 1019 388.5 c 128,-1,3
 1085 502 1085 502 1085 624 c 0,4,5
 1085 758 1085 758 1002.5 845.5 c 128,-1,6
 920 933 920 933 792 933 c 0,7,8
 691 933 691 933 592 876 c 128,-1,9
 493 819 493 819 412 712 c 1,10,-1
 258 712 l 1,11,-1
 491 1493 l 1,12,-1
 1305 1493 l 1,13,-1
 1220 1339 l 1,14,-1
 604 1339 l 1,15,-1
 497 980 l 1,16,17
 656 1081 656 1081 824 1081 c 0,18,19
 1012 1081 1012 1081 1129.5 958.5 c 128,-1,20
 1247 836 1247 836 1247 651 c 0,21,22
 1247 529 1247 529 1193 407.5 c 128,-1,23
 1139 286 1139 286 1050.5 192.5 c 128,-1,24
 962 99 962 99 840 41 c 128,-1,25
 718 -17 718 -17 591 -17 c 0,26,27
 403 -17 403 -17 285.5 105.5 c 128,-1,28
 168 228 168 228 168 412 c 1,29,-1
 173 491 l 1,30,-1
 329 491 l 1,31,-1
 329 446 l 2,32,33
 329 311 329 311 411 224 c 128,-1,34
 493 137 493 137 622 137 c 0,0,1
EndSplineSet
EndChar

StartChar: six
Encoding: 54 54 22
Width: 1177
VWidth: 2877
Flags: W
HStem: -15 152<467.001 793.346> 940 150<739.824 949.964> 1475 20G<687.5 1110>
VStem: 168 163<279.646 637.832> 1088 161<445.654 800.845>
LayerCount: 3
Fore
SplineSet
622 137 m 0
 850 137 1088 374 1088 634 c 0
 1088 810 965 940 795 940 c 0
 566 940 331 712 331 453 c 0
 331 271 453 137 622 137 c 0
168 421 m 0
 168 777 455 978 920 1495 c 1
 1110 1495 l 1
 737 1083 l 1
 765 1088 797 1090 826 1090 c 0
 1081 1090 1249 902 1249 660 c 0
 1249 329 938 -15 591 -15 c 0
 333 -15 168 177 168 421 c 0
EndSplineSet
Validated: 1
Layer: 2
SplineSet
622 137 m 0,0,1
 706 137 706 137 791 178.5 c 128,-1,2
 876 220 876 220 941 287.5 c 128,-1,3
 1006 355 1006 355 1047 447 c 128,-1,4
 1088 539 1088 539 1088 634 c 0,5,6
 1088 766 1088 766 1005 853 c 128,-1,7
 922 940 922 940 795 940 c 0,8,9
 682 940 682 940 574.5 873 c 128,-1,10
 467 806 467 806 399 692.5 c 128,-1,11
 331 579 331 579 331 453 c 0,12,13
 331 316 331 316 413 226.5 c 128,-1,14
 495 137 495 137 622 137 c 0,0,1
168 421 m 0,15,16
 168 496 168 496 184 564 c 128,-1,17
 200 632 200 632 237 701 c 128,-1,18
 274 770 274 770 316 829 c 128,-1,19
 358 888 358 888 430 969 c 128,-1,20
 502 1050 502 1050 566 1117 c 128,-1,21
 630 1184 630 1184 733.5 1293 c 128,-1,22
 837 1402 837 1402 920 1495 c 1,23,-1
 1110 1495 l 1,24,-1
 737 1083 l 1,25,26
 776 1090 776 1090 826 1090 c 0,27,28
 1014 1090 1014 1090 1131.5 967.5 c 128,-1,29
 1249 845 1249 845 1249 660 c 0,30,31
 1249 497 1249 497 1158 340.5 c 128,-1,32
 1067 184 1067 184 913 84.5 c 128,-1,33
 759 -15 759 -15 591 -15 c 0,34,35
 401 -15 401 -15 284.5 109.5 c 128,-1,36
 168 234 168 234 168 421 c 0,15,16
EndSplineSet
EndChar

StartChar: seven
Encoding: 55 55 23
Width: 1179
VWidth: 2877
Flags: W
HStem: 0 21G<346 534.449> 1339 154<466 1249>
DStem2: 346 0 521 0 0.558031 0.82982<97.6554 1615.03>
LayerCount: 3
Fore
SplineSet
466 1493 m 1
 1525 1493 l 1
 521 0 l 1
 346 0 l 1
 1249 1339 l 1
 380 1339 l 1
 466 1493 l 1
EndSplineSet
Validated: 1
Layer: 2
SplineSet
466 1493 m 1,0,-1
 1525 1493 l 1,1,-1
 521 0 l 1,2,-1
 346 0 l 1,3,-1
 1249 1339 l 1,4,-1
 380 1339 l 1,5,-1
 466 1493 l 1,0,-1
EndSplineSet
EndChar

StartChar: eight
Encoding: 56 56 24
Width: 1179
VWidth: 2877
Flags: W
HStem: -13 152<472.043 794.614> 777 154<670.349 915.986> 1352 154<738.844 1009.71>
VStem: 199 162<249.663 558.02> 448 161<989.51 1230.93> 1030 158<363.516 665.403> 1070 159<1051.8 1294.93>
LayerCount: 3
Fore
SplineSet
1229 1213 m 0xfa
 1229 1047 1117 925 1030 865 c 1
 1130 797 1188 685 1188 553 c 0xfc
 1188 267 908 -13 593 -13 c 0
 361 -13 199 148 199 365 c 0
 199 564 333 761 532 865 c 1
 479 916 448 987 448 1068 c 0
 448 1288 665 1506 918 1506 c 0
 1102 1506 1229 1382 1229 1213 c 0xfa
761 777 m 0
 568 777 361 604 361 393 c 0
 361 250 470 139 626 139 c 0
 820 139 1030 316 1030 521 c 0
 1030 667 920 777 761 777 c 0
884 1352 m 0
 754 1352 609 1241 609 1104 c 0
 609 1008 683 931 795 931 c 0
 925 931 1070 1043 1070 1182 c 0xfa
 1070 1278 994 1352 884 1352 c 0
EndSplineSet
Validated: 1
Layer: 2
SplineSet
1229 1213 m 0,0,1
 1229 1100 1229 1100 1169.5 1010 c 128,-1,2
 1110 920 1110 920 1030 865 c 1,3,4
 1105 814 1105 814 1146.5 733 c 128,-1,5
 1188 652 1188 652 1188 553 c 0,6,7
 1188 448 1188 448 1139 344.5 c 128,-1,8
 1090 241 1090 241 1009.5 162.5 c 128,-1,9
 929 84 929 84 818.5 35.5 c 128,-1,10
 708 -13 708 -13 593 -13 c 0,11,12
 420 -13 420 -13 309.5 94 c 128,-1,13
 199 201 199 201 199 365 c 0,14,15
 199 514 199 514 290.5 650.5 c 128,-1,16
 382 787 382 787 532 865 c 1,17,18
 448 946 448 946 448 1068 c 0,19,20
 448 1177 448 1177 512 1278 c 128,-1,21
 576 1379 576 1379 685.5 1442.5 c 128,-1,22
 795 1506 795 1506 918 1506 c 0,23,24
 1055 1506 1055 1506 1142 1423.5 c 128,-1,25
 1229 1341 1229 1341 1229 1213 c 0,0,1
761 777 m 0,26,27
 689 777 689 777 617 746.5 c 128,-1,28
 545 716 545 716 488.5 665 c 128,-1,29
 432 614 432 614 396.5 542 c 128,-1,30
 361 470 361 470 361 393 c 0,31,32
 361 285 361 285 435.5 212 c 128,-1,33
 510 139 510 139 626 139 c 0,34,35
 722 139 722 139 815.5 191 c 128,-1,36
 909 243 909 243 969.5 332.5 c 128,-1,37
 1030 422 1030 422 1030 521 c 0,38,39
 1030 631 1030 631 954.5 704 c 128,-1,40
 879 777 879 777 761 777 c 0,26,27
884 1352 m 0,41,42
 783 1352 783 1352 696 1278 c 128,-1,43
 609 1204 609 1204 609 1104 c 0,44,45
 609 1031 609 1031 661 981 c 128,-1,46
 713 931 713 931 795 931 c 0,47,48
 896 931 896 931 983 1006 c 128,-1,49
 1070 1081 1070 1081 1070 1182 c 0,50,51
 1070 1255 1070 1255 1018 1303.5 c 128,-1,52
 966 1352 966 1352 884 1352 c 0,41,42
EndSplineSet
EndChar

StartChar: nine
Encoding: 57 57 25
Width: 1177
VWidth: 2877
Flags: W
HStem: 0 21G<396 815> 406 149<556.506 765.369> 1354 150<710.915 1038.04>
VStem: 258 161<694.104 1049.05> 1175 162<857.395 1214.57>
LayerCount: 3
Fore
SplineSet
882 1354 m 0
 654 1354 419 1121 419 867 c 0
 419 685 542 555 712 555 c 0
 938 555 1175 786 1175 1043 c 0
 1175 1224 1053 1354 882 1354 c 0
1337 1074 m 0
 1337 718 1043 506 587 0 c 1
 396 0 l 1
 767 412 l 1
 739 408 709 406 681 406 c 0
 423 406 258 591 258 833 c 0
 258 1164 564 1504 914 1504 c 0
 1171 1504 1337 1318 1337 1074 c 0
EndSplineSet
Validated: 1
Layer: 2
SplineSet
882 1354 m 0,0,1
 770 1354 770 1354 662.5 1286 c 128,-1,2
 555 1218 555 1218 487 1104 c 128,-1,3
 419 990 419 990 419 867 c 0,4,5
 419 731 419 731 501.5 643 c 128,-1,6
 584 555 584 555 712 555 c 0,7,8
 795 555 795 555 879.5 595.5 c 128,-1,9
 964 636 964 636 1028.5 702 c 128,-1,10
 1093 768 1093 768 1134 858.5 c 128,-1,11
 1175 949 1175 949 1175 1043 c 0,12,13
 1175 1179 1175 1179 1092.5 1266.5 c 128,-1,14
 1010 1354 1010 1354 882 1354 c 0,0,1
1337 1074 m 0,15,16
 1337 999 1337 999 1321 930.5 c 128,-1,17
 1305 862 1305 862 1267 792.5 c 128,-1,18
 1229 723 1229 723 1187 663 c 128,-1,19
 1145 603 1145 603 1072.5 521.5 c 128,-1,20
 1000 440 1000 440 936.5 373.5 c 128,-1,21
 873 307 873 307 770.5 198.5 c 128,-1,22
 668 90 668 90 587 0 c 1,23,-1
 396 0 l 1,24,-1
 767 412 l 1,25,26
 725 406 725 406 681 406 c 0,27,28
 491 406 491 406 374.5 527 c 128,-1,29
 258 648 258 648 258 833 c 0,30,31
 258 997 258 997 348 1152 c 128,-1,32
 438 1307 438 1307 591 1405.5 c 128,-1,33
 744 1504 744 1504 914 1504 c 0,34,35
 1104 1504 1104 1504 1220.5 1382 c 128,-1,36
 1337 1260 1337 1260 1337 1074 c 0,15,16
EndSplineSet
EndChar

StartChar: colon
Encoding: 58 58 26
Width: 570
VWidth: 2982
Flags: W
HStem: -11 237<232.897 384.665> 790 240<401.938 555.172>
VStem: 188 244<35.7286 179.716> 359 243<835.703 985.391>
LayerCount: 3
Fore
SplineSet
188 83 m 0xe0
 188 154 258 226 336 226 c 0
 391 226 432 186 432 132 c 0
 432 51 349 -11 284 -11 c 0
 228 -11 188 30 188 83 c 0xe0
359 886 m 0xd0
 359 972 438 1030 506 1030 c 0
 562 1030 602 989 602 936 c 0
 602 850 519 790 455 790 c 0
 399 790 359 831 359 886 c 0xd0
EndSplineSet
Validated: 1
Layer: 2
SplineSet
188 83 m 0,0,1
 188 137 188 137 233 181.5 c 128,-1,2
 278 226 278 226 336 226 c 0,3,4
 377 226 377 226 404.5 199 c 128,-1,5
 432 172 432 172 432 132 c 0,6,7
 432 74 432 74 384 31.5 c 128,-1,8
 336 -11 336 -11 284 -11 c 0,9,10
 242 -11 242 -11 215 16 c 128,-1,11
 188 43 188 43 188 83 c 0,0,1
359 886 m 0,12,13
 359 947 359 947 405 988.5 c 128,-1,14
 451 1030 451 1030 506 1030 c 0,15,16
 548 1030 548 1030 575 1003 c 128,-1,17
 602 976 602 976 602 936 c 0,18,19
 602 875 602 875 554.5 832.5 c 128,-1,20
 507 790 507 790 455 790 c 0,21,22
 413 790 413 790 386 817.5 c 128,-1,23
 359 845 359 845 359 886 c 0,12,13
EndSplineSet
EndChar

StartChar: semicolon
Encoding: 59 59 27
Width: 570
VWidth: 2982
Flags: W
HStem: 790 240<401.938 555.172>
VStem: 188 260<2.80596 177.078> 359 243<835.703 985.391>
LayerCount: 3
Fore
SplineSet
188 79 m 0xc0
 188 154 260 224 333 224 c 0
 393 224 448 184 448 105 c 0
 448 -107 197 -242 197 -242 c 1
 79 -242 l 1
 166 -184 269 -79 282 -15 c 1
 226 -13 188 25 188 79 c 0xc0
359 886 m 0xa0
 359 972 438 1030 506 1030 c 0
 562 1030 602 989 602 936 c 0
 602 850 519 790 455 790 c 0
 399 790 359 831 359 886 c 0xa0
EndSplineSet
Validated: 1
Layer: 2
SplineSet
188 79 m 0,0,1
 188 135 188 135 233 179.5 c 128,-1,2
 278 224 278 224 333 224 c 0,3,4
 381 224 381 224 414.5 192.5 c 128,-1,5
 448 161 448 161 448 105 c 0,6,7
 448 46 448 46 422 -12 c 128,-1,8
 396 -70 396 -70 359 -109.5 c 128,-1,9
 322 -149 322 -149 285.5 -180.5 c 128,-1,10
 249 -212 249 -212 223 -227 c 2,11,-1
 197 -242 l 1,12,-1
 79 -242 l 1,13,14
 148 -196 148 -196 210.5 -128.5 c 128,-1,15
 273 -61 273 -61 282 -15 c 1,16,17
 240 -14 240 -14 214 12 c 128,-1,18
 188 38 188 38 188 79 c 0,0,1
359 886 m 0,19,20
 359 947 359 947 405 988.5 c 128,-1,21
 451 1030 451 1030 506 1030 c 0,22,23
 548 1030 548 1030 575 1003 c 128,-1,24
 602 976 602 976 602 936 c 0,25,26
 602 875 602 875 554.5 832.5 c 128,-1,27
 507 790 507 790 455 790 c 0,28,29
 413 790 413 790 386 817.5 c 128,-1,30
 359 845 359 845 359 886 c 0,19,20
EndSplineSet
EndChar

StartChar: less
Encoding: 60 60 28
Width: 1179
VWidth: 2982
Flags: W
HStem: -2 21G<826.513 1166>
DStem2: 83 540 391 540 0.879993 0.474986<271.038 1139.67> 391 540 83 540 0.81948 -0.573107<0 690.863>
LayerCount: 3
Fore
SplineSet
1166 -2 m 1
 855 -2 l 1
 83 540 l 1
 1085 1083 l 1
 1397 1083 l 1
 391 540 l 1
 1166 -2 l 1
EndSplineSet
Validated: 1
Layer: 2
SplineSet
1166 -2 m 1,0,-1
 855 -2 l 1,1,-1
 83 540 l 1,2,-1
 1085 1083 l 1,3,-1
 1397 1083 l 1,4,-1
 391 540 l 1,5,-1
 1166 -2 l 1,0,-1
EndSplineSet
EndChar

StartChar: equal
Encoding: 61 61 29
Width: 1078
VWidth: 2982
Flags: W
HStem: 396 161<226 1057> 696 161<289 1121>
LayerCount: 3
Fore
SplineSet
1155 857 m 1
 1121 696 l 1
 255 696 l 1
 289 857 l 1
 1155 857 l 1
1092 557 m 1
 1057 396 l 1
 192 396 l 1
 226 557 l 1
 1092 557 l 1
EndSplineSet
Validated: 1
Layer: 2
SplineSet
1155 857 m 1,0,-1
 1121 696 l 1,1,-1
 255 696 l 1,2,-1
 289 857 l 1,3,-1
 1155 857 l 1,0,-1
1092 557 m 1,4,-1
 1057 396 l 1,5,-1
 192 396 l 1,6,-1
 226 557 l 1,7,-1
 1092 557 l 1,4,-1
EndSplineSet
EndChar

StartChar: greater
Encoding: 62 62 30
Width: 1179
VWidth: 2982
Flags: W
HStem: -2 21G<15 364.011>
DStem2: 15 -2 327 -2 0.879964 0.47504<274.549 1140.96> 557 1083 246 1083 0.818286 -0.574811<0 690.171>
LayerCount: 3
Fore
SplineSet
327 -2 m 1
 15 -2 l 1
 1019 540 l 1
 246 1083 l 1
 557 1083 l 1
 1330 540 l 1
 327 -2 l 1
EndSplineSet
Validated: 1
Layer: 2
SplineSet
327 -2 m 1,0,-1
 15 -2 l 1,1,-1
 1019 540 l 1,2,-1
 246 1083 l 1,3,-1
 557 1083 l 1,4,-1
 1330 540 l 1,5,-1
 327 -2 l 1,0,-1
EndSplineSet
EndChar

StartChar: question
Encoding: 63 63 31
Width: 1183
VWidth: 2982
Flags: W
HStem: -13 226<513.693 669.854> 1352 154<739.014 1045.06>
VStem: 406 158<1079 1190.18> 472 240<27.7777 170.789> 1108 161<1042.05 1289.25>
DStem2: 492.794 -13 648.794 -13 0.207912 0.978148<374.918 689.099>
LayerCount: 3
Fore
SplineSet
472 77 m 0xd8
 472 152 549 213 615 213 c 0
 671 213 712 173 712 121 c 0
 712 45 634 -13 568 -13 c 0
 513 -13 472 25 472 77 c 0xd8
720 322 m 1
 564 322 l 1
 596 470 l 1
 669 818 1066 942 1104 1113 c 0
 1108 1130 1108 1149 1108 1166 c 0
 1108 1280 1027 1352 908 1352 c 0
 737 1352 593 1222 571 1113 c 2
 564 1079 l 1
 406 1079 l 1xe8
 412 1113 l 1
 457 1323 696 1506 940 1506 c 0
 1139 1506 1269 1382 1269 1202 c 0
 1269 846 818 777 752 470 c 2
 720 322 l 1
EndSplineSet
Validated: 1
Layer: 2
SplineSet
472 77 m 0,0,1
 472 131 472 131 517.5 172 c 128,-1,2
 563 213 563 213 615 213 c 0,3,4
 657 213 657 213 684.5 186.5 c 128,-1,5
 712 160 712 160 712 121 c 0,6,7
 712 66 712 66 666 26.5 c 128,-1,8
 620 -13 620 -13 568 -13 c 0,9,10
 527 -13 527 -13 499.5 12.5 c 128,-1,11
 472 38 472 38 472 77 c 0,0,1
720 322 m 1,12,-1
 564 322 l 1,13,-1
 596 470 l 2,14,15
 613 552 613 552 656 626.5 c 128,-1,16
 699 701 699 701 751.5 753.5 c 128,-1,17
 804 806 804 806 863 857.5 c 128,-1,18
 922 909 922 909 971.5 947.5 c 128,-1,19
 1021 986 1021 986 1058 1030 c 128,-1,20
 1095 1074 1095 1074 1104 1113 c 0,21,22
 1108 1130 1108 1130 1108 1166 c 0,23,24
 1108 1251 1108 1251 1053 1301.5 c 128,-1,25
 998 1352 998 1352 908 1352 c 0,26,27
 786 1352 786 1352 687.5 1276.5 c 128,-1,28
 589 1201 589 1201 571 1113 c 2,29,-1
 564 1079 l 1,30,-1
 406 1079 l 1,31,-1
 412 1113 l 2,32,33
 434 1217 434 1217 513 1307.5 c 128,-1,34
 592 1398 592 1398 706.5 1452 c 128,-1,35
 821 1506 821 1506 940 1506 c 0,36,37
 1089 1506 1089 1506 1179 1422 c 128,-1,38
 1269 1338 1269 1338 1269 1202 c 0,39,40
 1269 1130 1269 1130 1244 1066.5 c 128,-1,41
 1219 1003 1219 1003 1178 954.5 c 128,-1,42
 1137 906 1137 906 1086.5 861.5 c 128,-1,43
 1036 817 1036 817 983 774 c 128,-1,44
 930 731 930 731 883.5 687.5 c 128,-1,45
 837 644 837 644 801 588 c 128,-1,46
 765 532 765 532 752 470 c 2,47,-1
 720 322 l 1,12,-1
EndSplineSet
EndChar

StartChar: at
Encoding: 64 64 32
Width: 2052
VWidth: 2982
Flags: W
HStem: -470 152<744.903 1218.13> -13 156<752.619 1057.19 1553.12 1735.13> 897 156<1113.75 1423.26> 1352 156<1083.96 1551.52>
VStem: 213 163<74.1273 586.136> 532 169<196.638 487.541> 1476 42<307 724> 1925 162<460.846 966.956>
LayerCount: 3
Fore
SplineSet
532 286 m 0
 532 636 961 1053 1320 1053 c 0
 1450 1053 1544 998 1594 912 c 1
 1654 1041 l 1
 1820 1041 l 1
 1580 521 l 2
 1567 493 1518 406 1518 307 c 0
 1518 195 1583 141 1636 141 c 0
 1764 141 1925 406 1925 720 c 0
 1925 1085 1672 1352 1325 1352 c 0
 855 1352 376 861 376 325 c 0
 376 -49 622 -318 972 -318 c 0
 1128 -318 1254 -269 1388 -197 c 1
 1446 -327 l 1
 1280 -414 1128 -470 938 -470 c 0
 502 -470 213 -139 213 295 c 0
 213 902 759 1508 1359 1508 c 0
 1793 1508 2087 1179 2087 750 c 0
 2087 683 2080 611 2064 540 c 0
 1972 109 1739 -15 1602 -15 c 0
 1466 -15 1379 85 1359 224 c 1
 1215 87 1025 -13 846 -13 c 0
 649 -13 532 107 532 286 c 0
882 143 m 0
 1137 143 1476 461 1476 724 c 0
 1476 828 1410 897 1294 897 c 0
 1025 897 701 566 701 318 c 0
 701 213 765 143 882 143 c 0
EndSplineSet
Validated: 1
Layer: 2
SplineSet
532 286 m 0,0,1
 532 414 532 414 605.5 553 c 128,-1,2
 679 692 679 692 791 801.5 c 128,-1,3
 903 911 903 911 1046 982 c 128,-1,4
 1189 1053 1189 1053 1320 1053 c 0,5,6
 1415 1053 1415 1053 1485 1015.5 c 128,-1,7
 1555 978 1555 978 1594 912 c 1,8,-1
 1654 1041 l 1,9,-1
 1820 1041 l 1,10,-1
 1580 521 l 2,11,12
 1580 520 1580 520 1571.5 503 c 128,-1,13
 1563 486 1563 486 1558 475 c 128,-1,14
 1553 464 1553 464 1544.5 441.5 c 128,-1,15
 1536 419 1536 419 1531 400 c 128,-1,16
 1526 381 1526 381 1522 356 c 128,-1,17
 1518 331 1518 331 1518 307 c 0,18,19
 1518 229 1518 229 1554.5 185 c 128,-1,20
 1591 141 1591 141 1636 141 c 0,21,22
 1684 141 1684 141 1735.5 188 c 128,-1,23
 1787 235 1787 235 1829 312 c 128,-1,24
 1871 389 1871 389 1898 498 c 128,-1,25
 1925 607 1925 607 1925 720 c 0,26,27
 1925 900 1925 900 1848 1044.5 c 128,-1,28
 1771 1189 1771 1189 1633.5 1270.5 c 128,-1,29
 1496 1352 1496 1352 1325 1352 c 0,30,31
 1187 1352 1187 1352 1046.5 1297.5 c 128,-1,32
 906 1243 906 1243 787 1144.5 c 128,-1,33
 668 1046 668 1046 575 919 c 128,-1,34
 482 792 482 792 429 637 c 128,-1,35
 376 482 376 482 376 325 c 0,36,37
 376 140 376 140 451.5 -6.5 c 128,-1,38
 527 -153 527 -153 663 -235.5 c 128,-1,39
 799 -318 799 -318 972 -318 c 0,40,41
 1081 -318 1081 -318 1179 -287.5 c 128,-1,42
 1277 -257 1277 -257 1388 -197 c 1,43,-1
 1446 -327 l 1,44,45
 1310 -398 1310 -398 1191 -434 c 128,-1,46
 1072 -470 1072 -470 938 -470 c 0,47,48
 724 -470 724 -470 558 -369.5 c 128,-1,49
 392 -269 392 -269 302.5 -95 c 128,-1,50
 213 79 213 79 213 295 c 0,51,52
 213 444 213 444 256.5 595.5 c 128,-1,53
 300 747 300 747 376.5 879.5 c 128,-1,54
 453 1012 453 1012 561.5 1128.5 c 128,-1,55
 670 1245 670 1245 795 1328.5 c 128,-1,56
 920 1412 920 1412 1066 1460 c 128,-1,57
 1212 1508 1212 1508 1359 1508 c 0,58,59
 1572 1508 1572 1508 1739 1408 c 128,-1,60
 1906 1308 1906 1308 1996.5 1135.5 c 128,-1,61
 2087 963 2087 963 2087 750 c 0,62,63
 2087 642 2087 642 2064 540 c 0,64,65
 2038 416 2038 416 1994 317 c 128,-1,66
 1950 218 1950 218 1901.5 157.5 c 128,-1,67
 1853 97 1853 97 1797.5 56.5 c 128,-1,68
 1742 16 1742 16 1694 0.5 c 128,-1,69
 1646 -15 1646 -15 1602 -15 c 0,70,71
 1503 -15 1503 -15 1438.5 51 c 128,-1,72
 1374 117 1374 117 1359 224 c 1,73,74
 1246 117 1246 117 1111 52 c 128,-1,75
 976 -13 976 -13 846 -13 c 0,76,77
 700 -13 700 -13 616 68.5 c 128,-1,78
 532 150 532 150 532 286 c 0,0,1
882 143 m 0,79,80
 975 143 975 143 1082 197.5 c 128,-1,81
 1189 252 1189 252 1275 334.5 c 128,-1,82
 1361 417 1361 417 1418.5 523 c 128,-1,83
 1476 629 1476 629 1476 724 c 0,84,85
 1476 803 1476 803 1428 850 c 128,-1,86
 1380 897 1380 897 1294 897 c 0,87,88
 1196 897 1196 897 1088 841 c 128,-1,89
 980 785 980 785 896 701 c 128,-1,90
 812 617 812 617 756.5 513 c 128,-1,91
 701 409 701 409 701 318 c 0,92,93
 701 238 701 238 748.5 190.5 c 128,-1,94
 796 143 796 143 882 143 c 0,79,80
EndSplineSet
EndChar

StartChar: A
Encoding: 65 65 33
Width: 1380
VWidth: 2880
Flags: W
HStem: 2 21G<25 207.624 1183.75 1359> 444 154<577 1063> 1488 20G<998.892 1016.61>
DStem2: 25 2 195 2 0.548147 0.836382<93.185 615.799 801.061 1422.24> 1012 1508 929 1110 0.224529 -0.974467<369.202 369.202 1055.24 1507.07>
LayerCount: 3
Fore
SplineSet
577 598 m 1
 1063 598 l 1
 929 1110 l 1
 577 598 l 1
474 444 m 1
 195 2 l 1
 25 2 l 1
 1012 1508 l 1
 1359 2 l 1
 1188 2 l 1
 1094 444 l 1
 474 444 l 1
EndSplineSet
Validated: 1
Layer: 2
SplineSet
577 598 m 1,0,-1
 1063 598 l 1,1,-1
 929 1110 l 1,2,-1
 577 598 l 1,0,-1
474 444 m 1,3,-1
 195 2 l 1,4,-1
 25 2 l 1,5,-1
 1012 1508 l 1,6,-1
 1359 2 l 1,7,-1
 1188 2 l 1,8,-1
 1094 444 l 1,9,-1
 474 444 l 1,3,-1
EndSplineSet
EndChar

StartChar: B
Encoding: 66 66 34
Width: 1293
VWidth: 2877
Flags: W
HStem: 0 154<333 913.733> 750 152<493 1022.86> 1339 154<587 1100.8>
VStem: 1144 161<363.658 636.705> 1173 164<1033.82 1268.68>
DStem2: 143 0 300.266 0 0.207912 0.978148<190.138 799.727 955.058 1402.05>
LayerCount: 3
Fore
SplineSet
726 154 m 2xf0
 933 154 1144 316 1144 506 c 0
 1144 640 1030 750 853 750 c 2
 461 750 l 1
 333 154 l 1
 726 154 l 2xf0
1173 1155 m 0xe8
 1173 1254 1090 1339 961 1339 c 2
 587 1339 l 1
 493 902 l 1
 869 902 l 1
 1030 908 1173 1025 1173 1155 c 0xe8
1305 538 m 0xf0
 1305 269 1021 0 694 0 c 2
 143 0 l 1
 461 1493 l 1
 998 1493 l 2
 1196 1493 1337 1363 1337 1188 c 0xe8
 1337 1050 1251 922 1130 839 c 1
 1238 777 1305 667 1305 538 c 0xf0
EndSplineSet
Validated: 1
Layer: 2
SplineSet
726 154 m 2,0,1
 829 154 829 154 925.5 201.5 c 128,-1,2
 1022 249 1022 249 1083 331.5 c 128,-1,3
 1144 414 1144 414 1144 506 c 0,4,5
 1144 609 1144 609 1063.5 679.5 c 128,-1,6
 983 750 983 750 853 750 c 2,7,-1
 461 750 l 1,8,-1
 333 154 l 1,9,-1
 726 154 l 2,0,1
1173 1155 m 0,10,11
 1173 1232 1173 1232 1114 1285.5 c 128,-1,12
 1055 1339 1055 1339 961 1339 c 2,13,-1
 587 1339 l 1,14,-1
 493 902 l 1,15,-1
 869 902 l 1,16,17
 990 907 990 907 1081.5 982.5 c 128,-1,18
 1173 1058 1173 1058 1173 1155 c 0,10,11
1305 538 m 0,19,20
 1305 439 1305 439 1255 341 c 128,-1,21
 1205 243 1205 243 1122.5 168 c 128,-1,22
 1040 93 1040 93 926.5 46.5 c 128,-1,23
 813 0 813 0 694 0 c 2,24,-1
 143 0 l 1,25,-1
 461 1493 l 1,26,-1
 998 1493 l 2,27,28
 1146 1493 1146 1493 1241.5 1406.5 c 128,-1,29
 1337 1320 1337 1320 1337 1188 c 0,30,31
 1337 1088 1337 1088 1280.5 995.5 c 128,-1,32
 1224 903 1224 903 1130 839 c 1,33,34
 1212 792 1212 792 1258.5 713 c 128,-1,35
 1305 634 1305 634 1305 538 c 0,19,20
EndSplineSet
EndChar

StartChar: C
Encoding: 67 67 35
Width: 1617
VWidth: 2877
Flags: W
HStem: -13 150<690.446 1143.51> 1350 156<927.081 1379.7>
VStem: 239 162<418.682 835.161>
LayerCount: 3
Fore
SplineSet
1164 1350 m 0
 775 1350 401 1000 401 618 c 0
 401 344 607 137 906 137 c 0
 1215 137 1419 344 1482 408 c 1
 1591 325 l 1
 1377 101 1132 -13 873 -13 c 0
 500 -13 239 244 239 591 c 0
 239 1053 694 1506 1198 1506 c 0
 1585 1506 1728 1249 1771 1168 c 1
 1625 1077 l 1
 1589 1139 1476 1350 1164 1350 c 0
EndSplineSet
Validated: 1
Layer: 2
SplineSet
1164 1350 m 0,0,1
 973 1350 973 1350 796 1247.5 c 128,-1,2
 619 1145 619 1145 510 975 c 128,-1,3
 401 805 401 805 401 618 c 0,4,5
 401 411 401 411 542.5 274 c 128,-1,6
 684 137 684 137 906 137 c 0,7,8
 1215 137 1215 137 1482 408 c 1,9,-1
 1591 325 l 1,10,11
 1268 -13 1268 -13 873 -13 c 0,12,13
 689 -13 689 -13 544 65.5 c 128,-1,14
 399 144 399 144 319 281.5 c 128,-1,15
 239 419 239 419 239 591 c 0,16,17
 239 761 239 761 319 928.5 c 128,-1,18
 399 1096 399 1096 529 1222.5 c 128,-1,19
 659 1349 659 1349 836.5 1427.5 c 128,-1,20
 1014 1506 1014 1506 1198 1506 c 0,21,22
 1592 1506 1592 1506 1771 1168 c 1,23,-1
 1625 1077 l 1,24,25
 1610 1102 1610 1102 1604 1112.5 c 128,-1,26
 1598 1123 1598 1123 1573 1157.5 c 128,-1,27
 1548 1192 1548 1192 1526.5 1211.5 c 128,-1,28
 1505 1231 1505 1231 1465.5 1261 c 128,-1,29
 1426 1291 1426 1291 1385 1307.5 c 128,-1,30
 1344 1324 1344 1324 1286 1337 c 128,-1,31
 1228 1350 1228 1350 1164 1350 c 0,0,1
EndSplineSet
EndChar

StartChar: D
Encoding: 68 68 36
Width: 1346
VWidth: 2877
Flags: W
HStem: 0 154<333 749.752> 1339 154<587 988.316>
VStem: 1267 159<651.996 1067.4>
DStem2: 143 0 300.266 0 0.207912 0.978148<190.138 1402.05>
LayerCount: 3
Fore
SplineSet
506 154 m 2
 893 154 1267 483 1267 867 c 0
 1267 1141 1061 1339 759 1339 c 2
 587 1339 l 1
 333 154 l 1
 506 154 l 2
1426 900 m 0
 1426 438 980 0 474 0 c 2
 143 0 l 1
 461 1493 l 1
 790 1493 l 2
 1166 1493 1426 1243 1426 900 c 0
EndSplineSet
Validated: 1
Layer: 2
SplineSet
506 154 m 2,0,1
 649 154 649 154 788 212 c 128,-1,2
 927 270 927 270 1032 366 c 128,-1,3
 1137 462 1137 462 1202 594.5 c 128,-1,4
 1267 727 1267 727 1267 867 c 0,5,6
 1267 1074 1267 1074 1125.5 1206.5 c 128,-1,7
 984 1339 984 1339 759 1339 c 2,8,-1
 587 1339 l 1,9,-1
 333 154 l 1,10,-1
 506 154 l 2,0,1
1426 900 m 0,11,12
 1426 764 1426 764 1376 629.5 c 128,-1,13
 1326 495 1326 495 1236 383 c 128,-1,14
 1146 271 1146 271 1028.5 184 c 128,-1,15
 911 97 911 97 766.5 48.5 c 128,-1,16
 622 0 622 0 474 0 c 2,17,-1
 143 0 l 1,18,-1
 461 1493 l 1,19,-1
 790 1493 l 2,20,21
 975 1493 975 1493 1120.5 1416.5 c 128,-1,22
 1266 1340 1266 1340 1346 1205 c 128,-1,23
 1426 1070 1426 1070 1426 900 c 0,11,12
EndSplineSet
EndChar

StartChar: E
Encoding: 69 69 37
Width: 1158
VWidth: 2877
Flags: W
HStem: 0 154<333 1061> 784 154<502 1171> 1339 154<587 1350>
DStem2: 143 0 300.266 0 0.207912 0.978148<190.138 834.439 992.143 1402.05>
LayerCount: 3
Fore
SplineSet
1202 938 m 1
 1171 784 l 1
 468 784 l 1
 333 154 l 1
 1094 154 l 1
 1061 0 l 1
 143 0 l 1
 461 1493 l 1
 1382 1493 l 1
 1350 1339 l 1
 587 1339 l 1
 502 938 l 1
 1202 938 l 1
EndSplineSet
Validated: 1
Layer: 2
SplineSet
1202 938 m 1,0,-1
 1171 784 l 1,1,-1
 468 784 l 1,2,-1
 333 154 l 1,3,-1
 1094 154 l 1,4,-1
 1061 0 l 1,5,-1
 143 0 l 1,6,-1
 461 1493 l 1,7,-1
 1382 1493 l 1,8,-1
 1350 1339 l 1,9,-1
 587 1339 l 1,10,-1
 502 938 l 1,11,-1
 1202 938 l 1,0,-1
EndSplineSet
EndChar

StartChar: F
Encoding: 70 70 38
Width: 1158
VWidth: 2877
Flags: W
HStem: 0 21G<143 306.235> 784 154<502 1171> 1339 154<587 1350>
DStem2: 143 0 302 0 0.207912 0.978148<33.058 834.439 992.143 1402.05>
LayerCount: 3
Fore
SplineSet
1202 938 m 1
 1171 784 l 1
 468 784 l 1
 302 0 l 1
 143 0 l 1
 461 1493 l 1
 1382 1493 l 1
 1350 1339 l 1
 587 1339 l 1
 502 938 l 1
 1202 938 l 1
EndSplineSet
Validated: 1
Layer: 2
SplineSet
1202 938 m 1,0,-1
 1171 784 l 1,1,-1
 468 784 l 1,2,-1
 302 0 l 1,3,-1
 143 0 l 1,4,-1
 461 1493 l 1,5,-1
 1382 1493 l 1,6,-1
 1350 1339 l 1,7,-1
 587 1339 l 1,8,-1
 502 938 l 1,9,-1
 1202 938 l 1,0,-1
EndSplineSet
EndChar

StartChar: G
Encoding: 71 71 39
Width: 1749
VWidth: 2877
Flags: W
HStem: -13 152<689.801 1135.02> 669 155<1016 1632> 1352 154<928.242 1384.57>
VStem: 239 162<420.078 829.807>
LayerCount: 3
Fore
SplineSet
239 591 m 0
 239 1053 694 1506 1198 1506 c 0
 1605 1506 1748 1213 1771 1173 c 1
 1625 1079 l 1
 1591 1141 1478 1352 1164 1352 c 0
 781 1352 401 1010 401 622 c 0
 401 346 604 139 906 139 c 0
 1222 139 1533 372 1632 669 c 1
 983 669 l 1
 1016 824 l 1
 1829 824 l 1
 1813 745 l 1
 1724 325 1303 -13 873 -13 c 0
 500 -13 239 244 239 591 c 0
EndSplineSet
Validated: 1
Layer: 2
SplineSet
239 591 m 0,0,1
 239 761 239 761 319 928.5 c 128,-1,2
 399 1096 399 1096 529 1222.5 c 128,-1,3
 659 1349 659 1349 836.5 1427.5 c 128,-1,4
 1014 1506 1014 1506 1198 1506 c 0,5,6
 1278 1506 1278 1506 1350.5 1490.5 c 128,-1,7
 1423 1475 1423 1475 1475 1452.5 c 128,-1,8
 1527 1430 1527 1430 1575 1395.5 c 128,-1,9
 1623 1361 1623 1361 1651.5 1334 c 128,-1,10
 1680 1307 1680 1307 1708.5 1269.5 c 128,-1,11
 1737 1232 1737 1232 1746 1217 c 128,-1,12
 1755 1202 1755 1202 1767.19663487 1179.80807388 c 0,13,14
 1770 1175 1770 1175 1771 1173 c 2,15,-1
 1625 1079 l 1,16,17
 1613 1101 1613 1101 1605 1114.5 c 128,-1,18
 1597 1128 1597 1128 1574 1159.5 c 128,-1,19
 1551 1191 1551 1191 1528 1213 c 128,-1,20
 1505 1235 1505 1235 1466.5 1263.5 c 128,-1,21
 1428 1292 1428 1292 1386.5 1309.5 c 128,-1,22
 1345 1327 1345 1327 1287 1339.5 c 128,-1,23
 1229 1352 1229 1352 1164 1352 c 0,24,25
 1023 1352 1023 1352 883.5 1292 c 128,-1,26
 744 1232 744 1232 638.5 1133.5 c 128,-1,27
 533 1035 533 1035 467 899.5 c 128,-1,28
 401 764 401 764 401 622 c 0,29,30
 401 413 401 413 541.5 276 c 128,-1,31
 682 139 682 139 906 139 c 0,32,33
 1142 139 1142 139 1349.5 292 c 128,-1,34
 1557 445 1557 445 1632 669 c 1,35,-1
 983 669 l 1,36,-1
 1016 824 l 1,37,-1
 1829 824 l 1,38,-1
 1813 745 l 2,39,40
 1769 539 1769 539 1627.5 364 c 128,-1,41
 1486 189 1486 189 1285.5 88 c 128,-1,42
 1085 -13 1085 -13 873 -13 c 0,43,44
 689 -13 689 -13 544 65.5 c 128,-1,45
 399 144 399 144 319 281.5 c 128,-1,46
 239 419 239 419 239 591 c 0,0,1
EndSplineSet
EndChar

StartChar: H
Encoding: 72 72 40
Width: 1393
VWidth: 2877
Flags: W
HStem: 0 21G<143 306.235 1097 1258.26> 784 154<502 1262> 1473 20G<456.74 618 1409.75 1572>
DStem2: 143 0 302 0 0.207912 0.978148<33.058 834.439 992.143 1526.49> 1097 0 1254 0 0.207912 0.978148<32.6421 801.173 958.877 1526.28>
LayerCount: 3
Fore
SplineSet
1414 1493 m 1
 1572 1493 l 1
 1254 0 l 1
 1097 0 l 1
 1262 784 l 1
 468 784 l 1
 302 0 l 1
 143 0 l 1
 461 1493 l 1
 618 1493 l 1
 502 938 l 1
 1296 938 l 1
 1414 1493 l 1
EndSplineSet
Validated: 1
Layer: 2
SplineSet
1414 1493 m 1,0,-1
 1572 1493 l 1,1,-1
 1254 0 l 1,2,-1
 1097 0 l 1,3,-1
 1262 784 l 1,4,-1
 468 784 l 1,5,-1
 302 0 l 1,6,-1
 143 0 l 1,7,-1
 461 1493 l 1,8,-1
 618 1493 l 1,9,-1
 502 938 l 1,10,-1
 1296 938 l 1,11,-1
 1414 1493 l 1,0,-1
EndSplineSet
EndChar

StartChar: I
Encoding: 73 73 41
Width: 440
VWidth: 2877
Flags: W
HStem: 0 21G<143 306.233> 1473 20G<456.74 618>
VStem: 143 475
DStem2: 143 0 302 0 0.207912 0.978148<33.058 1526.49>
LayerCount: 3
Fore
SplineSet
302 0 m 1
 143 0 l 1
 461 1493 l 1
 618 1493 l 1
 302 0 l 1
EndSplineSet
Validated: 1
Layer: 2
SplineSet
302 0 m 1,0,-1
 143 0 l 1,1,-1
 461 1493 l 1,2,-1
 618 1493 l 1,3,-1
 302 0 l 1,0,-1
EndSplineSet
EndChar

StartChar: J
Encoding: 74 74 42
Width: 1027
VWidth: 2877
Flags: W
HStem: -15 154<404.283 665.566> 1473 20G<1050.72 1204>
VStem: 175 161<210.128 436.471>
DStem2: 733.151 -15 885.151 -15 0.207912 0.978148<268.037 1541.96>
LayerCount: 3
Fore
SplineSet
1055 1493 m 1
 1204 1493 l 1
 974 403 l 2
 927 177 714 -15 491 -15 c 0
 297 -15 175 128 175 312 c 0
 175 356 181 401 192 438 c 1
 349 438 l 1
 344 410 336 376 336 342 c 0
 336 224 416 139 526 139 c 0
 654 139 790 252 822 403 c 2
 1055 1493 l 1
EndSplineSet
Validated: 1
Layer: 2
SplineSet
1055 1493 m 1,0,-1
 1204 1493 l 1,1,-1
 974 403 l 2,2,3
 938 232 938 232 797.5 108.5 c 128,-1,4
 657 -15 657 -15 491 -15 c 0,5,6
 348 -15 348 -15 261.5 78 c 128,-1,7
 175 171 175 171 175 312 c 0,8,9
 175 381 175 381 192 438 c 1,10,-1
 349 438 l 1,11,12
 336 365 336 365 336 342 c 0,13,14
 336 254 336 254 389.5 196.5 c 128,-1,15
 443 139 443 139 526 139 c 0,16,17
 624 139 624 139 711 215 c 128,-1,18
 798 291 798 291 822 403 c 2,19,-1
 1055 1493 l 1,0,-1
EndSplineSet
EndChar

StartChar: K
Encoding: 75 75 43
Width: 1219
VWidth: 2877
Flags: W
HStem: 0 21G<143 306.227 988.194 1200> 1473 20G<456.74 618 1224.27 1486>
DStem2: 143 0 302 0 0.207912 0.978148<33.058 773.047 984.88 1526.49> 500 931 593 826 0.801583 0.597883<0 11.7695 183.168 937.999> 730 929 593 826 0.451435 -0.892304<30.0608 949.935>
LayerCount: 3
Fore
SplineSet
461 1493 m 1
 618 1493 l 1
 500 931 l 1
 1251 1493 l 1
 1486 1493 l 1
 730 929 l 1
 1200 0 l 1
 998 0 l 1
 593 826 l 1
 455 724 l 1
 302 0 l 1
 143 0 l 1
 461 1493 l 1
EndSplineSet
Validated: 1
Layer: 2
SplineSet
461 1493 m 1,0,-1
 618 1493 l 1,1,-1
 500 931 l 1,2,-1
 1251 1493 l 1,3,-1
 1486 1493 l 1,4,-1
 730 929 l 1,5,-1
 1200 0 l 1,6,-1
 998 0 l 1,7,-1
 593 826 l 1,8,-1
 455 724 l 1,9,-1
 302 0 l 1,10,-1
 143 0 l 1,11,-1
 461 1493 l 1,0,-1
EndSplineSet
EndChar

StartChar: L
Encoding: 76 76 44
Width: 1158
VWidth: 2877
Flags: W
HStem: 0 154<333 1066> 1473 20G<456.74 618>
DStem2: 143 0 300.266 0 0.207912 0.978148<190.138 1526.49>
LayerCount: 3
Fore
SplineSet
1066 0 m 1
 143 0 l 1
 461 1493 l 1
 618 1493 l 1
 333 154 l 1
 1097 154 l 1
 1066 0 l 1
EndSplineSet
Validated: 1
Layer: 2
SplineSet
1066 0 m 1,0,-1
 143 0 l 1,1,-1
 461 1493 l 1,2,-1
 618 1493 l 1,3,-1
 333 154 l 1,4,-1
 1097 154 l 1,5,-1
 1066 0 l 1,0,-1
EndSplineSet
EndChar

StartChar: M
Encoding: 77 77 45
Width: 1758
VWidth: 2880
Flags: W
HStem: 0 21G<25 189.504 867.41 887.329 1576 1737.28> 1486 20G<645.647 659.453 1743.84 1757.72>
VStem: 1576 161<0 976> 1583 175<477.904 976>
DStem2: 25 0 181 0 0.385398 0.92275<60.1221 1120.67> 654 1506 596 976 0.263045 -0.964784<496.079 1167.1> 961 380 873 -15 0.577736 0.816224<0 845.821>
LayerCount: 3
Fore
SplineSet
181 0 m 1xd0
 25 0 l 1
 654 1506 l 1
 961 380 l 1
 1758 1506 l 1xd0
 1737 0 l 1
 1576 0 l 1xe0
 1583 976 l 1
 873 -15 l 1
 596 976 l 1
 181 0 l 1xd0
EndSplineSet
Validated: 1
Layer: 2
SplineSet
181 0 m 1,0,-1
 25 0 l 1,1,-1
 654 1506 l 1,2,-1
 961 380 l 1,3,-1
 1758 1506 l 1,4,-1
 1737 0 l 1,5,-1
 1576 0 l 1,6,-1
 1583 976 l 1,7,-1
 873 -15 l 1,8,-1
 596 976 l 1,9,-1
 181 0 l 1,0,-1
EndSplineSet
EndChar

StartChar: N
Encoding: 78 78 46
Width: 1671
VWidth: 2877
Flags: W
HStem: 0 21G<143 306.255 1511.76 1533.24> 1488 5G<458.756 480.293 1687.77 1849>
DStem2: 139.387 -17 298.387 -17 0.207912 0.978148<50.4377 1203.69> 463 1508 542 1128 0.65405 -0.756451<339.121 1513.65> 1372.23 -17 1529 -17 0.207912 0.978148<388.489 1543.49>
LayerCount: 3
Fore
SplineSet
143 0 m 1
 463 1508 l 1
 1453 363 l 1
 1692 1493 l 1
 1849 1493 l 1
 1529 -17 l 1
 542 1128 l 1
 302 0 l 1
 143 0 l 1
EndSplineSet
Validated: 1
Layer: 2
SplineSet
143 0 m 1,0,-1
 463 1508 l 1,1,-1
 1453 363 l 1,2,-1
 1692 1493 l 1,3,-1
 1849 1493 l 1,4,-1
 1529 -17 l 1,5,-1
 542 1128 l 1,6,-1
 302 0 l 1,7,-1
 143 0 l 1,0,-1
EndSplineSet
EndChar

StartChar: O
Encoding: 79 79 47
Width: 1749
VWidth: 2877
Flags: W
HStem: -13 152<689.801 1141.96> 1352 154<928.242 1379.67>
VStem: 239 162<420.078 829.807> 1668 163<661.808 1071.83>
LayerCount: 3
Fore
SplineSet
1831 900 m 0
 1831 438 1377 -13 873 -13 c 0
 500 -13 239 244 239 591 c 0
 239 1053 694 1506 1198 1506 c 0
 1572 1506 1831 1247 1831 900 c 0
1164 1352 m 0
 781 1352 401 1010 401 622 c 0
 401 346 604 139 906 139 c 0
 1288 139 1668 481 1668 871 c 0
 1668 1147 1461 1352 1164 1352 c 0
EndSplineSet
Validated: 1
Layer: 2
SplineSet
1831 900 m 0,0,1
 1831 786 1831 786 1795 672 c 128,-1,2
 1759 558 1759 558 1695 458 c 128,-1,3
 1631 358 1631 358 1540.5 270.5 c 128,-1,4
 1450 183 1450 183 1345.5 120.5 c 128,-1,5
 1241 58 1241 58 1118.5 22.5 c 128,-1,6
 996 -13 996 -13 873 -13 c 0,7,8
 689 -13 689 -13 544 65.5 c 128,-1,9
 399 144 399 144 319 281.5 c 128,-1,10
 239 419 239 419 239 591 c 0,11,12
 239 761 239 761 319 928.5 c 128,-1,13
 399 1096 399 1096 529 1222.5 c 128,-1,14
 659 1349 659 1349 836.5 1427.5 c 128,-1,15
 1014 1506 1014 1506 1198 1506 c 0,16,17
 1476 1506 1476 1506 1653.5 1334 c 128,-1,18
 1831 1162 1831 1162 1831 900 c 0,0,1
1164 1352 m 0,19,20
 1023 1352 1023 1352 883.5 1292 c 128,-1,21
 744 1232 744 1232 638.5 1133.5 c 128,-1,22
 533 1035 533 1035 467 899.5 c 128,-1,23
 401 764 401 764 401 622 c 0,24,25
 401 413 401 413 541.5 276 c 128,-1,26
 682 139 682 139 906 139 c 0,27,28
 1019 139 1019 139 1131.5 177 c 128,-1,29
 1244 215 1244 215 1339.5 284.5 c 128,-1,30
 1435 354 1435 354 1509.5 444 c 128,-1,31
 1584 534 1584 534 1626 645.5 c 128,-1,32
 1668 757 1668 757 1668 871 c 0,33,34
 1668 1079 1668 1079 1526.5 1215.5 c 128,-1,35
 1385 1352 1385 1352 1164 1352 c 0,19,20
EndSplineSet
EndChar

StartChar: P
Encoding: 80 80 48
Width: 1205
VWidth: 2877
Flags: W
HStem: 0 21G<143 306.258> 667 157<477 1024.15> 1339 154<587 1113.64>
VStem: 1186 164<988.385 1265.41>
DStem2: 143 0 302 0 0.207912 0.978148<33.058 715.006 875.436 1402.05>
LayerCount: 3
Fore
SplineSet
1350 1164 m 0
 1350 916 1115 667 844 667 c 2
 444 667 l 1
 302 0 l 1
 143 0 l 1
 461 1493 l 1
 1016 1493 l 2
 1218 1493 1350 1350 1350 1164 c 0
878 824 m 2
 1032 824 1186 972 1186 1135 c 0
 1186 1254 1104 1339 983 1339 c 2
 587 1339 l 1
 477 824 l 1
 878 824 l 2
EndSplineSet
Validated: 1
Layer: 2
SplineSet
1350 1164 m 0,0,1
 1350 1072 1350 1072 1308.5 981.5 c 128,-1,2
 1267 891 1267 891 1199 822 c 128,-1,3
 1131 753 1131 753 1037 710 c 128,-1,4
 943 667 943 667 844 667 c 2,5,-1
 444 667 l 1,6,-1
 302 0 l 1,7,-1
 143 0 l 1,8,-1
 461 1493 l 1,9,-1
 1016 1493 l 2,10,11
 1165 1493 1165 1493 1257.5 1399.5 c 128,-1,12
 1350 1306 1350 1306 1350 1164 c 0,0,1
878 824 m 2,13,14
 995 824 995 824 1090.5 919 c 128,-1,15
 1186 1014 1186 1014 1186 1135 c 0,16,17
 1186 1225 1186 1225 1129.5 1282 c 128,-1,18
 1073 1339 1073 1339 983 1339 c 2,19,-1
 587 1339 l 1,20,-1
 477 824 l 1,21,-1
 878 824 l 2,13,14
EndSplineSet
EndChar

StartChar: Q
Encoding: 81 81 49
Width: 1749
VWidth: 2877
Flags: W
HStem: -13 152<689.801 1146.17> 1352 154<928.242 1379.67>
VStem: 239 162<420.078 829.807> 1668 163<651.598 1071.83>
DStem2: 1361 553 1155 553 0.54344 -0.839448<0 190.286 356.037 544.1>
LayerCount: 3
Fore
SplineSet
1164 1352 m 0
 781 1352 401 1010 401 622 c 0
 401 346 604 139 906 139 c 0
 1057 139 1207 192 1332 280 c 1
 1155 553 l 1
 1361 553 l 1
 1464 393 l 1
 1666 604 1668 824 1668 871 c 0
 1668 1147 1461 1352 1164 1352 c 0
1831 900 m 0
 1831 649 1699 423 1542 271 c 1
 1719 0 l 1
 1508 0 l 1
 1406 158 l 1
 1249 51 1063 -13 873 -13 c 0
 500 -13 239 244 239 591 c 0
 239 1053 694 1506 1198 1506 c 0
 1572 1506 1831 1247 1831 900 c 0
EndSplineSet
Validated: 1
Layer: 2
SplineSet
1164 1352 m 0,0,1
 1023 1352 1023 1352 883.5 1292 c 128,-1,2
 744 1232 744 1232 638.5 1133.5 c 128,-1,3
 533 1035 533 1035 467 899.5 c 128,-1,4
 401 764 401 764 401 622 c 0,5,6
 401 413 401 413 541.5 276 c 128,-1,7
 682 139 682 139 906 139 c 0,8,9
 1132 139 1132 139 1332 280 c 1,10,-1
 1155 553 l 1,11,-1
 1361 553 l 1,12,-1
 1464 393 l 1,13,14
 1534 466 1534 466 1580 546.5 c 128,-1,15
 1626 627 1626 627 1642.5 697 c 128,-1,16
 1659 767 1659 767 1663.5 802.5 c 128,-1,17
 1668 838 1668 838 1668 871 c 0,18,19
 1668 1079 1668 1079 1526.5 1215.5 c 128,-1,20
 1385 1352 1385 1352 1164 1352 c 0,0,1
1831 900 m 0,21,22
 1831 722 1831 722 1750.5 558.5 c 128,-1,23
 1670 395 1670 395 1542 271 c 1,24,-1
 1719 0 l 1,25,-1
 1508 0 l 1,26,-1
 1406 158 l 1,27,28
 1155 -13 1155 -13 873 -13 c 0,29,30
 689 -13 689 -13 544 65.5 c 128,-1,31
 399 144 399 144 319 281.5 c 128,-1,32
 239 419 239 419 239 591 c 0,33,34
 239 761 239 761 319 928.5 c 128,-1,35
 399 1096 399 1096 529 1222.5 c 128,-1,36
 659 1349 659 1349 836.5 1427.5 c 128,-1,37
 1014 1506 1014 1506 1198 1506 c 0,38,39
 1476 1506 1476 1506 1653.5 1334 c 128,-1,40
 1831 1162 1831 1162 1831 900 c 0,21,22
EndSplineSet
EndChar

StartChar: R
Encoding: 82 82 50
Width: 1232
VWidth: 2877
Flags: W
HStem: 0 21G<143 306.245 1026.97 1215> 669 155<477 799> 1339 154<587 1113.64>
VStem: 1186 164<987.609 1265.41>
DStem2: 143 0 302 0 0.207912 0.978148<33.058 716.962 875.436 1402.05> 974 687 799 669 0.331023 -0.943623<0 668.13>
LayerCount: 3
Fore
SplineSet
1350 1164 m 0
 1350 972 1202 756 974 687 c 1
 1215 0 l 1
 1034 0 l 1
 799 669 l 1
 444 669 l 1
 302 0 l 1
 143 0 l 1
 461 1493 l 1
 1016 1493 l 2
 1218 1493 1350 1350 1350 1164 c 0
878 824 m 2
 1032 824 1186 972 1186 1135 c 0
 1186 1254 1104 1339 983 1339 c 2
 587 1339 l 1
 477 824 l 1
 878 824 l 2
EndSplineSet
Validated: 1
Layer: 2
SplineSet
1350 1164 m 0,0,1
 1350 1015 1350 1015 1245 876 c 128,-1,2
 1140 737 1140 737 974 687 c 1,3,-1
 1215 0 l 1,4,-1
 1034 0 l 1,5,-1
 799 669 l 1,6,-1
 444 669 l 1,7,-1
 302 0 l 1,8,-1
 143 0 l 1,9,-1
 461 1493 l 1,10,-1
 1016 1493 l 2,11,12
 1165 1493 1165 1493 1257.5 1399.5 c 128,-1,13
 1350 1306 1350 1306 1350 1164 c 0,0,1
878 824 m 2,14,15
 995 824 995 824 1090.5 919 c 128,-1,16
 1186 1014 1186 1014 1186 1135 c 0,17,18
 1186 1225 1186 1225 1129.5 1282 c 128,-1,19
 1073 1339 1073 1339 983 1339 c 2,20,-1
 587 1339 l 1,21,-1
 477 824 l 1,22,-1
 878 824 l 2,14,15
EndSplineSet
EndChar

StartChar: S
Encoding: 83 83 51
Width: 1183
VWidth: 2877
Flags: W
HStem: -17 156<464.057 804.479> 1352 156<737.285 1020.66>
VStem: 192 164<254.445 468> 453 160<1013.37 1229.29> 1032 162<351.909 612.843>
LayerCount: 3
Fore
SplineSet
453 1070 m 0
 453 1278 649 1508 916 1508 c 0
 1079 1508 1229 1410 1256 1218 c 1
 1260 1186 l 1
 1102 1135 l 1
 1097 1168 l 1
 1079 1294 985 1352 882 1352 c 0
 712 1352 613 1204 613 1108 c 0
 613 873 1194 906 1194 534 c 0
 1194 248 904 -17 589 -17 c 0
 378 -17 192 105 192 385 c 1
 197 468 l 1
 361 487 l 1
 356 419 l 1
 356 220 477 139 620 139 c 0
 844 139 1032 320 1032 500 c 0
 1032 784 453 737 453 1070 c 0
EndSplineSet
Validated: 1
Layer: 2
SplineSet
453 1070 m 0,0,1
 453 1175 453 1175 512 1275 c 128,-1,2
 571 1375 571 1375 679.5 1441.5 c 128,-1,3
 788 1508 788 1508 916 1508 c 0,4,5
 1045 1508 1045 1508 1141 1432 c 128,-1,6
 1237 1356 1237 1356 1256 1218 c 2,7,-1
 1260 1186 l 1,8,-1
 1102 1135 l 1,9,-1
 1097 1168 l 2,10,11
 1084 1258 1084 1258 1024 1305 c 128,-1,12
 964 1352 964 1352 882 1352 c 0,13,14
 821 1352 821 1352 768.5 1327.5 c 128,-1,15
 716 1303 716 1303 683 1266 c 128,-1,16
 650 1229 650 1229 631.5 1187 c 128,-1,17
 613 1145 613 1145 613 1108 c 0,18,19
 613 1061 613 1061 645 1022.5 c 128,-1,20
 677 984 677 984 728.5 956 c 128,-1,21
 780 928 780 928 841.5 901 c 128,-1,22
 903 874 903 874 965 841.5 c 128,-1,23
 1027 809 1027 809 1078.5 770 c 128,-1,24
 1130 731 1130 731 1162 670.5 c 128,-1,25
 1194 610 1194 610 1194 534 c 0,26,27
 1194 394 1194 394 1109 266 c 128,-1,28
 1024 138 1024 138 883.5 60.5 c 128,-1,29
 743 -17 743 -17 589 -17 c 0,30,31
 508 -17 508 -17 437.5 7 c 128,-1,32
 367 31 367 31 311.5 78.5 c 128,-1,33
 256 126 256 126 224 204.5 c 128,-1,34
 192 283 192 283 192 385 c 1,35,-1
 197 468 l 1,36,-1
 361 487 l 1,37,-1
 356 419 l 1,38,39
 356 278 356 278 430 208.5 c 128,-1,40
 504 139 504 139 620 139 c 0,41,42
 729 139 729 139 825 191.5 c 128,-1,43
 921 244 921 244 976.5 327.5 c 128,-1,44
 1032 411 1032 411 1032 500 c 0,45,46
 1032 557 1032 557 1000 603 c 128,-1,47
 968 649 968 649 917 679.5 c 128,-1,48
 866 710 866 710 804.5 738 c 128,-1,49
 743 766 743 766 681 796 c 128,-1,50
 619 826 619 826 568 860.5 c 128,-1,51
 517 895 517 895 485 949 c 128,-1,52
 453 1003 453 1003 453 1070 c 0,0,1
EndSplineSet
EndChar

StartChar: T
Encoding: 84 84 52
Width: 961
VWidth: 2877
Flags: W
HStem: 0 21G<406 566.242> 1339 154<340 690 846 1226>
DStem2: 406 0 562 0 0.207912 0.978148<32.4342 1368.79>
LayerCount: 3
Fore
SplineSet
1260 1493 m 1
 1226 1339 l 1
 846 1339 l 1
 562 0 l 1
 406 0 l 1
 690 1339 l 1
 309 1339 l 1
 340 1493 l 1
 1260 1493 l 1
EndSplineSet
Validated: 1
Layer: 2
SplineSet
1260 1493 m 1,0,-1
 1226 1339 l 1,1,-1
 846 1339 l 1,2,-1
 562 0 l 1,3,-1
 406 0 l 1,4,-1
 690 1339 l 1,5,-1
 309 1339 l 1,6,-1
 340 1493 l 1,7,-1
 1260 1493 l 1,0,-1
EndSplineSet
EndChar

StartChar: U
Encoding: 85 85 53
Width: 1393
VWidth: 2877
Flags: W
HStem: -15 154<567.985 909.56> 1473 20G<456.773 618 1409.77 1572>
VStem: 252 160<301.403 704.094>
DStem2: 141.592 -15 297.592 -15 0.207912 0.978148<540.76 1541.46> 1094.59 -15 1251.59 -15 0.207912 0.978148<393.397 1541.46>
LayerCount: 3
Fore
SplineSet
461 1493 m 1
 618 1493 l 1
 423 575 l 2
 416 542 412 508 412 479 c 0
 412 280 549 139 732 139 c 0
 942 139 1166 327 1220 575 c 1
 1414 1493 l 1
 1572 1493 l 1
 1377 575 l 2
 1309 252 1008 -15 696 -15 c 0
 427 -15 252 184 252 444 c 0
 252 485 258 530 267 575 c 2
 461 1493 l 1
EndSplineSet
Validated: 1
Layer: 2
SplineSet
461 1493 m 1,0,-1
 618 1493 l 1,1,-1
 423 575 l 2,2,3
 412 523 412 523 412 479 c 0,4,5
 412 331 412 331 503 235 c 128,-1,6
 594 139 594 139 732 139 c 0,7,8
 892 139 892 139 1036 265.5 c 128,-1,9
 1180 392 1180 392 1220 575 c 2,10,-1
 1414 1493 l 1,11,-1
 1572 1493 l 1,12,-1
 1377 575 l 2,13,14
 1343 416 1343 416 1241 280 c 128,-1,15
 1139 144 1139 144 994 64.5 c 128,-1,16
 849 -15 849 -15 696 -15 c 0,17,18
 497 -15 497 -15 374.5 115.5 c 128,-1,19
 252 246 252 246 252 444 c 0,20,21
 252 500 252 500 267 575 c 2,22,-1
 461 1493 l 1,0,-1
EndSplineSet
EndChar

StartChar: V
Encoding: 86 86 54
Width: 1340
VWidth: 2877
Flags: W
HStem: -15 21G<674.531 691.719> 1473 20G<342 514.613 1453.18 1638>
DStem2: 510 1493 342 1493 0.218095 -0.975927<0 1125.77> 763 396 679 -15 0.536622 0.843823<0 1302.92>
LayerCount: 3
Fore
SplineSet
1466 1493 m 1
 1638 1493 l 1
 679 -15 l 1
 342 1493 l 1
 510 1493 l 1
 763 396 l 1
 1466 1493 l 1
EndSplineSet
Validated: 1
Layer: 2
SplineSet
1466 1493 m 1,0,-1
 1638 1493 l 1,1,-1
 679 -15 l 1,2,-1
 342 1493 l 1,3,-1
 510 1493 l 1,4,-1
 763 396 l 1,5,-1
 1466 1493 l 1,0,-1
EndSplineSet
EndChar

StartChar: W
Encoding: 87 87 55
Width: 2025
VWidth: 2877
Flags: W
HStem: -15 21G<592.605 608.191 1427.21 1442.82> 1473 20G<340 507.526 1322.69 1338.72 2141.02 2322>
DStem2: 504 1493 340 1493 0.167367 -0.985895<0 1053.99> 687 455 596 -15 0.524097 0.851658<0 775.861> 1335 1508 1233 1030 0.182992 -0.983114<451.264 1071.09> 1531 455 1431 -15 0.508691 0.860949<0 1210.07>
LayerCount: 3
Fore
SplineSet
340 1493 m 1
 504 1493 l 1
 687 455 l 1
 1335 1508 l 1
 1531 455 l 1
 2153 1493 l 1
 2322 1493 l 1
 1431 -15 l 1
 1233 1030 l 1
 596 -15 l 1
 340 1493 l 1
EndSplineSet
Validated: 1
Layer: 2
SplineSet
340 1493 m 1,0,-1
 504 1493 l 1,1,-1
 687 455 l 1,2,-1
 1335 1508 l 1,3,-1
 1531 455 l 1,4,-1
 2153 1493 l 1,5,-1
 2322 1493 l 1,6,-1
 1431 -15 l 1,7,-1
 1233 1030 l 1,8,-1
 596 -15 l 1,9,-1
 340 1493 l 1,0,-1
EndSplineSet
EndChar

StartChar: X
Encoding: 88 88 56
Width: 1060
VWidth: 2877
Flags: W
HStem: 0 21G<25 215.684 854.797 1038> 1473 20G<399 583.243 1104.36 1298>
DStem2: 25 0 201 0 0.592112 0.805856<104.212 888.252 1207.67 1850.91> 577 1493 399 1493 0.295614 -0.955307<0 543.694 848.534 1510.23>
LayerCount: 3
Fore
SplineSet
399 1493 m 1
 577 1493 l 1
 739 974 l 1
 1119 1493 l 1
 1298 1493 l 1
 790 803 l 1
 1038 0 l 1
 861 0 l 1
 665 632 l 1
 201 0 l 1
 25 0 l 1
 613 803 l 1
 399 1493 l 1
EndSplineSet
Validated: 1
Layer: 2
SplineSet
399 1493 m 1,0,-1
 577 1493 l 1,1,-1
 739 974 l 1,2,-1
 1119 1493 l 1,3,-1
 1298 1493 l 1,4,-1
 790 803 l 1,5,-1
 1038 0 l 1,6,-1
 861 0 l 1,7,-1
 665 632 l 1,8,-1
 201 0 l 1,9,-1
 25 0 l 1,10,-1
 613 803 l 1,11,-1
 399 1493 l 1,0,-1
EndSplineSet
EndChar

StartChar: Y
Encoding: 89 89 57
Width: 1303
VWidth: 2877
Flags: W
HStem: 0 21G<575 738.281> 1473 20G<340 534.696 1399.87 1602>
DStem2: 526 1493 340 1493 0.399747 -0.916625<0 752.396> 575 0 734 0 0.207912 0.978148<33.058 654.498> 826 803 871 640 0.650718 0.759319<0 908.505>
LayerCount: 3
Fore
SplineSet
340 1493 m 1
 526 1493 l 1
 826 803 l 1
 1417 1493 l 1
 1602 1493 l 1
 871 640 l 1
 734 0 l 1
 575 0 l 1
 712 640 l 1
 340 1493 l 1
EndSplineSet
Validated: 1
Layer: 2
SplineSet
340 1493 m 1,0,-1
 526 1493 l 1,1,-1
 826 803 l 1,2,-1
 1417 1493 l 1,3,-1
 1602 1493 l 1,4,-1
 871 640 l 1,5,-1
 734 0 l 1,6,-1
 575 0 l 1,7,-1
 712 640 l 1,8,-1
 340 1493 l 1,0,-1
EndSplineSet
EndChar

StartChar: Z
Encoding: 90 90 58
Width: 1250
VWidth: 2877
Flags: W
HStem: 0 154<352 1179> 1339 154<477 1218>
DStem2: 25 0 352 154 0.665229 0.74664<332.512 1793.37>
LayerCount: 3
Fore
SplineSet
477 1493 m 1
 1544 1493 l 1
 352 154 l 1
 1265 154 l 1
 1179 0 l 1
 25 0 l 1
 1218 1339 l 1
 391 1339 l 1
 477 1493 l 1
EndSplineSet
Validated: 1
Layer: 2
SplineSet
477 1493 m 1,0,-1
 1544 1493 l 1,1,-1
 352 154 l 1,2,-1
 1265 154 l 1,3,-1
 1179 0 l 1,4,-1
 25 0 l 1,5,-1
 1218 1339 l 1,6,-1
 391 1339 l 1,7,-1
 477 1493 l 1,0,-1
EndSplineSet
EndChar

StartChar: bracketleft
Encoding: 91 91 59
Width: 480
VWidth: 2982
Flags: W
HStem: -349 161<228 374> 1457 162<577 756>
DStem2: 34 -349 193.778 -349 0.207912 0.978148<197.817 1879.43>
LayerCount: 3
Fore
SplineSet
228 -188 m 1
 408 -188 l 1
 374 -349 l 1
 34 -349 l 1
 453 1619 l 1
 792 1619 l 1
 756 1457 l 1
 577 1457 l 1
 228 -188 l 1
EndSplineSet
Validated: 1
Layer: 2
SplineSet
228 -188 m 1,0,-1
 408 -188 l 1,1,-1
 374 -349 l 1,2,-1
 34 -349 l 1,3,-1
 453 1619 l 1,4,-1
 792 1619 l 1,5,-1
 756 1457 l 1,6,-1
 577 1457 l 1,7,-1
 228 -188 l 1,0,-1
EndSplineSet
EndChar

StartChar: backslash
Encoding: 92 92 60
Width: 1303
VWidth: 2982
Flags: W
HStem: -2 21G<1097.42 1307> 1475 20G<316 525.581>
DStem2: 515 1495 316 1495 0.467644 -0.883917<0 1600.54>
LayerCount: 3
Fore
SplineSet
316 1495 m 1
 515 1495 l 1
 1307 -2 l 1
 1108 -2 l 1
 316 1495 l 1
EndSplineSet
Validated: 1
Layer: 2
SplineSet
316 1495 m 1,0,-1
 515 1495 l 1,1,-1
 1307 -2 l 1,2,-1
 1108 -2 l 1,3,-1
 316 1495 l 1,0,-1
EndSplineSet
EndChar

StartChar: bracketright
Encoding: 93 93 61
Width: 478
VWidth: 2982
Flags: W
HStem: -349 161<-43 137> 1457 162<340 485>
DStem2: 102.778 -349 265 -349 0.207912 0.978148<164.597 1846>
LayerCount: 3
Fore
SplineSet
485 1457 m 1
 307 1457 l 1
 340 1619 l 1
 681 1619 l 1
 265 -349 l 1
 -77 -349 l 1
 -43 -188 l 1
 137 -188 l 1
 485 1457 l 1
EndSplineSet
Validated: 1
Layer: 2
SplineSet
485 1457 m 1,0,-1
 307 1457 l 1,1,-1
 340 1619 l 1,2,-1
 681 1619 l 1,3,-1
 265 -349 l 1,4,-1
 -77 -349 l 1,5,-1
 -43 -188 l 1,6,-1
 137 -188 l 1,7,-1
 485 1457 l 1,0,-1
EndSplineSet
EndChar

StartChar: asciicircum
Encoding: 94 94 62
Width: 1239
VWidth: 2982
Flags: W
HStem: 1475 20G<855.191 1021.08>
DStem2: 226 679 412 679 0.620112 0.784513<115.341 898.571> 1014 1495 897 1294 0.333847 -0.942627<150.408 803.57>
LayerCount: 3
Fore
SplineSet
871 1495 m 1
 1014 1495 l 1
 1303 679 l 1
 1117 679 l 1
 897 1294 l 1
 412 679 l 1
 226 679 l 1
 871 1495 l 1
EndSplineSet
Validated: 1
Layer: 2
SplineSet
871 1495 m 1,0,-1
 1014 1495 l 1,1,-1
 1303 679 l 1,2,-1
 1117 679 l 1,3,-1
 897 1294 l 1,4,-1
 412 679 l 1,5,-1
 226 679 l 1,6,-1
 871 1495 l 1,0,-1
EndSplineSet
EndChar

StartChar: underscore
Encoding: 95 95 63
Width: 1042
VWidth: 2982
Flags: W
HStem: -158 160<0 1012>
LayerCount: 3
Fore
SplineSet
1045 2 m 1
 1012 -158 l 1
 -34 -158 l 1
 0 2 l 1
 1045 2 l 1
EndSplineSet
Validated: 1
Layer: 2
SplineSet
1045 2 m 1,0,-1
 1012 -158 l 1,1,-1
 -34 -158 l 1,2,-1
 0 2 l 1,3,-1
 1045 2 l 1,0,-1
EndSplineSet
EndChar

StartChar: quoteleft
Encoding: 8216 8216 64
Width: 476
VWidth: 2982
Flags: W
HStem: 1059 470
VStem: 363 259<1104.46 1278.3>
DStem2: 575 1508 662 1464 0.816722 0.577032<-138.193 34.1692>
LayerCount: 3
Fore
SplineSet
622 1202 m 0
 622 1132 555 1059 477 1059 c 0
 419 1059 363 1094 363 1173 c 0
 363 1226 384 1360 575 1508 c 2
 602 1529 l 1
 754 1529 l 1
 662 1464 l 2
 610 1427 551 1354 521 1298 c 1
 572 1298 622 1263 622 1202 c 0
EndSplineSet
Validated: 1
Layer: 2
SplineSet
622 1202 m 0,0,1
 622 1148 622 1148 578 1103.5 c 128,-1,2
 534 1059 534 1059 477 1059 c 0,3,4
 429 1059 429 1059 396 1088 c 128,-1,5
 363 1117 363 1117 363 1173 c 0,6,7
 363 1199 363 1199 370 1228.5 c 128,-1,8
 377 1258 377 1258 396.5 1303 c 128,-1,9
 416 1348 416 1348 462 1402 c 128,-1,10
 508 1456 508 1456 575 1508 c 2,11,-1
 602 1529 l 1,12,-1
 754 1529 l 1,13,-1
 662 1464 l 2,14,15
 624 1437 624 1437 584 1389.5 c 128,-1,16
 544 1342 544 1342 521 1298 c 1,17,18
 562 1298 562 1298 592 1272 c 128,-1,19
 622 1246 622 1246 622 1202 c 0,0,1
EndSplineSet
EndChar

StartChar: a
Encoding: 97 97 65
Width: 1094
VWidth: 2822
Flags: W
HStem: -17 151<351.354 644.761> 0 21G<822 998> 481 130<527.503 897> 882 150<563.294 839.901>
VStem: 158 162<167.675 353.06> 814 173<0 138.27> 925 160<611.825 798.328>
LayerCount: 3
Fore
SplineSet
998 0 m 1x7c
 824 0 l 1
 820 20 814 45 814 69 c 0x7c
 814 94 820 121 824 139 c 1
 718 51 585 -17 450 -17 c 0
 237 -17 158 105 158 224 c 0
 158 242 158 260 164 278 c 1
 233 609 696 611 922 611 c 1
 925 624 925 638 925 649 c 0
 925 799 826 882 714 882 c 0
 568 882 468 763 438 732 c 1
 329 812 l 1
 372 861 521 1032 745 1032 c 0
 931 1032 1085 906 1085 685 c 0xba
 1085 651 1081 615 1074 577 c 2
 1006 242 l 1
 994 192 987 137 987 90 c 0
 987 54 991 22 998 0 c 1x7c
897 481 m 1
 714 479 320 459 320 252 c 0
 320 199 361 134 481 134 c 0xb8
 620 134 781 239 869 346 c 1
 897 481 l 1
EndSplineSet
Validated: 1
Layer: 2
SplineSet
998 0 m 1,0,-1
 824 0 l 1,1,2
 814 50 814 50 814 69 c 0,3,4
 814 94 814 94 824 139 c 1,5,6
 636 -17 636 -17 450 -17 c 0,7,8
 302 -17 302 -17 230 53.5 c 128,-1,9
 158 124 158 124 158 224 c 0,10,11
 158 260 158 260 164 278 c 0,12,13
 175 332 175 332 201.5 376.5 c 128,-1,14
 228 421 228 421 260.5 453.5 c 128,-1,15
 293 486 293 486 341.5 511.5 c 128,-1,16
 390 537 390 537 433 553 c 128,-1,17
 476 569 476 569 536.5 581 c 128,-1,18
 597 593 597 593 639.5 598.5 c 128,-1,19
 682 604 682 604 744 607 c 128,-1,20
 806 610 806 610 838 610.5 c 128,-1,21
 870 611 870 611 922 611 c 1,22,23
 925 624 925 624 925 649 c 0,24,25
 925 757 925 757 863.5 819.5 c 128,-1,26
 802 882 802 882 714 882 c 0,27,28
 690 882 690 882 667 878 c 128,-1,29
 644 874 644 874 623 866 c 128,-1,30
 602 858 602 858 584.5 850 c 128,-1,31
 567 842 567 842 548.5 829 c 128,-1,32
 530 816 530 816 517.5 807.5 c 128,-1,33
 505 799 505 799 490 784.5 c 128,-1,34
 475 770 475 770 468.5 764 c 128,-1,35
 462 758 462 758 450 745 c 2,36,-1
 438 732 l 1,37,-1
 329 812 l 1,38,39
 522 1032 522 1032 745 1032 c 0,40,41
 890 1032 890 1032 987.5 938.5 c 128,-1,42
 1085 845 1085 845 1085 685 c 0,43,44
 1085 637 1085 637 1074 577 c 2,45,-1
 1006 242 l 2,46,47
 987 163 987 163 987 90 c 0,48,49
 987 35 987 35 998 0 c 1,0,-1
897 481 m 1,50,51
 840 480 840 480 789.5 477.5 c 128,-1,52
 739 475 739 475 667 467 c 128,-1,53
 595 459 595 459 538.5 443 c 128,-1,54
 482 427 482 427 430 403 c 128,-1,55
 378 379 378 379 349 340.5 c 128,-1,56
 320 302 320 302 320 252 c 0,57,58
 320 205 320 205 359.5 169.5 c 128,-1,59
 399 134 399 134 481 134 c 0,60,61
 580 134 580 134 689 197 c 128,-1,62
 798 260 798 260 869 346 c 1,63,-1
 897 481 l 1,50,51
EndSplineSet
EndChar

StartChar: b
Encoding: 98 98 66
Width: 1219
VWidth: 2835
Flags: W
HStem: -13 150<518.835 824.131> 880 150<672.223 963.568>
VStem: 1086 158<406.285 756.314>
DStem2: 140.107 -13 299.375 -13 0.207912 0.978148<481.954 766.665 930.729 1537.64>
LayerCount: 3
Fore
SplineSet
335 154 m 1
 319 81 299 45 275 0 c 1
 98 0 l 1
 155 74 191 228 206 297 c 2
 460 1491 l 1
 619 1491 l 1
 486 865 l 1
 589 961 736 1030 855 1030 c 0
 1094 1030 1244 852 1244 624 c 0
 1244 312 962 -13 633 -13 c 0
 512 -13 398 58 335 154 c 1
410 508 m 0
 404 478 401 450 401 423 c 0
 401 256 513 137 665 137 c 0
 861 137 1086 343 1086 592 c 0
 1086 760 973 880 823 880 c 0
 646 880 455 718 410 508 c 0
EndSplineSet
Validated: 1
Layer: 2
SplineSet
335 154 m 1,0,1
 320 84 320 84 275 0 c 1,2,-1
 98 0 l 1,3,4
 159 79 159 79 206 297 c 2,5,-1
 460 1491 l 1,6,-1
 619 1491 l 1,7,-1
 486 865 l 1,8,9
 564 938 564 938 665.5 984 c 128,-1,10
 767 1030 767 1030 855 1030 c 0,11,12
 1031 1030 1031 1030 1137.5 914.5 c 128,-1,13
 1244 799 1244 799 1244 624 c 0,14,15
 1244 509 1244 509 1194 393.5 c 128,-1,16
 1144 278 1144 278 1062.5 188.5 c 128,-1,17
 981 99 981 99 867 43 c 128,-1,18
 753 -13 753 -13 633 -13 c 0,19,20
 544 -13 544 -13 464 33.5 c 128,-1,21
 384 80 384 80 335 154 c 1,0,1
410 508 m 0,22,23
 401 463 401 463 401 423 c 0,24,25
 401 298 401 298 476 217.5 c 128,-1,26
 551 137 551 137 665 137 c 0,27,28
 738 137 738 137 813.5 173.5 c 128,-1,29
 889 210 889 210 949 270.5 c 128,-1,30
 1009 331 1009 331 1047.5 416.5 c 128,-1,31
 1086 502 1086 502 1086 592 c 0,32,33
 1086 717 1086 717 1011 798.5 c 128,-1,34
 936 880 936 880 823 880 c 0,35,36
 688 880 688 880 565.5 771.5 c 128,-1,37
 443 663 443 663 410 508 c 0,22,23
EndSplineSet
EndChar

StartChar: c
Encoding: 99 99 67
Width: 1113
VWidth: 2822
Flags: W
HStem: -13 152<470.677 782.697> 875 155<608.324 921.225>
VStem: 195 159<261.028 609.379>
LayerCount: 3
Fore
SplineSet
773 875 m 0
 562 875 354 662 354 425 c 0
 354 258 466 139 615 139 c 0
 803 139 922 295 955 338 c 1
 1077 265 l 1
 1012 184 844 -13 585 -13 c 0
 344 -13 195 164 195 393 c 0
 195 724 497 1030 806 1030 c 0
 1081 1030 1160 808 1179 752 c 1
 1027 675 l 1
 1006 737 951 875 773 875 c 0
EndSplineSet
Validated: 1
Layer: 2
SplineSet
773 875 m 0,0,1
 669 875 669 875 572 812.5 c 128,-1,2
 475 750 475 750 414.5 645 c 128,-1,3
 354 540 354 540 354 425 c 0,4,5
 354 300 354 300 428.5 219.5 c 128,-1,6
 503 139 503 139 615 139 c 0,7,8
 802 139 802 139 955 338 c 1,9,-1
 1077 265 l 1,10,11
 854 -13 854 -13 585 -13 c 0,12,13
 408 -13 408 -13 301.5 102 c 128,-1,14
 195 217 195 217 195 393 c 0,15,16
 195 514 195 514 247.5 631.5 c 128,-1,17
 300 749 300 749 384.5 836 c 128,-1,18
 469 923 469 923 580.5 976.5 c 128,-1,19
 692 1030 692 1030 806 1030 c 0,20,21
 884 1030 884 1030 948.5 1005.5 c 128,-1,22
 1013 981 1013 981 1050.5 949.5 c 128,-1,23
 1088 918 1088 918 1118.5 872.5 c 128,-1,24
 1149 827 1149 827 1159.5 803.5 c 128,-1,25
 1170 780 1170 780 1179 752 c 1,26,-1
 1027 675 l 1,27,28
 959 875 959 875 773 875 c 0,0,1
EndSplineSet
EndChar

StartChar: d
Encoding: 100 100 68
Width: 1219
VWidth: 2835
Flags: W
HStem: -13 150<469.959 766.656> 880 150<609.857 919.13>
VStem: 193 158<259.704 605.551> 942 175<0 271.277>
DStem2: 917.503 -13 1076.11 -13 0.207912 0.978148<340.324 616.362 897.589 1537.56>
LayerCount: 3
Fore
SplineSet
1124 0 m 1
 947 0 l 1
 945 22 942 43 942 66 c 0
 942 90 945 117 953 154 c 1
 850 58 704 -13 584 -13 c 0
 345 -13 193 163 193 392 c 0
 193 723 497 1030 806 1030 c 0
 924 1030 1041 961 1104 865 c 1
 1237 1491 l 1
 1396 1491 l 1
 1142 297 l 2
 1129 234 1117 137 1117 68 c 0
 1117 39 1119 14 1124 0 c 1
1028 508 m 0
 1034 537 1037 566 1037 593 c 0
 1037 760 925 880 774 880 c 0
 570 880 351 668 351 424 c 0
 351 256 465 137 616 137 c 0
 792 137 983 297 1028 508 c 0
EndSplineSet
Validated: 1
Layer: 2
SplineSet
1124 0 m 1,0,-1
 947 0 l 1,1,2
 942 55 942 55 942 66 c 0,3,4
 942 103 942 103 953 154 c 1,5,6
 874 80 874 80 773 33.5 c 128,-1,7
 672 -13 672 -13 584 -13 c 0,8,9
 408 -13 408 -13 300.5 102 c 128,-1,10
 193 217 193 217 193 392 c 0,11,12
 193 489 193 489 226.5 585 c 128,-1,13
 260 681 260 681 320 760 c 128,-1,14
 380 839 380 839 456.5 900.5 c 128,-1,15
 533 962 533 962 624 996 c 128,-1,16
 715 1030 715 1030 806 1030 c 0,17,18
 893 1030 893 1030 974.5 984 c 128,-1,19
 1056 938 1056 938 1104 865 c 1,20,-1
 1237 1491 l 1,21,-1
 1396 1491 l 1,22,-1
 1142 297 l 2,23,24
 1117 176 1117 176 1117 68 c 0,25,26
 1117 20 1117 20 1124 0 c 1,0,-1
1028 508 m 0,27,28
 1037 552 1037 552 1037 593 c 0,29,30
 1037 718 1037 718 962.5 799 c 128,-1,31
 888 880 888 880 774 880 c 0,32,33
 699 880 699 880 622 842.5 c 128,-1,34
 545 805 545 805 485.5 744 c 128,-1,35
 426 683 426 683 388.5 598 c 128,-1,36
 351 513 351 513 351 424 c 0,37,38
 351 299 351 299 426.5 218 c 128,-1,39
 502 137 502 137 616 137 c 0,40,41
 750 137 750 137 872.5 244.5 c 128,-1,42
 995 352 995 352 1028 508 c 0,27,28
EndSplineSet
EndChar

StartChar: e
Encoding: 101 101 69
Width: 1183
VWidth: 2822
Flags: W
HStem: -13 152<470.382 795.929> 474 148<408 1041> 878 152<617.426 924.065>
VStem: 195 157<259.881 471.594>
LayerCount: 3
Fore
SplineSet
408 622 m 1
 1041 622 l 1
 1027 775 920 878 777 878 c 0
 636 878 483 775 408 622 c 1
195 393 m 0
 195 724 500 1030 808 1030 c 0
 1047 1030 1202 848 1202 620 c 0
 1202 568 1194 521 1186 474 c 1
 356 474 l 1
 354 457 352 438 352 421 c 0
 352 255 466 139 615 139 c 0
 745 139 878 205 985 338 c 1
 1106 265 l 1
 916 22 687 -13 585 -13 c 0
 344 -13 195 164 195 393 c 0
EndSplineSet
Validated: 1
Layer: 2
SplineSet
408 622 m 1,0,-1
 1041 622 l 1,1,2
 1031 737 1031 737 957.5 807.5 c 128,-1,3
 884 878 884 878 777 878 c 128,-1,4
 670 878 670 878 567 807 c 128,-1,5
 464 736 464 736 408 622 c 1,0,-1
195 393 m 0,6,7
 195 554 195 554 283.5 702.5 c 128,-1,8
 372 851 372 851 514.5 940.5 c 128,-1,9
 657 1030 657 1030 808 1030 c 0,10,11
 984 1030 984 1030 1093 912.5 c 128,-1,12
 1202 795 1202 795 1202 620 c 0,13,14
 1202 568 1202 568 1186 474 c 1,15,-1
 356 474 l 1,16,17
 352 440 352 440 352 421 c 0,18,19
 352 298 352 298 427 218.5 c 128,-1,20
 502 139 502 139 615 139 c 0,21,22
 714 139 714 139 810 189.5 c 128,-1,23
 906 240 906 240 985 338 c 1,24,-1
 1106 265 l 1,25,26
 1052 196 1052 196 988.5 143.5 c 128,-1,27
 925 91 925 91 870 62 c 128,-1,28
 815 33 815 33 757.5 15 c 128,-1,29
 700 -3 700 -3 660.5 -8 c 128,-1,30
 621 -13 621 -13 585 -13 c 0,31,32
 408 -13 408 -13 301.5 102 c 128,-1,33
 195 217 195 217 195 393 c 0,6,7
EndSplineSet
EndChar

StartChar: f
Encoding: 102 102 70
Width: 585
VWidth: 2835
Flags: W
HStem: 0 21G<143 306.251> 861 153<275 327 517 720> 1354 124<701.859 865>
DStem2: 143 0 302 0 0.207912 0.978148<33.058 880.441 1069.6 1287.69>
LayerCount: 3
Fore
SplineSet
327 861 m 1
 242 861 l 1
 275 1014 l 1
 361 1014 l 1
 372 1066 l 2
 419 1290 632 1478 855 1478 c 2
 891 1478 l 1
 865 1354 l 1
 831 1354 l 2
 707 1354 562 1220 528 1066 c 1
 517 1014 l 1
 806 1014 l 1
 720 861 l 1
 485 861 l 1
 302 0 l 1
 143 0 l 1
 327 861 l 1
EndSplineSet
Validated: 1
Layer: 2
SplineSet
327 861 m 1,0,-1
 242 861 l 1,1,-1
 275 1014 l 1,2,-1
 361 1014 l 1,3,-1
 372 1066 l 2,4,5
 408 1235 408 1235 548.5 1356.5 c 128,-1,6
 689 1478 689 1478 855 1478 c 2,7,-1
 891 1478 l 1,8,-1
 865 1354 l 1,9,-1
 831 1354 l 2,10,11
 737 1354 737 1354 645 1267.5 c 128,-1,12
 553 1181 553 1181 528 1066 c 2,13,-1
 517 1014 l 1,14,-1
 806 1014 l 1,15,-1
 720 861 l 1,16,-1
 485 861 l 1,17,-1
 302 0 l 1,18,-1
 143 0 l 1,19,-1
 327 861 l 1,0,-1
EndSplineSet
EndChar

StartChar: g
Encoding: 103 103 71
Width: 1215
VWidth: 2804
Flags: W
HStem: -491 151<368.975 675.395> -15 149<466.754 766.461> 878 149<609.143 913.628>
VStem: 193 153<257.844 605.071>
DStem2: 815.833 -491 974.833 -491 0.207912 0.978148<342.578 655.303 834.797 1101.29>
LayerCount: 3
Fore
SplineSet
1102 857 m 1
 1118 933 1139 969 1163 1014 c 1
 1340 1014 l 1
 1283 938 1246 784 1231 714 c 2
 1086 32 l 2
 1026 -248 757 -491 481 -491 c 0
 312 -491 227 -410 162 -333 c 1
 298 -228 l 1
 340 -278 398 -340 515 -340 c 0
 691 -340 882 -179 927 32 c 2
 952 150 l 1
 848 51 702 -15 584 -15 c 0
 345 -15 193 163 193 391 c 0
 193 698 473 1027 805 1027 c 0
 925 1027 1039 953 1102 857 c 1
1024 506 m 0
 1030 535 1033 563 1033 590 c 0
 1033 758 919 878 768 878 c 0
 565 878 346 662 346 421 c 0
 346 253 458 134 609 134 c 0
 784 134 979 295 1024 506 c 0
EndSplineSet
Validated: 1
Layer: 2
SplineSet
1102 857 m 1,0,1
 1109 892 1109 892 1120.5 923.5 c 128,-1,2
 1132 955 1132 955 1138.5 967.5 c 128,-1,3
 1145 980 1145 980 1163 1014 c 1,4,-1
 1340 1014 l 1,5,6
 1277 931 1277 931 1231 714 c 2,7,-1
 1086 32 l 2,8,9
 1056 -106 1056 -106 965.5 -226.5 c 128,-1,10
 875 -347 875 -347 745.5 -419 c 128,-1,11
 616 -491 616 -491 481 -491 c 0,12,13
 421 -491 421 -491 370.5 -478 c 128,-1,14
 320 -465 320 -465 281.5 -440 c 128,-1,15
 243 -415 243 -415 217 -391 c 128,-1,16
 191 -367 191 -367 162 -333 c 1,17,-1
 298 -228 l 1,18,19
 325 -261 325 -261 347.5 -281 c 128,-1,20
 370 -301 370 -301 415.5 -320.5 c 128,-1,21
 461 -340 461 -340 515 -340 c 0,22,23
 649 -340 649 -340 771.5 -232 c 128,-1,24
 894 -124 894 -124 927 32 c 2,25,-1
 952 150 l 1,26,27
 874 76 874 76 773 30.5 c 128,-1,28
 672 -15 672 -15 584 -15 c 0,29,30
 408 -15 408 -15 300.5 100.5 c 128,-1,31
 193 216 193 216 193 391 c 0,32,33
 193 505 193 505 242.5 620 c 128,-1,34
 292 735 292 735 374 824.5 c 128,-1,35
 456 914 456 914 570 970.5 c 128,-1,36
 684 1027 684 1027 805 1027 c 0,37,38
 892 1027 892 1027 972.5 979.5 c 128,-1,39
 1053 932 1053 932 1102 857 c 1,0,1
1024 506 m 0,40,41
 1033 549.5 1033 549.5 1033 590 c 0,42,43
 1033 715 1033 715 957.5 796.5 c 128,-1,44
 882 878 882 878 768 878 c 0,45,46
 668 878 668 878 570 815 c 128,-1,47
 472 752 472 752 409 645 c 128,-1,48
 346 538 346 538 346 421 c 0,49,50
 346 296 346 296 420.5 215 c 128,-1,51
 495 134 495 134 609 134 c 0,52,53
 743 134 743 134 867 242.5 c 128,-1,54
 991 351 991 351 1024 506 c 0,40,41
EndSplineSet
EndChar

StartChar: h
Encoding: 104 104 72
Width: 1078
VWidth: 2835
Flags: W
HStem: 0 21G<143 306.252 781 942.258> 880 150<670.064 887.292> 1473 20G<456.74 618>
VStem: 922 161<558.701 843.633>
DStem2: 143 0 302 0 0.207912 0.978148<33.058 714.855 888.568 1526.49> 781 0 938 0 0.207912 0.978148<32.6421 724.334>
LayerCount: 3
Fore
SplineSet
143 0 m 1
 461 1493 l 1
 618 1493 l 1
 479 837 l 1
 579 942 709 1030 822 1030 c 0
 1008 1030 1083 904 1083 745 c 0
 1083 705 1079 662 1070 620 c 2
 938 0 l 1
 781 0 l 1
 914 620 l 2
 920 649 922 681 922 712 c 0
 922 799 893 880 786 880 c 0
 647 880 436 634 410 508 c 2
 302 0 l 1
 143 0 l 1
EndSplineSet
Validated: 1
Layer: 2
SplineSet
143 0 m 1,0,-1
 461 1493 l 1,1,-1
 618 1493 l 1,2,-1
 479 837 l 1,3,4
 560 922 560 922 651 976 c 128,-1,5
 742 1030 742 1030 822 1030 c 0,6,7
 954 1030 954 1030 1018.5 951.5 c 128,-1,8
 1083 873 1083 873 1083 745 c 0,9,10
 1083 681 1083 681 1070 620 c 2,11,-1
 938 0 l 1,12,-1
 781 0 l 1,13,-1
 914 620 l 2,14,15
 922 659 922 659 922 712 c 0,16,17
 922 880 922 880 786 880 c 0,18,19
 720 880 720 880 634.5 813 c 128,-1,20
 549 746 549 746 486 658.5 c 128,-1,21
 423 571 423 571 410 508 c 2,22,-1
 302 0 l 1,23,-1
 143 0 l 1,0,-1
EndSplineSet
EndChar

StartChar: i
Encoding: 105 105 73
Width: 436
VWidth: 2830
Flags: W
HStem: 0 21G<141 303.26> 1128 217<404.523 560.875>
VStem: 367 233<1166.6 1307.06>
DStem2: 141 0 299 0 0.207912 0.978148<32.85 1037.17>
LayerCount: 3
Fore
SplineSet
367 1213 m 0
 367 1288 440 1345 506 1345 c 0
 562 1345 600 1307 600 1258 c 0
 600 1200 542 1128 461 1128 c 0
 408 1128 367 1164 367 1213 c 0
299 0 m 1
 141 0 l 1
 359 1014 l 1
 515 1014 l 1
 299 0 l 1
EndSplineSet
Validated: 1
Layer: 2
SplineSet
367 1213 m 0,0,1
 367 1267 367 1267 410.5 1306 c 128,-1,2
 454 1345 454 1345 506 1345 c 0,3,4
 547 1345 547 1345 573.5 1320 c 128,-1,5
 600 1295 600 1295 600 1258 c 0,6,7
 600 1211 600 1211 559.5 1169.5 c 128,-1,8
 519 1128 519 1128 461 1128 c 0,9,10
 421 1128 421 1128 394 1152 c 128,-1,11
 367 1176 367 1176 367 1213 c 0,0,1
299 0 m 1,12,-1
 141 0 l 1,13,-1
 359 1014 l 1,14,-1
 515 1014 l 1,15,-1
 299 0 l 1,12,-1
EndSplineSet
EndChar

StartChar: j
Encoding: 106 106 74
Width: 436
VWidth: 2822
Flags: W
HStem: -291 137<-83 61.6859> 996 20G<354.735 517> 1126 217<402.807 557.769>
VStem: 365 233<1166.5 1304.72>
DStem2: 80.494 -291 239.494 -291 0.207912 0.978148<194.946 1336.34>
LayerCount: 3
Fore
SplineSet
359 1016 m 1
 517 1016 l 1
 309 36 l 2
 271 -139 103 -291 -77 -291 c 2
 -111 -291 l 1
 -83 -154 l 1
 -47 -154 l 2
 32 -154 128 -74 150 36 c 1
 359 1016 l 1
365 1215 m 0
 365 1273 425 1343 506 1343 c 0
 560 1343 598 1307 598 1258 c 0
 598 1184 524 1126 459 1126 c 0
 403 1126 365 1164 365 1215 c 0
EndSplineSet
Validated: 1
Layer: 2
SplineSet
359 1016 m 1,0,-1
 517 1016 l 1,1,-1
 309 36 l 2,2,3
 280 -97 280 -97 168 -194 c 128,-1,4
 56 -291 56 -291 -77 -291 c 2,5,-1
 -111 -291 l 1,6,-1
 -83 -154 l 1,7,-1
 -47 -154 l 2,8,9
 15 -154 15 -154 74.5 -99 c 128,-1,10
 134 -44 134 -44 150 36 c 2,11,-1
 359 1016 l 1,0,-1
365 1215 m 0,12,13
 365 1261 365 1261 406.5 1302 c 128,-1,14
 448 1343 448 1343 506 1343 c 0,15,16
 546 1343 546 1343 572 1319 c 128,-1,17
 598 1295 598 1295 598 1258 c 0,18,19
 598 1205 598 1205 554 1165.5 c 128,-1,20
 510 1126 510 1126 459 1126 c 0,21,22
 417 1126 417 1126 391 1151 c 128,-1,23
 365 1176 365 1176 365 1215 c 0,12,13
EndSplineSet
EndChar

StartChar: k
Encoding: 107 107 75
Width: 1021
VWidth: 2835
Flags: W
HStem: 0 21G<143 306.195 804.267 1023> 996 20G<884.669 1147> 1473 20G<456.74 618>
DStem2: 143 0 302 0 0.207912 0.978148<33.058 515.327 723.247 1526.49> 446 675 602 615 0.807986 0.589202<90.6937 577.439> 602 615 463 517 0.564876 -0.825176<2.3494 629.496>
LayerCount: 3
Fore
SplineSet
302 0 m 1
 143 0 l 1
 461 1493 l 1
 618 1493 l 1
 446 675 l 1
 912 1016 l 1
 1147 1016 l 1
 602 615 l 1
 1023 0 l 1
 818 0 l 1
 463 517 l 1
 401 472 l 1
 302 0 l 1
EndSplineSet
Validated: 1
Layer: 2
SplineSet
302 0 m 1,0,-1
 143 0 l 1,1,-1
 461 1493 l 1,2,-1
 618 1493 l 1,3,-1
 446 675 l 1,4,-1
 912 1016 l 1,5,-1
 1147 1016 l 1,6,-1
 602 615 l 1,7,-1
 1023 0 l 1,8,-1
 818 0 l 1,9,-1
 463 517 l 1,10,-1
 401 472 l 1,11,-1
 302 0 l 1,0,-1
EndSplineSet
EndChar

StartChar: l
Encoding: 108 108 76
Width: 440
VWidth: 2835
Flags: W
HStem: 0 21G<143 306.233> 1473 20G<456.74 618>
VStem: 143 475
DStem2: 143 0 302 0 0.207912 0.978148<33.058 1526.49>
LayerCount: 3
Fore
SplineSet
302 0 m 1
 143 0 l 1
 461 1493 l 1
 618 1493 l 1
 302 0 l 1
EndSplineSet
Validated: 1
Layer: 2
SplineSet
302 0 m 1,0,-1
 143 0 l 1,1,-1
 461 1493 l 1,2,-1
 618 1493 l 1,3,-1
 302 0 l 1,0,-1
EndSplineSet
EndChar

StartChar: m
Encoding: 109 109 77
Width: 1591
VWidth: 2822
Flags: W
HStem: 0 21G<143 306.252 718 879.269 1294 1454.33> 880 147<658.887 833.996 1228.18 1406.4>
VStem: 322 173<723.739 1016> 1437 161<480.469 851.64>
DStem2: 143 0 302 0 0.207912 0.978148<33.058 722.259> 718 0 875 0 0.207912 0.978148<32.6421 713.971> 1294 0 1450 0 0.207912 0.978148<32.4342 736.212>
LayerCount: 3
Fore
SplineSet
474 818 m 1
 560 931 692 1027 799 1027 c 0
 947 1027 1016 938 1032 818 c 1
 1126 933 1254 1027 1359 1027 c 0
 1533 1027 1598 902 1598 750 c 0
 1598 707 1591 660 1583 615 c 1
 1450 0 l 1
 1294 0 l 1
 1424 615 l 2
 1431 649 1437 687 1437 724 c 0
 1437 803 1410 875 1325 875 c 0
 1211 875 1012 638 983 506 c 2
 875 0 l 1
 718 0 l 1
 848 620 l 2
 855 654 861 692 861 728 c 0
 861 808 835 880 750 880 c 0
 645 880 440 651 410 508 c 2
 302 0 l 1
 143 0 l 1
 297 716 l 2
 312 781 322 880 322 949 c 0
 322 978 320 1000 316 1016 c 1
 491 1016 l 1
 495 989 495 969 495 949 c 0
 495 916 491 882 474 818 c 1
EndSplineSet
Validated: 1
Layer: 2
SplineSet
474 818 m 1,0,1
 542 907 542 907 632 967 c 128,-1,2
 722 1027 722 1027 799 1027 c 0,3,4
 905 1027 905 1027 962 970.5 c 128,-1,5
 1019 914 1019 914 1032 818 c 1,6,7
 1106 909 1106 909 1195 968 c 128,-1,8
 1284 1027 1284 1027 1359 1027 c 0,9,10
 1482 1027 1482 1027 1540 950.5 c 128,-1,11
 1598 874 1598 874 1598 750 c 0,12,13
 1598 699 1598 699 1583 615 c 2,14,-1
 1450 0 l 1,15,-1
 1294 0 l 1,16,-1
 1424 615 l 2,17,18
 1437 678 1437 678 1437 724 c 0,19,20
 1437 790 1437 790 1410.5 832.5 c 128,-1,21
 1384 875 1384 875 1325 875 c 0,22,23
 1271 875 1271 875 1194 810.5 c 128,-1,24
 1117 746 1117 746 1057 658.5 c 128,-1,25
 997 571 997 571 983 506 c 2,26,-1
 875 0 l 1,27,-1
 718 0 l 1,28,-1
 848 620 l 2,29,30
 861 683 861 683 861 728 c 0,31,32
 861 880 861 880 750 880 c 0,33,34
 699 880 699 880 623.5 817.5 c 128,-1,35
 548 755 548 755 486.5 666 c 128,-1,36
 425 577 425 577 410 508 c 2,37,-1
 302 0 l 1,38,-1
 143 0 l 1,39,-1
 297 716 l 2,40,41
 322 824 322 824 322 949 c 0,42,43
 322 992 322 992 316 1016 c 1,44,-1
 491 1016 l 1,45,46
 495 989 495 989 495 949 c 0,47,48
 495 897 495 897 474 818 c 1,0,1
EndSplineSet
EndChar

StartChar: n
Encoding: 110 110 78
Width: 1078
VWidth: 2822
Flags: W
HStem: 0 21G<141 303.291 779 942.258> 880 150<676.936 887.292>
VStem: 320 173<724.693 1016> 922 161<558.701 842.679>
DStem2: 141 0 299 0 0.207912 0.978148<32.85 705.353> 779 0 938 0 0.207912 0.978148<33.058 728.572>
LayerCount: 3
Fore
SplineSet
487 1016 m 1
 493 989 493 969 493 947 c 0
 493 916 487 882 474 820 c 1
 566 925 709 1030 820 1030 c 0
 1008 1030 1083 904 1083 743 c 0
 1083 705 1079 662 1070 620 c 2
 938 0 l 1
 779 0 l 1
 912 620 l 2
 918 651 922 683 922 716 c 0
 922 801 891 880 786 880 c 0
 647 880 434 632 408 508 c 2
 299 0 l 1
 141 0 l 1
 295 716 l 2
 309 781 320 882 320 951 c 0
 320 978 318 1003 314 1016 c 1
 487 1016 l 1
EndSplineSet
Validated: 1
Layer: 2
SplineSet
487 1016 m 1,0,1
 493 989 493 989 493 947 c 0,2,3
 493 911 493 911 474 820 c 1,4,5
 549 906 549 906 645.5 968 c 128,-1,6
 742 1030 742 1030 820 1030 c 0,7,8
 954 1030 954 1030 1018.5 951 c 128,-1,9
 1083 872 1083 872 1083 743 c 0,10,11
 1083 681 1083 681 1070 620 c 2,12,-1
 938 0 l 1,13,-1
 779 0 l 1,14,-1
 912 620 l 2,15,16
 922 672 922 672 922 716 c 0,17,18
 922 788 922 788 890.5 834 c 128,-1,19
 859 880 859 880 786 880 c 0,20,21
 721 880 721 880 634.5 812.5 c 128,-1,22
 548 745 548 745 484.5 657.5 c 128,-1,23
 421 570 421 570 408 508 c 2,24,-1
 299 0 l 1,25,-1
 141 0 l 1,26,-1
 295 716 l 2,27,28
 320 832 320 832 320 951 c 0,29,30
 320 996 320 996 314 1016 c 1,31,-1
 487 1016 l 1,0,1
EndSplineSet
EndChar

StartChar: o
Encoding: 111 111 79
Width: 1282
VWidth: 2822
Flags: W
HStem: -13 150<498.66 866.337> 878 152<645.912 1004.76>
VStem: 195 161<277.05 605.043> 1151 154<411.553 740.454>
LayerCount: 3
Fore
SplineSet
1305 615 m 0
 1305 297 994 -13 640 -13 c 0
 376 -13 195 166 195 406 c 0
 195 714 506 1030 861 1030 c 0
 1124 1030 1305 853 1305 615 c 0
833 878 m 0
 600 878 356 675 356 432 c 0
 356 262 485 137 673 137 c 0
 912 137 1151 342 1151 585 c 0
 1151 752 1021 878 833 878 c 0
EndSplineSet
Validated: 1
Layer: 2
SplineSet
1305 615 m 0,0,1
 1305 498 1305 498 1250.5 383 c 128,-1,2
 1196 268 1196 268 1106 181.5 c 128,-1,3
 1016 95 1016 95 892.5 41 c 128,-1,4
 769 -13 769 -13 640 -13 c 0,5,6
 444 -13 444 -13 319.5 105.5 c 128,-1,7
 195 224 195 224 195 406 c 0,8,9
 195 520 195 520 250 633.5 c 128,-1,10
 305 747 305 747 394.5 834 c 128,-1,11
 484 921 484 921 608 975.5 c 128,-1,12
 732 1030 732 1030 861 1030 c 0,13,14
 1057 1030 1057 1030 1181 912.5 c 128,-1,15
 1305 795 1305 795 1305 615 c 0,0,1
833 878 m 0,16,17
 717 878 717 878 607 818 c 128,-1,18
 497 758 497 758 426.5 654 c 128,-1,19
 356 550 356 550 356 432 c 0,20,21
 356 304 356 304 444.5 220.5 c 128,-1,22
 533 137 533 137 673 137 c 0,23,24
 791 137 791 137 901.5 197.5 c 128,-1,25
 1012 258 1012 258 1081.5 362.5 c 128,-1,26
 1151 467 1151 467 1151 585 c 0,27,28
 1151 711 1151 711 1062 794.5 c 128,-1,29
 973 878 973 878 833 878 c 0,16,17
EndSplineSet
EndChar

StartChar: p
Encoding: 112 112 80
Width: 1219
VWidth: 2806
Flags: W
HStem: -471 21G<43 206.238> -13 150<519.045 823.744> 880 150<674.631 963.568>
VStem: 321 175<742.965 1016> 1086 158<406.285 756.314>
DStem2: 43 -471 202 -471 0.207912 0.978148<33.058 669.888 950.135 1234.55>
LayerCount: 3
Fore
SplineSet
314 1016 m 1
 491 1016 l 1
 493 995 496 975 496 952 c 0
 496 927 493 898 485 859 c 1
 588 955 734 1030 855 1030 c 0
 1094 1030 1244 852 1244 624 c 0
 1244 312 960 -13 633 -13 c 0
 514 -13 396 54 334 152 c 1
 202 -471 l 1
 43 -471 l 1
 296 718 l 2
 309 781 321 879 321 948 c 0
 321 977 319 1001 314 1016 c 1
410 508 m 0
 404 478 401 450 401 423 c 0
 401 256 513 137 665 137 c 0
 861 137 1086 343 1086 592 c 0
 1086 760 973 880 823 880 c 0
 646 880 455 718 410 508 c 0
EndSplineSet
Validated: 1
Layer: 2
SplineSet
314 1016 m 1,0,-1
 491 1016 l 1,1,2
 496 964 496 964 496 952 c 0,3,4
 496 913 496 913 485 859 c 1,5,6
 565 934 565 934 666 982 c 128,-1,7
 767 1030 767 1030 855 1030 c 0,8,9
 1031 1030 1031 1030 1137.5 914.5 c 128,-1,10
 1244 799 1244 799 1244 624 c 0,11,12
 1244 470 1244 470 1160.5 322.5 c 128,-1,13
 1077 175 1077 175 934 81 c 128,-1,14
 791 -13 791 -13 633 -13 c 0,15,16
 544 -13 544 -13 462.5 32.5 c 128,-1,17
 381 78 381 78 334 152 c 1,18,-1
 202 -471 l 1,19,-1
 43 -471 l 1,20,-1
 296 718 l 2,21,22
 321 839 321 839 321 948 c 0,23,24
 321 995 321 995 314 1016 c 1,0,-1
410 508 m 0,25,26
 401 463 401 463 401 423 c 0,27,28
 401 298 401 298 476 217.5 c 128,-1,29
 551 137 551 137 665 137 c 0,30,31
 738 137 738 137 813.5 173.5 c 128,-1,32
 889 210 889 210 949 270.5 c 128,-1,33
 1009 331 1009 331 1047.5 416.5 c 128,-1,34
 1086 502 1086 502 1086 592 c 0,35,36
 1086 717 1086 717 1011 798.5 c 128,-1,37
 936 880 936 880 823 880 c 0,38,39
 688 880 688 880 565.5 771.5 c 128,-1,40
 443 663 443 663 410 508 c 0,25,26
EndSplineSet
EndChar

StartChar: q
Encoding: 113 113 81
Width: 1219
VWidth: 2806
Flags: W
HStem: -471 21G<820 983.256> -13 150<469.998 765.85> 880 150<613.309 919.448>
VStem: 194 157<260.344 608.386>
DStem2: 820 -471 979 -471 0.207912 0.978148<33.058 636.83 799.735 1084.63>
LayerCount: 3
Fore
SplineSet
1103 859 m 1
 1119 936 1140 972 1163 1016 c 1
 1340 1016 l 1
 1283 940 1247 788 1232 718 c 2
 979 -471 l 1
 820 -471 l 1
 952 152 l 1
 848 54 702 -13 584 -13 c 0
 345 -13 194 165 194 393 c 0
 194 703 479 1030 806 1030 c 0
 926 1030 1040 955 1103 859 c 1
1028 508 m 0
 1034 537 1037 566 1037 593 c 0
 1037 760 925 880 774 880 c 0
 570 880 351 666 351 424 c 0
 351 256 465 137 616 137 c 0
 792 137 983 297 1028 508 c 0
EndSplineSet
Validated: 1
Layer: 2
SplineSet
1103 859 m 1,0,1
 1106 872 1106 872 1108.5 883 c 128,-1,2
 1111 894 1111 894 1114.5 905 c 128,-1,3
 1118 916 1118 916 1120 923.5 c 128,-1,4
 1122 931 1122 931 1127 942 c 128,-1,5
 1132 953 1132 953 1133.5 957.5 c 128,-1,6
 1135 962 1135 962 1141 973.5 c 128,-1,7
 1147 985 1147 985 1148 987 c 128,-1,8
 1149 989 1149 989 1156 1002 c 128,-1,9
 1163 1015 1163 1015 1163 1016 c 2,10,-1
 1340 1016 l 1,11,12
 1278 934 1278 934 1232 718 c 2,13,-1
 979 -471 l 1,14,-1
 820 -471 l 1,15,-1
 952 152 l 1,16,17
 873 78 873 78 772.5 32.5 c 128,-1,18
 672 -13 672 -13 584 -13 c 0,19,20
 408 -13 408 -13 301 102.5 c 128,-1,21
 194 218 194 218 194 393 c 0,22,23
 194 485 194 485 226 578 c 128,-1,24
 258 671 258 671 316 751.5 c 128,-1,25
 374 832 374 832 449 895 c 128,-1,26
 524 958 524 958 617 994 c 128,-1,27
 710 1030 710 1030 806 1030 c 0,28,29
 893 1030 893 1030 973.5 982 c 128,-1,30
 1054 934 1054 934 1103 859 c 1,0,1
1028 508 m 0,31,32
 1037 552 1037 552 1037 593 c 0,33,34
 1037 718 1037 718 962.5 799 c 128,-1,35
 888 880 888 880 774 880 c 0,36,37
 699 880 699 880 622 842.5 c 128,-1,38
 545 805 545 805 485.5 743.5 c 128,-1,39
 426 682 426 682 388.5 597 c 128,-1,40
 351 512 351 512 351 424 c 0,41,42
 351 299 351 299 426.5 218 c 128,-1,43
 502 137 502 137 616 137 c 0,44,45
 750 137 750 137 872.5 244.5 c 128,-1,46
 995 352 995 352 1028 508 c 0,31,32
EndSplineSet
EndChar

StartChar: r
Encoding: 114 114 82
Width: 737
VWidth: 2822
Flags: W
HStem: 0 21G<143 303.338> 996 20G<314 492>
VStem: 320 175<752.207 1016>
DStem2: 143 0 299 0 0.207912 0.978148<32.4342 751.918>
LayerCount: 3
Fore
SplineSet
483 865 m 1
 575 949 669 1003 763 1034 c 1
 933 895 l 1
 517 895 427 593 412 521 c 2
 299 0 l 1
 143 0 l 1
 295 716 l 2
 309 779 320 875 320 944 c 0
 320 976 318 1000 314 1016 c 1
 491 1016 l 1
 493 996 495 976 495 953 c 0
 495 929 493 902 483 865 c 1
EndSplineSet
Validated: 1
Layer: 2
SplineSet
483 865 m 1,0,1
 614 985 614 985 763 1034 c 1,2,-1
 933 895 l 1,3,4
 816 895 816 895 721.5 862 c 128,-1,5
 627 829 627 829 574 785 c 128,-1,6
 521 741 521 741 482.5 682.5 c 128,-1,7
 444 624 444 624 431.5 588.5 c 128,-1,8
 419 553 419 553 412 521 c 2,9,-1
 299 0 l 1,10,-1
 143 0 l 1,11,-1
 295 716 l 2,12,13
 320 829 320 829 320 944 c 0,14,15
 320 992 320 992 314 1016 c 1,16,-1
 491 1016 l 1,17,18
 495 976 495 976 495 953 c 0,19,20
 495 909 495 909 483 865 c 1,0,1
EndSplineSet
EndChar

StartChar: s
Encoding: 115 115 83
Width: 906
VWidth: 2822
Flags: W
HStem: -17 151<366.928 624.377> 882 150<538.484 737.149>
VStem: 164 165<175.761 333> 333 167<685.718 842.577> 720 162<227.124 419.834>
LayerCount: 3
Fore
SplineSet
333 716 m 0
 333 878 483 1032 673 1032 c 0
 771 1032 900 985 922 826 c 1
 927 795 l 1
 767 743 l 1
 763 777 l 1
 752 850 701 882 645 882 c 0
 551 882 500 806 500 754 c 0
 500 620 882 628 882 374 c 0
 882 171 679 -17 448 -17 c 0
 299 -17 164 72 164 267 c 0
 164 289 171 333 171 333 c 1
 331 352 l 1
 331 352 329 318 329 295 c 0
 329 177 401 134 481 134 c 0
 628 134 720 252 720 336 c 0
 720 510 333 483 333 716 c 0
EndSplineSet
Validated: 1
Layer: 2
SplineSet
333 716 m 0,0,1
 333 840 333 840 433 936 c 128,-1,2
 533 1032 533 1032 673 1032 c 0,3,4
 713 1032 713 1032 751 1021.5 c 128,-1,5
 789 1011 789 1011 825.5 989 c 128,-1,6
 862 967 862 967 888 925 c 128,-1,7
 914 883 914 883 922 826 c 2,8,-1
 927 795 l 1,9,-1
 767 743 l 1,10,-1
 763 777 l 2,11,12
 755 829 755 829 722.5 855.5 c 128,-1,13
 690 882 690 882 645 882 c 0,14,15
 580 882 580 882 540 840.5 c 128,-1,16
 500 799 500 799 500 754 c 0,17,18
 500 723 500 723 528.5 697 c 128,-1,19
 557 671 557 671 599 652.5 c 128,-1,20
 641 634 641 634 691 608.5 c 128,-1,21
 741 583 741 583 783 555.5 c 128,-1,22
 825 528 825 528 853.5 481 c 128,-1,23
 882 434 882 434 882 374 c 0,24,25
 882 221 882 221 751 102 c 128,-1,26
 620 -17 620 -17 448 -17 c 0,27,28
 327 -17 327 -17 245.5 56 c 128,-1,29
 164 129 164 129 164 267 c 1,30,-1
 171 333 l 1,31,-1
 331 352 l 1,32,33
 329 318 329 318 329 295 c 0,34,35
 329 212 329 212 372 173 c 128,-1,36
 415 134 415 134 481 134 c 0,37,38
 584 134 584 134 652 200 c 128,-1,39
 720 266 720 266 720 336 c 0,40,41
 720 376 720 376 691.5 408 c 128,-1,42
 663 440 663 440 620 460 c 128,-1,43
 577 480 577 480 526.5 504 c 128,-1,44
 476 528 476 528 433 552.5 c 128,-1,45
 390 577 390 577 361.5 619 c 128,-1,46
 333 661 333 661 333 716 c 0,0,1
EndSplineSet
EndChar

StartChar: t
Encoding: 116 116 84
Width: 585
VWidth: 2826
Flags: W
HStem: 2 21G<143 306.241> 865 149<271 327 517 720>
VStem: 143 663
DStem2: 143 2 302 2 0.207912 0.978148<33.058 882.397 1067.64 1264.09>
LayerCount: 3
Fore
SplineSet
302 2 m 1
 143 2 l 1
 327 865 l 1
 239 865 l 1
 271 1014 l 1
 361 1014 l 1
 408 1238 l 1
 564 1238 l 1
 517 1014 l 1
 806 1014 l 1
 720 865 l 1
 485 865 l 1
 302 2 l 1
EndSplineSet
Validated: 1
Layer: 2
SplineSet
302 2 m 1,0,-1
 143 2 l 1,1,-1
 327 865 l 1,2,-1
 239 865 l 1,3,-1
 271 1014 l 1,4,-1
 361 1014 l 1,5,-1
 408 1238 l 1,6,-1
 564 1238 l 1,7,-1
 517 1014 l 1,8,-1
 806 1014 l 1,9,-1
 720 865 l 1,10,-1
 485 865 l 1,11,-1
 302 2 l 1,0,-1
EndSplineSet
EndChar

StartChar: u
Encoding: 117 117 85
Width: 1071
VWidth: 2817
Flags: W
HStem: -15 152<442.196 706.382>
VStem: 218 160<201.351 560.156>
DStem2: 140.639 -15 297.639 -15 0.207912 0.978148<390.708 1051.91> 771.639 -15 928.639 -15 0.207912 0.978148<254.664 1052.12>
LayerCount: 3
Fore
SplineSet
359 1014 m 1
 517 1014 l 1
 385 396 l 2
 380 374 378 354 378 333 c 0
 378 218 455 137 564 137 c 0
 692 137 828 246 859 396 c 1
 991 1014 l 1
 1149 1014 l 1
 1016 396 l 2
 969 173 759 -15 534 -15 c 0
 342 -15 218 124 218 305 c 0
 218 333 222 365 228 396 c 2
 359 1014 l 1
EndSplineSet
Validated: 1
Layer: 2
SplineSet
359 1014 m 1,0,-1
 517 1014 l 1,1,-1
 385 396 l 2,2,3
 378 365 378 365 378 333 c 0,4,5
 378 247 378 247 430 192 c 128,-1,6
 482 137 482 137 564 137 c 0,7,8
 662 137 662 137 749 211.5 c 128,-1,9
 836 286 836 286 859 396 c 2,10,-1
 991 1014 l 1,11,-1
 1149 1014 l 1,12,-1
 1016 396 l 2,13,14
 980 227 980 227 840.5 106 c 128,-1,15
 701 -15 701 -15 534 -15 c 0,16,17
 392 -15 392 -15 305 76 c 128,-1,18
 218 167 218 167 218 305 c 0,19,20
 218 344 218 344 228 396 c 2,21,-1
 359 1014 l 1,0,-1
EndSplineSet
EndChar

StartChar: v
Encoding: 118 118 86
Width: 1008
VWidth: 2817
Flags: W
HStem: -15 21G<500.821 519.54> 996 20G<239 415.514 1018.14 1204>
DStem2: 410 1016 239 1016 0.250701 -0.968064<0 665.872> 587 374 506 -15 0.560617 0.828075<0 781.099>
LayerCount: 3
Fore
SplineSet
239 1016 m 1
 410 1016 l 1
 587 374 l 1
 1032 1016 l 1
 1204 1016 l 1
 506 -15 l 1
 239 1016 l 1
EndSplineSet
Validated: 1
Layer: 2
SplineSet
239 1016 m 1,0,-1
 410 1016 l 1,1,-1
 587 374 l 1,2,-1
 1032 1016 l 1,3,-1
 1204 1016 l 1,4,-1
 506 -15 l 1,5,-1
 239 1016 l 1,0,-1
EndSplineSet
EndChar

StartChar: w
Encoding: 119 119 87
Width: 1649
VWidth: 2822
Flags: W
HStem: -15 21G<486.112 505.146 1156.21 1175.25> 996 20G<239 417.293 1035.4 1056.11 1660.47 1845>
DStem2: 412 1016 239 1016 0.237433 -0.971404<0 652.607> 579 385 491 -15 0.577445 0.81643<0 446.934> 1050 1030 967 658 0.278301 -0.960494<334.205 674.344> 1247 385 1162 -15 0.552272 0.833664<0 761.862>
LayerCount: 3
Fore
SplineSet
239 1016 m 1
 412 1016 l 1
 579 385 l 1
 1050 1030 l 1
 1247 385 l 1
 1674 1016 l 1
 1845 1016 l 1
 1162 -15 l 1
 967 658 l 1
 491 -15 l 1
 239 1016 l 1
EndSplineSet
Validated: 1
Layer: 2
SplineSet
239 1016 m 1,0,-1
 412 1016 l 1,1,-1
 579 385 l 1,2,-1
 1050 1030 l 1,3,-1
 1247 385 l 1,4,-1
 1674 1016 l 1,5,-1
 1845 1016 l 1,6,-1
 1162 -15 l 1,7,-1
 967 658 l 1,8,-1
 491 -15 l 1,9,-1
 239 1016 l 1,0,-1
EndSplineSet
EndChar

StartChar: x
Encoding: 120 120 88
Width: 995
VWidth: 2822
Flags: W
HStem: 0 21G<25 229.66 778.025 976> 996 20G<280 471.143 944.375 1151>
DStem2: 25 0 211 0 0.67912 0.734027<126.316 677.478 905.897 1382.79> 461 1016 280 1016 0.452123 -0.891956<0 391.318 603.736 1054.07>
LayerCount: 3
Fore
SplineSet
280 1016 m 1
 461 1016 l 1
 638 667 l 1
 963 1016 l 1
 1151 1016 l 1
 705 534 l 1
 976 0 l 1
 788 0 l 1
 587 403 l 1
 211 0 l 1
 25 0 l 1
 521 534 l 1
 280 1016 l 1
EndSplineSet
Validated: 1
Layer: 2
SplineSet
280 1016 m 1,0,-1
 461 1016 l 1,1,-1
 638 667 l 1,2,-1
 963 1016 l 1,3,-1
 1151 1016 l 1,4,-1
 705 534 l 1,5,-1
 976 0 l 1,6,-1
 788 0 l 1,7,-1
 587 403 l 1,8,-1
 211 0 l 1,9,-1
 25 0 l 1,10,-1
 521 534 l 1,11,-1
 280 1016 l 1,0,-1
EndSplineSet
EndChar

StartChar: y
Encoding: 121 121 89
Width: 1006
VWidth: 2804
Flags: W
HStem: -487 21G<116 296.216> 996 20G<239 409.887 1021.72 1202>
DStem2: 116 -487 284 -487 0.521243 0.853408<87.5689 608.674 849.443 1761.17> 406 1016 239 1016 0.19439 -0.980924<0 791.531>
LayerCount: 3
Fore
SplineSet
239 1016 m 1
 406 1016 l 1
 557 239 l 1
 1034 1016 l 1
 1202 1016 l 1
 284 -487 l 1
 116 -487 l 1
 434 32 l 1
 239 1016 l 1
EndSplineSet
Validated: 1
Layer: 2
SplineSet
239 1016 m 1,0,-1
 406 1016 l 1,1,-1
 557 239 l 1,2,-1
 1034 1016 l 1,3,-1
 1202 1016 l 1,4,-1
 284 -487 l 1,5,-1
 116 -487 l 1,6,-1
 434 32 l 1,7,-1
 239 1016 l 1,0,-1
EndSplineSet
EndChar

StartChar: z
Encoding: 122 122 90
Width: 980
VWidth: 2822
Flags: W
HStem: 0 150<359 886> 865 151<403 846>
DStem2: 25 0 359 150 0.688419 0.725313<338.729 1192.59>
LayerCount: 3
Fore
SplineSet
403 1016 m 1
 1175 1016 l 1
 359 150 l 1
 972 150 l 1
 886 0 l 1
 25 0 l 1
 846 865 l 1
 318 865 l 1
 403 1016 l 1
EndSplineSet
Validated: 1
Layer: 2
SplineSet
403 1016 m 1,0,-1
 1175 1016 l 1,1,-1
 359 150 l 1,2,-1
 972 150 l 1,3,-1
 886 0 l 1,4,-1
 25 0 l 1,5,-1
 846 865 l 1,6,-1
 318 865 l 1,7,-1
 403 1016 l 1,0,-1
EndSplineSet
EndChar

StartChar: braceleft
Encoding: 123 123 91
Width: 610
VWidth: 2982
Flags: W
HStem: -346 131<406.562 483> 1471 131<747.318 871>
VStem: 222 163<-201.025 177.859> 312 165<196.422 531.412>
DStem2: 156.229 -346 318.229 -346 0.207912 0.978148<308.518 781.609 1114.76 1848.18>
LayerCount: 3
Fore
SplineSet
244 685 m 1xd0
 354 748 396 781 427 925 c 2
 491 1224 l 1
 557 1542 750 1602 865 1602 c 2
 900 1602 l 1
 871 1471 l 1
 835 1471 l 2
 730 1471 673 1332 651 1224 c 2
 589 929 l 2
 557 779 504 696 425 628 c 1
 457 591 477 542 477 463 c 0xd0
 477 425 472 383 461 331 c 2
 399 34 l 1
 389 -2 385 -43 385 -81 c 0xe0
 385 -154 408 -215 477 -215 c 2xd0
 513 -215 l 1
 483 -346 l 1
 448 -346 l 2
 354 -346 222 -305 222 -103 c 0xe0
 222 -62 226 -17 237 34 c 2
 299 331 l 2
 307 367 312 399 312 421 c 0
 312 504 273 530 220 571 c 1
 244 685 l 1xd0
EndSplineSet
Validated: 1
Layer: 2
SplineSet
244 685 m 1,0,1
 334 736 334 736 369.5 779.5 c 128,-1,2
 405 823 405 823 427 925 c 2,3,-1
 491 1224 l 2,4,5
 510 1315 510 1315 544.5 1385 c 128,-1,6
 579 1455 579 1455 617.5 1495 c 128,-1,7
 656 1535 656 1535 703 1560 c 128,-1,8
 750 1585 750 1585 788 1593.5 c 128,-1,9
 826 1602 826 1602 865 1602 c 2,10,-1
 900 1602 l 1,11,-1
 871 1471 l 1,12,-1
 835 1471 l 2,13,14
 786 1471 786 1471 746 1430 c 128,-1,15
 706 1389 706 1389 684.5 1337 c 128,-1,16
 663 1285 663 1285 651 1224 c 2,17,-1
 589 929 l 2,18,19
 566 821 566 821 526.5 751.5 c 128,-1,20
 487 682 487 682 425 628 c 1,21,22
 477 568 477 568 477 463 c 0,23,24
 477 407 477 407 461 331 c 2,25,-1
 399 34 l 2,26,27
 385 -16 385 -16 385 -81 c 0,28,29
 385 -215 385 -215 477 -215 c 2,30,-1
 513 -215 l 1,31,-1
 483 -346 l 1,32,-1
 448 -346 l 2,33,34
 408 -346 408 -346 372 -336 c 128,-1,35
 336 -326 336 -326 300.5 -301 c 128,-1,36
 265 -276 265 -276 243.5 -225.5 c 128,-1,37
 222 -175 222 -175 222 -103 c 0,38,39
 222 -36 222 -36 237 34 c 2,40,-1
 299 331 l 2,41,42
 312 389 312 389 312 421 c 0,43,44
 312 451 312 451 306.5 472.5 c 128,-1,45
 301 494 301 494 284.5 513 c 128,-1,46
 268 532 268 532 258.5 540.5 c 128,-1,47
 249 549 249 549 220 571 c 1,48,-1
 244 685 l 1,0,1
EndSplineSet
EndChar

StartChar: bar
Encoding: 124 124 92
Width: 444
VWidth: 2982
Flags: W
VStem: 103 557
DStem2: 103 -186 265 -186 0.207912 0.978148<33.6817 1904.83>
LayerCount: 3
Fore
SplineSet
265 -186 m 1
 103 -186 l 1
 500 1677 l 1
 660 1677 l 1
 265 -186 l 1
EndSplineSet
Validated: 1
Layer: 2
SplineSet
265 -186 m 1,0,-1
 103 -186 l 1,1,-1
 500 1677 l 1,2,-1
 660 1677 l 1,3,-1
 265 -186 l 1,0,-1
EndSplineSet
EndChar

StartChar: braceright
Encoding: 125 125 93
Width: 613
VWidth: 2982
Flags: W
HStem: -349 131<7 134.867> 1471 129<393 477.47>
VStem: 403 168<719.543 1061.09> 495 165<1082.08 1457.86>
DStem2: 150.441 -349 310.441 -349 0.207912 0.978148<179.425 909.217 1242.76 1719.14>
LayerCount: 3
Fore
SplineSet
638 568 m 1xd0
 528 506 485 472 455 329 c 2
 391 30 l 1
 325 -284 134 -349 15 -349 c 2
 -20 -349 l 1
 7 -218 l 1
 43 -218 l 2
 150 -218 208 -77 231 30 c 2
 293 329 l 1
 327 487 387 571 457 626 c 1
 423 669 403 720 403 795 c 0xe0
 403 831 408 873 419 925 c 2
 481 1224 l 1
 487 1260 495 1301 495 1337 c 0xd0
 495 1410 472 1471 403 1471 c 2xe0
 367 1471 l 1
 393 1600 l 1
 430 1600 l 2
 528 1600 660 1555 660 1354 c 0xd0
 660 1316 656 1271 645 1220 c 2
 581 922 l 2
 573 884 571 855 571 831 c 0xe0
 571 750 607 724 660 683 c 1
 638 568 l 1xd0
EndSplineSet
Validated: 1
Layer: 2
SplineSet
638 568 m 1,0,1
 591 542 591 542 566 524 c 128,-1,2
 541 506 541 506 517.5 479 c 128,-1,3
 494 452 494 452 480 417.5 c 128,-1,4
 466 383 466 383 455 329 c 2,5,-1
 391 30 l 2,6,7
 372 -60 372 -60 337.5 -129.5 c 128,-1,8
 303 -199 303 -199 264.5 -239.5 c 128,-1,9
 226 -280 226 -280 179.5 -305.5 c 128,-1,10
 133 -331 133 -331 94 -340 c 128,-1,11
 55 -349 55 -349 15 -349 c 2,12,-1
 -20 -349 l 1,13,-1
 7 -218 l 1,14,-1
 43 -218 l 2,15,16
 93 -218 93 -218 134 -176.5 c 128,-1,17
 175 -135 175 -135 196.5 -83 c 128,-1,18
 218 -31 218 -31 231 30 c 2,19,-1
 293 329 l 2,20,21
 337 531 337 531 457 626 c 1,22,23
 403 694 403 694 403 795 c 0,24,25
 403 849 403 849 419 925 c 2,26,-1
 481 1224 l 2,27,28
 495 1308 495 1308 495 1337 c 0,29,30
 495 1471 495 1471 403 1471 c 2,31,-1
 367 1471 l 1,32,-1
 393 1600 l 1,33,-1
 430 1600 l 2,34,35
 471 1600 471 1600 508 1589 c 128,-1,36
 545 1578 545 1578 581 1553 c 128,-1,37
 617 1528 617 1528 638.5 1476.5 c 128,-1,38
 660 1425 660 1425 660 1354 c 0,39,40
 660 1290 660 1290 645 1220 c 2,41,-1
 581 922 l 2,42,43
 571 875 571 875 571 831 c 0,44,45
 571 793 571 793 584 764.5 c 128,-1,46
 597 736 597 736 611.5 723 c 128,-1,47
 626 710 626 710 660 683 c 1,48,-1
 638 568 l 1,0,1
EndSplineSet
EndChar

StartChar: asciitilde
Encoding: 126 126 94
Width: 1080
VWidth: 2982
Flags: W
HStem: 342 166<736.406 963.828> 477 166<331.816 569.263>
VStem: 173 132<352 452.551> 980 133<527.531 634>
LayerCount: 3
Fore
SplineSet
987 634 m 1xb0
 1119 634 l 1
 1113 598 l 1
 1072 416 959 342 844 342 c 0xb0
 681 342 553 477 423 477 c 0
 349 477 322 436 314 387 c 1
 305 352 l 1
 173 352 l 1
 181 387 l 1
 222 577 349 643 459 643 c 0x70
 638 643 754 508 878 508 c 0
 944 508 969 544 980 598 c 2
 987 634 l 1xb0
EndSplineSet
Validated: 1
Layer: 2
SplineSet
987 634 m 1,0,-1
 1119 634 l 1,1,-1
 1113 598 l 1,2,3
 1084 469 1084 469 1010.5 405.5 c 128,-1,4
 937 342 937 342 844 342 c 0,5,6
 789 342 789 342 727.5 363 c 128,-1,7
 666 384 666 384 621 409.5 c 128,-1,8
 576 435 576 435 521 456 c 128,-1,9
 466 477 466 477 423 477 c 0,10,11
 329 477 329 477 314 387 c 1,12,-1
 305 352 l 1,13,-1
 173 352 l 1,14,-1
 181 387 l 2,15,16
 200 477 200 477 247 537 c 128,-1,17
 294 597 294 597 347 620 c 128,-1,18
 400 643 400 643 459 643 c 0,19,20
 519 643 519 643 582 622 c 128,-1,21
 645 601 645 601 689 575.5 c 128,-1,22
 733 550 733 550 785 529 c 128,-1,23
 837 508 837 508 878 508 c 0,24,25
 925 508 925 508 948 531 c 128,-1,26
 971 554 971 554 980 598 c 2,27,-1
 987 634 l 1,0,-1
EndSplineSet
EndChar

StartChar: exclamdown
Encoding: 161 161 95
Width: 570
VWidth: 2982
Flags: W
HStem: 790 240<401.938 555.172>
VStem: 359 243<835.703 985.391>
LayerCount: 3
Fore
SplineSet
376 724 m 1
 506 724 l 1
 267 -544 l 1
 74 -544 l 1
 376 724 l 1
359 886 m 0
 359 972 438 1030 506 1030 c 0
 562 1030 602 989 602 936 c 0
 602 850 519 790 455 790 c 0
 399 790 359 831 359 886 c 0
EndSplineSet
Validated: 1
Layer: 2
SplineSet
376 724 m 1,0,-1
 506 724 l 1,1,-1
 267 -544 l 1,2,-1
 74 -544 l 1,3,-1
 376 724 l 1,0,-1
359 886 m 0,4,5
 359 947 359 947 405 988.5 c 128,-1,6
 451 1030 451 1030 506 1030 c 0,7,8
 548 1030 548 1030 575 1003 c 128,-1,9
 602 976 602 976 602 936 c 0,10,11
 602 875 602 875 554.5 832.5 c 128,-1,12
 507 790 507 790 455 790 c 0,13,14
 413 790 413 790 386 817.5 c 128,-1,15
 359 845 359 845 359 886 c 0,4,5
EndSplineSet
EndChar

StartChar: cent
Encoding: 162 162 96
Width: 1143
VWidth: 2982
Flags: W
HStem: -11 154<683 802.569> 873 154<871 932.352>
VStem: 208 159<262.875 605.716>
DStem2: 432 -275 593 -275 0.207912 0.978148<33.4738 285.257 461.052 1155 1364.82 1600.04>
LayerCount: 3
Fore
SplineSet
593 -275 m 1
 432 -275 l 1
 491 0 l 1
 316 45 208 201 208 391 c 0
 208 656 416 947 707 1016 c 1
 765 1290 l 1
 927 1290 l 1
 871 1027 l 1
 1104 1003 1175 806 1196 752 c 1
 1043 675 l 1
 1023 730 976 848 837 873 c 1
 683 143 l 1
 842 168 940 299 972 338 c 1
 1090 265 l 1
 1032 188 880 11 649 -11 c 1
 593 -275 l 1
671 855 m 1
 526 803 367 636 367 427 c 0
 367 299 430 203 524 161 c 1
 671 855 l 1
EndSplineSet
Validated: 1
Layer: 2
SplineSet
593 -275 m 1,0,-1
 432 -275 l 1,1,-1
 491 0 l 1,2,3
 361 33 361 33 284.5 140 c 128,-1,4
 208 247 208 247 208 391 c 0,5,6
 208 523 208 523 271 654 c 128,-1,7
 334 785 334 785 450 884 c 128,-1,8
 566 983 566 983 707 1016 c 1,9,-1
 765 1290 l 1,10,-1
 927 1290 l 1,11,-1
 871 1027 l 1,12,13
 926 1021 926 1021 973.5 1003 c 128,-1,14
 1021 985 1021 985 1055 956 c 128,-1,15
 1089 927 1089 927 1112.5 902 c 128,-1,16
 1136 877 1136 877 1155 840.5 c 128,-1,17
 1174 804 1174 804 1180 790.5 c 128,-1,18
 1186 777 1186 777 1196 752 c 1,19,-1
 1043 675 l 1,20,21
 1032 704 1032 704 1020.5 727 c 128,-1,22
 1009 750 1009 750 985.5 783.5 c 128,-1,23
 962 817 962 817 924 840.5 c 128,-1,24
 886 864 886 864 837 873 c 1,25,-1
 683 143 l 1,26,27
 726 150 726 150 767.5 168.5 c 128,-1,28
 809 187 809 187 836 204.5 c 128,-1,29
 863 222 863 222 895 253 c 128,-1,30
 927 284 927 284 936 295 c 128,-1,31
 945 306 945 306 966.214066057 330.877015872 c 0,32,33
 968 333 968 333 969.5 335 c 128,-1,34
 971 337 971 337 972 338 c 2,35,-1
 1090 265 l 1,36,37
 1061 227 1061 227 1027 191 c 128,-1,38
 993 155 993 155 936.5 108 c 128,-1,39
 880 61 880 61 805 29 c 128,-1,40
 730 -3 730 -3 649 -11 c 1,41,-1
 593 -275 l 1,0,-1
671 855 m 1,42,43
 552 812 552 812 459.5 693 c 128,-1,44
 367 574 367 574 367 427 c 0,45,46
 367 333 367 333 409.5 263 c 128,-1,47
 452 193 452 193 524 161 c 1,48,-1
 671 855 l 1,42,43
EndSplineSet
EndChar

StartChar: sterling
Encoding: 163 163 97
Width: 1177
VWidth: 2982
Flags: W
HStem: 0 154<427 1016> 0 130<152 219.234> 669 155<344 534 707 953> 1359 152<842.955 1110.76>
VStem: 526 155<480.998 665> 553 154<824 1188.32> 1166 130<1155 1304.37>
LayerCount: 3
Fore
SplineSet
1166 1155 m 1x76
 1166 1305 1092 1359 985 1359 c 0
 882 1359 773 1294 748 1182 c 0
 726 1083 720 955 707 824 c 1x76
 1036 824 l 1
 953 669 l 1
 692 669 l 1
 681 624 l 2
 639 451 571 289 427 154 c 1
 1102 154 l 1
 1016 0 l 1xba
 152 0 l 1
 141 130 l 1
 309 215 476 340 526 620 c 2x7a
 534 665 l 1
 260 665 l 1
 344 818 l 1
 553 818 l 1
 564 942 568 1063 593 1179 c 0
 636 1379 831 1511 1016 1511 c 0
 1147 1511 1296 1448 1296 1202 c 0
 1296 1186 1296 1171 1294 1155 c 1
 1166 1155 l 1x76
EndSplineSet
Validated: 1
Layer: 2
SplineSet
1166 1155 m 1,0,1
 1166 1359 1166 1359 985 1359 c 0,2,3
 904 1359 904 1359 835 1311 c 128,-1,4
 766 1263 766 1263 748 1182 c 0,5,6
 738 1137 738 1137 731.5 1084.5 c 128,-1,7
 725 1032 725 1032 717.5 942.5 c 128,-1,8
 710 853 710 853 707 824 c 1,9,-1
 1036 824 l 1,10,-1
 953 669 l 1,11,-1
 692 669 l 1,12,-1
 681 624 l 2,13,14
 646 481 646 481 587 365 c 128,-1,15
 528 249 528 249 427 154 c 1,16,-1
 1102 154 l 1,17,-1
 1016 0 l 1,18,-1
 152 0 l 1,19,-1
 141 130 l 1,20,21
 197 158 197 158 241.5 186.5 c 128,-1,22
 286 215 286 215 334 258.5 c 128,-1,23
 382 302 382 302 417.5 351 c 128,-1,24
 453 400 453 400 482 469.5 c 128,-1,25
 511 539 511 539 526 620 c 2,26,-1
 534 665 l 1,27,-1
 260 665 l 1,28,-1
 344 818 l 1,29,-1
 553 818 l 1,30,31
 556 848 556 848 560.5 908 c 128,-1,32
 565 968 565 968 568 1003.5 c 128,-1,33
 571 1039 571 1039 577.5 1088.5 c 128,-1,34
 584 1138 584 1138 593 1179 c 0,35,36
 614 1276 614 1276 680 1353 c 128,-1,37
 746 1430 746 1430 834.5 1470.5 c 128,-1,38
 923 1511 923 1511 1016 1511 c 0,39,40
 1058 1511 1058 1511 1095.5 1503 c 128,-1,41
 1133 1495 1133 1495 1170.5 1473 c 128,-1,42
 1208 1451 1208 1451 1235 1417.5 c 128,-1,43
 1262 1384 1262 1384 1279 1328.5 c 128,-1,44
 1296 1273 1296 1273 1296 1202 c 0,45,46
 1296 1171 1296 1171 1294 1155 c 1,47,-1
 1166 1155 l 1,0,1
EndSplineSet
EndChar

StartChar: fraction
Encoding: 8260 8260 98
Width: 1177
VWidth: 2982
Flags: W
DStem2: -74 -36 126 -36 0.677362 0.73565<135.472 2127.37>
LayerCount: 3
Fore
SplineSet
1367 1529 m 1
 1567 1529 l 1
 126 -36 l 1
 -74 -36 l 1
 1367 1529 l 1
EndSplineSet
Validated: 1
Layer: 2
SplineSet
1367 1529 m 1,0,-1
 1567 1529 l 1,1,-1
 126 -36 l 1,2,-1
 -74 -36 l 1,3,-1
 1367 1529 l 1,0,-1
EndSplineSet
EndChar

StartChar: yen
Encoding: 165 165 99
Width: 1293
VWidth: 2982
Flags: W
HStem: 0 21G<571 732.211> 380 162<336 651 842 1149> 615 160<387 649 978 1209> 1473 20G<340 532.58 1390.96 1591>
DStem2: 524 1493 340 1493 0.395308 -0.918548<0 708.931> 571 0 728 0 0.207912 0.978148<32.6421 388.329 586.5 628.589> 820 803 978 775 0.649307 0.760526<81.2958 906.556>
LayerCount: 3
Fore
SplineSet
1184 542 m 1
 1149 380 l 1
 808 380 l 1
 728 0 l 1
 571 0 l 1
 651 380 l 1
 302 380 l 1
 336 542 l 1
 685 542 l 1
 701 615 l 1
 354 615 l 1
 387 775 l 1
 649 775 l 1
 340 1493 l 1
 524 1493 l 1
 820 803 l 1
 1408 1493 l 1
 1591 1493 l 1
 978 775 l 1
 1243 775 l 1
 1209 615 l 1
 857 615 l 1
 842 542 l 1
 1184 542 l 1
EndSplineSet
Validated: 1
Layer: 2
SplineSet
1184 542 m 1,0,-1
 1149 380 l 1,1,-1
 808 380 l 1,2,-1
 728 0 l 1,3,-1
 571 0 l 1,4,-1
 651 380 l 1,5,-1
 302 380 l 1,6,-1
 336 542 l 1,7,-1
 685 542 l 1,8,-1
 701 615 l 1,9,-1
 354 615 l 1,10,-1
 387 775 l 1,11,-1
 649 775 l 1,12,-1
 340 1493 l 1,13,-1
 524 1493 l 1,14,-1
 820 803 l 1,15,-1
 1408 1493 l 1,16,-1
 1591 1493 l 1,17,-1
 978 775 l 1,18,-1
 1243 775 l 1,19,-1
 1209 615 l 1,20,-1
 857 615 l 1,21,-1
 842 542 l 1,22,-1
 1184 542 l 1,0,-1
EndSplineSet
EndChar

StartChar: florin
Encoding: 402 402 100
Width: 836
VWidth: 2982
Flags: W
HStem: -161 125<-107 102.278> 745 155<391 495 724 938> 1379 125<997.686 1200>
DStem2: 262 188 412 158 0.385534 0.922693<-175.699 603.77 835.075 1278.76>
LayerCount: 3
Fore
SplineSet
1030 900 m 1
 938 745 l 1
 658 745 l 1
 412 158 l 2
 318 -67 109 -161 -98 -161 c 2
 -134 -161 l 1
 -107 -36 l 1
 -72 -36 l 2
 69 -36 202 44 262 188 c 2
 495 745 l 1
 305 745 l 1
 391 900 l 1
 560 900 l 1
 679 1186 l 2
 773 1413 980 1504 1191 1504 c 2
 1226 1504 l 1
 1200 1379 l 1
 1164 1379 l 2
 1023 1379 891 1299 831 1155 c 2
 724 900 l 1
 1030 900 l 1
EndSplineSet
Validated: 1
Layer: 2
SplineSet
1030 900 m 1,0,-1
 938 745 l 1,1,-1
 658 745 l 1,2,-1
 412 158 l 2,3,4
 345 -2 345 -2 207 -81.5 c 128,-1,5
 69 -161 69 -161 -98 -161 c 2,6,-1
 -134 -161 l 1,7,-1
 -107 -36 l 1,8,-1
 -72 -36 l 2,9,10
 36 -36 36 -36 127 23 c 128,-1,11
 218 82 218 82 262 188 c 2,12,-1
 495 745 l 1,13,-1
 305 745 l 1,14,-1
 391 900 l 1,15,-1
 560 900 l 1,16,-1
 679 1186 l 2,17,18
 724 1295 724 1295 806.5 1368.5 c 128,-1,19
 889 1442 889 1442 985 1473 c 128,-1,20
 1081 1504 1081 1504 1191 1504 c 2,21,-1
 1226 1504 l 1,22,-1
 1200 1379 l 1,23,-1
 1164 1379 l 2,24,25
 1056 1379 1056 1379 965.5 1320 c 128,-1,26
 875 1261 875 1261 831 1155 c 2,27,-1
 724 900 l 1,28,-1
 1030 900 l 1,0,-1
EndSplineSet
EndChar

StartChar: section
Encoding: 167 167 101
Width: 937
VWidth: 2982
Flags: W
HStem: -132 154<353.839 609.291> 1350 154<623.867 875.885>
VStem: 156 162<60.6627 231> 267 160<622.165 818.89> 361 165<1057.98 1257.36> 707 166<114.135 315.092> 806 161<562.364 754.986> 914 163<1147 1312.35>
LayerCount: 3
Fore
SplineSet
873 271 m 0xc4
 873 72 675 -132 440 -132 c 0
 293 -132 156 -43 156 158 c 0
 156 181 164 231 164 231 c 1
 320 231 l 1
 320 231 318 199 318 177 c 0xe4
 318 58 393 22 470 22 c 0
 622 22 707 143 707 228 c 0
 707 414 267 383 267 665 c 0xd4
 267 756 312 873 416 959 c 1
 372 1008 361 1063 361 1108 c 0
 361 1309 560 1504 792 1504 c 0
 940 1504 1077 1417 1077 1218 c 0
 1077 1196 1070 1147 1070 1147 c 1
 912 1147 l 1
 912 1147 914 1173 914 1196 c 0xc9
 914 1335 810 1350 761 1350 c 0
 622 1350 526 1241 526 1144 c 0
 526 959 967 994 967 714 c 0xca
 967 675 959 534 818 416 c 1
 861 367 873 316 873 271 c 0xc4
696 504 m 1
 790 560 806 643 806 671 c 0
 806 777 665 810 534 873 c 1
 448 822 427 743 427 705 c 0xd2
 427 598 571 566 696 504 c 1
EndSplineSet
Validated: 1
Layer: 2
SplineSet
873 271 m 0,0,1
 873 197 873 197 838 124 c 128,-1,2
 803 51 803 51 745 -5.5 c 128,-1,3
 687 -62 687 -62 606.5 -97 c 128,-1,4
 526 -132 526 -132 440 -132 c 0,5,6
 320 -132 320 -132 238 -58 c 128,-1,7
 156 16 156 16 156 158 c 1,8,-1
 164 231 l 1,9,-1
 320 231 l 1,10,11
 318 199 318 199 318 177 c 0,12,13
 318 95 318 95 361 58.5 c 128,-1,14
 404 22 404 22 470 22 c 0,15,16
 575 22 575 22 641 89 c 128,-1,17
 707 156 707 156 707 228 c 0,18,19
 707 265 707 265 682.5 295.5 c 128,-1,20
 658 326 658 326 619.5 347 c 128,-1,21
 581 368 581 368 534 388.5 c 128,-1,22
 487 409 487 409 440 433.5 c 128,-1,23
 393 458 393 458 354.5 487.5 c 128,-1,24
 316 517 316 517 291.5 562.5 c 128,-1,25
 267 608 267 608 267 665 c 0,26,27
 267 739 267 739 304.5 818.5 c 128,-1,28
 342 898 342 898 416 959 c 1,29,30
 361 1020 361 1020 361 1108 c 0,31,32
 361 1207 361 1207 419.5 1298.5 c 128,-1,33
 478 1390 478 1390 578.5 1447 c 128,-1,34
 679 1504 679 1504 792 1504 c 0,35,36
 869 1504 869 1504 932 1475 c 128,-1,37
 995 1446 995 1446 1036 1379.5 c 128,-1,38
 1077 1313 1077 1313 1077 1218 c 1,39,-1
 1070 1147 l 1,40,-1
 912 1147 l 1,41,42
 914 1173 914 1173 914 1196 c 0,43,44
 914 1245 914 1245 898 1278 c 128,-1,45
 882 1311 882 1311 855 1325.5 c 128,-1,46
 828 1340 828 1340 806.5 1345 c 128,-1,47
 785 1350 785 1350 761 1350 c 0,48,49
 661 1350 661 1350 593.5 1285.5 c 128,-1,50
 526 1221 526 1221 526 1144 c 0,51,52
 526 1107 526 1107 550.5 1077 c 128,-1,53
 575 1047 575 1047 613.5 1026.5 c 128,-1,54
 652 1006 652 1006 699 986 c 128,-1,55
 746 966 746 966 793.5 942.5 c 128,-1,56
 841 919 841 919 879.5 890 c 128,-1,57
 918 861 918 861 942.5 816 c 128,-1,58
 967 771 967 771 967 714 c 0,59,60
 967 692 967 692 963 666 c 128,-1,61
 959 640 959 640 946 596.5 c 128,-1,62
 933 553 933 553 900 505 c 128,-1,63
 867 457 867 457 818 416 c 1,64,65
 873 353 873 353 873 271 c 0,0,1
696 504 m 1,66,67
 757 541 757 541 781.5 589 c 128,-1,68
 806 637 806 637 806 671 c 0,69,70
 806 701 806 701 792 725.5 c 128,-1,71
 778 750 778 750 746.5 770.5 c 128,-1,72
 715 791 715 791 688 804.5 c 128,-1,73
 661 818 661 818 611 839 c 128,-1,74
 561 860 561 860 534 873 c 1,75,76
 477 839 477 839 452 791 c 128,-1,77
 427 743 427 743 427 705 c 0,78,79
 427 674 427 674 441.5 649.5 c 128,-1,80
 456 625 456 625 487 605 c 128,-1,81
 518 585 518 585 546 571.5 c 128,-1,82
 574 558 574 558 621.5 537.5 c 128,-1,83
 669 517 669 517 696 504 c 1,66,67
EndSplineSet
EndChar

StartChar: currency
Encoding: 164 164 102
Width: 1301
VWidth: 2982
Flags: W
HStem: 295 164<603.591 917.667> 1068 161<715.754 1028.25>
VStem: 340 166<556.877 861.56> 1128 168<666.33 970.034>
DStem2: 158 316 248 203 0.775409 0.631459<0 290.384 1291.52 1561.33> 504 1305 367 1191 0.617469 -0.786595<5.07857 208.091 1030.81 1252.72>
LayerCount: 3
Fore
SplineSet
340 665 m 0
 340 828 427 961 493 1032 c 1
 367 1191 l 1
 504 1305 l 1
 628 1147 l 1
 716 1198 812 1229 912 1229 c 0
 1014 1229 1102 1196 1164 1139 c 1
 1370 1303 l 1
 1459 1191 l 1
 1262 1025 l 1
 1285 976 1296 922 1296 865 c 0
 1296 701 1211 568 1144 495 c 1
 1278 320 l 1
 1141 205 l 1
 1006 380 l 1
 918 327 818 295 718 295 c 0
 618 295 530 327 466 380 c 1
 248 203 l 1
 158 316 l 1
 376 493 l 1
 352 544 340 602 340 665 c 0
880 1068 m 0
 694 1068 506 897 506 698 c 0
 506 562 604 459 752 459 c 0
 933 459 1128 626 1128 828 c 0
 1128 967 1027 1068 880 1068 c 0
EndSplineSet
Validated: 1
Layer: 2
SplineSet
340 665 m 0,0,1
 340 775 340 775 386 870.5 c 128,-1,2
 432 966 432 966 493 1032 c 1,3,-1
 367 1191 l 1,4,-1
 504 1305 l 1,5,-1
 628 1147 l 1,6,7
 769 1229 769 1229 912 1229 c 0,8,9
 1066 1229 1066 1229 1164 1139 c 1,10,-1
 1370 1303 l 1,11,-1
 1459 1191 l 1,12,-1
 1262 1025 l 1,13,14
 1296 953 1296 953 1296 865 c 0,15,16
 1296 754 1296 754 1251 658 c 128,-1,17
 1206 562 1206 562 1144 495 c 1,18,-1
 1278 320 l 1,19,-1
 1141 205 l 1,20,-1
 1006 380 l 1,21,22
 865 295 865 295 718 295 c 0,23,24
 569 295 569 295 466 380 c 1,25,-1
 248 203 l 1,26,-1
 158 316 l 1,27,-1
 376 493 l 1,28,29
 340 570 340 570 340 665 c 0,0,1
880 1068 m 0,30,31
 788 1068 788 1068 701.5 1017.5 c 128,-1,32
 615 967 615 967 560.5 881 c 128,-1,33
 506 795 506 795 506 698 c 0,34,35
 506 595 506 595 574 527 c 128,-1,36
 642 459 642 459 752 459 c 0,37,38
 842 459 842 459 929 508.5 c 128,-1,39
 1016 558 1016 558 1072 644.5 c 128,-1,40
 1128 731 1128 731 1128 828 c 0,41,42
 1128 933 1128 933 1059 1000.5 c 128,-1,43
 990 1068 990 1068 880 1068 c 0,30,31
EndSplineSet
EndChar

StartChar: quotesingle
Encoding: 39 39 103
Width: 523
VWidth: 2982
Flags: W
HStem: 1128 459<502 566>
VStem: 438 260
LayerCount: 3
Fore
SplineSet
566 1128 m 1
 438 1128 l 1
 502 1587 l 1
 698 1587 l 1
 566 1128 l 1
EndSplineSet
Validated: 1
Layer: 2
SplineSet
566 1128 m 1,0,-1
 438 1128 l 1,1,-1
 502 1587 l 1,2,-1
 698 1587 l 1,3,-1
 566 1128 l 1,0,-1
EndSplineSet
EndChar

StartChar: quotedblleft
Encoding: 8220 8220 104
Width: 737
VWidth: 2982
Flags: W
HStem: 1059 239<521 576.237 784 840.7>
VStem: 363 259<1104.46 1277.99> 624 260<1101.95 1276.29>
LayerCount: 3
Fore
SplineSet
622 1202 m 0
 622 1132 555 1059 477 1059 c 0
 419 1059 363 1094 363 1173 c 0
 363 1226 385 1359 575 1508 c 1
 577 1529 l 1
 754 1529 l 1
 662 1464 l 1
 609 1429 551 1354 521 1298 c 1
 526 1298 l 2
 573 1298 622 1260 622 1202 c 0
884 1198 m 0
 884 1117 803 1057 739 1057 c 0
 683 1057 624 1092 624 1173 c 0
 624 1226 647 1354 837 1506 c 1
 842 1529 l 1
 1019 1529 l 1
 925 1464 l 2
 873 1429 812 1352 784 1296 c 1
 831 1296 884 1258 884 1198 c 0
EndSplineSet
Validated: 1
Layer: 2
SplineSet
622 1202 m 0,0,1
 622 1148 622 1148 578 1103.5 c 128,-1,2
 534 1059 534 1059 477 1059 c 0,3,4
 429 1059 429 1059 396 1088 c 128,-1,5
 363 1117 363 1117 363 1173 c 0,6,7
 363 1198 363 1198 370 1228 c 128,-1,8
 377 1258 377 1258 397 1303 c 128,-1,9
 417 1348 417 1348 462.5 1402 c 128,-1,10
 508 1456 508 1456 575 1508 c 1,11,-1
 577 1529 l 1,12,-1
 754 1529 l 1,13,-1
 662 1464 l 2,14,15
 624 1439 624 1439 584.5 1391 c 128,-1,16
 545 1343 545 1343 521 1298 c 1,17,-1
 526 1298 l 2,18,19
 563 1298 563 1298 592.5 1271 c 128,-1,20
 622 1244 622 1244 622 1202 c 0,0,1
884 1198 m 0,21,22
 884 1140 884 1140 837 1098.5 c 128,-1,23
 790 1057 790 1057 739 1057 c 0,24,25
 692 1057 692 1057 658 1086.5 c 128,-1,26
 624 1116 624 1116 624 1173 c 0,27,28
 624 1198 624 1198 631.5 1227.5 c 128,-1,29
 639 1257 639 1257 658.5 1301 c 128,-1,30
 678 1345 678 1345 724 1399 c 128,-1,31
 770 1453 770 1453 837 1506 c 1,32,-1
 842 1529 l 1,33,-1
 1019 1529 l 1,34,-1
 925 1464 l 2,35,36
 887 1439 887 1439 846.5 1389.5 c 128,-1,37
 806 1340 806 1340 784 1296 c 1,38,39
 822 1296 822 1296 853 1268.5 c 128,-1,40
 884 1241 884 1241 884 1198 c 0,21,22
EndSplineSet
EndChar

StartChar: guillemotleft
Encoding: 171 171 105
Width: 883
VWidth: 2982
Flags: W
DStem2: 361 508 161 508 0.452637 -0.891695<0 351.328> 161 508 361 508 0.68159 0.731734<136.318 538.447> 690 508 491 508 0.450835 -0.892607<0 351.687> 491 508 690 508 0.679594 0.733589<135.239 536.406>
LayerCount: 3
Fore
SplineSet
855 902 m 1
 1055 902 l 1
 690 508 l 1
 886 114 l 1
 690 114 l 1
 491 508 l 1
 855 902 l 1
528 902 m 1
 726 902 l 1
 361 508 l 1
 560 114 l 1
 361 114 l 1
 161 508 l 1
 528 902 l 1
EndSplineSet
Validated: 1
Layer: 2
SplineSet
855 902 m 1,0,-1
 1055 902 l 1,1,-1
 690 508 l 1,2,-1
 886 114 l 1,3,-1
 690 114 l 1,4,-1
 491 508 l 1,5,-1
 855 902 l 1,0,-1
528 902 m 1,6,-1
 726 902 l 1,7,-1
 361 508 l 1,8,-1
 560 114 l 1,9,-1
 361 114 l 1,10,-1
 161 508 l 1,11,-1
 528 902 l 1,6,-1
EndSplineSet
EndChar

StartChar: guilsinglleft
Encoding: 8249 8249 106
Width: 472
VWidth: 2982
Flags: W
VStem: 98 567
DStem2: 297 508 98 508 0.452637 -0.891695<0 351.328> 98 508 297 508 0.682583 0.730808<135.834 539.129>
LayerCount: 3
Fore
SplineSet
466 902 m 1
 665 902 l 1
 297 508 l 1
 497 114 l 1
 297 114 l 1
 98 508 l 1
 466 902 l 1
EndSplineSet
Validated: 1
Layer: 2
SplineSet
466 902 m 1,0,-1
 665 902 l 1,1,-1
 297 508 l 1,2,-1
 497 114 l 1,3,-1
 297 114 l 1,4,-1
 98 508 l 1,5,-1
 466 902 l 1,0,-1
EndSplineSet
EndChar

StartChar: guilsinglright
Encoding: 8250 8250 107
Width: 472
VWidth: 2982
Flags: W
VStem: 27 564
DStem2: 27 114 224 114 0.68159 0.731734<134.273 536.402> 391 902 192 902 0.452637 -0.891695<0 351.328>
LayerCount: 3
Fore
SplineSet
192 902 m 1
 391 902 l 1
 591 508 l 1
 224 114 l 1
 27 114 l 1
 391 508 l 1
 192 902 l 1
EndSplineSet
Validated: 1
Layer: 2
SplineSet
192 902 m 1,0,-1
 391 902 l 1,1,-1
 591 508 l 1,2,-1
 224 114 l 1,3,-1
 27 114 l 1,4,-1
 391 508 l 1,5,-1
 192 902 l 1,0,-1
EndSplineSet
EndChar

StartChar: endash
Encoding: 8211 8211 108
Width: 780
VWidth: 2982
Flags: W
HStem: 427 162<233 765>
VStem: 199 600
LayerCount: 3
Fore
SplineSet
799 589 m 1
 765 427 l 1
 199 427 l 1
 233 589 l 1
 799 589 l 1
EndSplineSet
Validated: 1
Layer: 2
SplineSet
799 589 m 1,0,-1
 765 427 l 1,1,-1
 199 427 l 1,2,-1
 233 589 l 1,3,-1
 799 589 l 1,0,-1
EndSplineSet
EndChar

StartChar: dagger
Encoding: 8224 8224 109
Width: 1168
VWidth: 2982
Flags: W
HStem: 902 166<333 670.84 893.371 1254>
DStem2: 436 -322 598 -322 0.207912 0.978148<33.6817 1270.7 1436.23 1892.05>
LayerCount: 3
Fore
SplineSet
598 -322 m 1
 436 -322 l 1
 714 918 l 1
 299 902 l 1
 333 1068 l 1
 741 1053 l 1
 828 1529 l 1
 991 1529 l 1
 875 1053 l 1
 1290 1068 l 1
 1254 902 l 1
 846 918 l 1
 598 -322 l 1
EndSplineSet
Validated: 1
Layer: 2
SplineSet
598 -322 m 1,0,-1
 436 -322 l 1,1,-1
 714 918 l 1,2,-1
 299 902 l 1,3,-1
 333 1068 l 1,4,-1
 741 1053 l 1,5,-1
 828 1529 l 1,6,-1
 991 1529 l 1,7,-1
 875 1053 l 1,8,-1
 1290 1068 l 1,9,-1
 1254 902 l 1,10,-1
 846 918 l 1,11,-1
 598 -322 l 1,0,-1
EndSplineSet
EndChar

StartChar: daggerdbl
Encoding: 8225 8225 110
Width: 1168
VWidth: 2982
Flags: W
HStem: 226 163<190 568 748.459 1110> 239 135<208.149 568 730 1110> 820 163<316 677.674 857 1235> 835 134<316 696 857 1216.98>
DStem2: 434 -322 598 -322 0.207912 0.978148<34.0975 576.601 742.333 1186.19 1350.74 1892.47>
LayerCount: 3
Fore
SplineSet
598 -322 m 1x40
 434 -322 l 1
 568 239 l 1x40
 154 226 l 1
 190 389 l 1x80
 600 374 l 1
 696 835 l 1x50
 282 820 l 1
 316 983 l 1x20
 724 969 l 1
 828 1529 l 1
 991 1529 l 1
 857 969 l 1x10
 1271 983 l 1
 1235 820 l 1x20
 828 835 l 1
 730 374 l 1x50
 1147 389 l 1
 1110 226 l 1x80
 703 239 l 1
 598 -322 l 1x40
EndSplineSet
Validated: 1
Layer: 2
SplineSet
598 -322 m 1,0,-1
 434 -322 l 1,1,-1
 568 239 l 1,2,-1
 154 226 l 1,3,-1
 190 389 l 1,4,-1
 600 374 l 1,5,-1
 696 835 l 1,6,-1
 282 820 l 1,7,-1
 316 983 l 1,8,-1
 724 969 l 1,9,-1
 828 1529 l 1,10,-1
 991 1529 l 1,11,-1
 857 969 l 1,12,-1
 1271 983 l 1,13,-1
 1235 820 l 1,14,-1
 828 835 l 1,15,-1
 730 374 l 1,16,-1
 1147 389 l 1,17,-1
 1110 226 l 1,18,-1
 703 239 l 1,19,-1
 598 -322 l 1,0,-1
EndSplineSet
EndChar

StartChar: periodcentered
Encoding: 183 183 111
Width: 570
VWidth: 2982
Flags: W
HStem: 626 241<371.002 521.103>
VStem: 325 241<670.21 819.53>
LayerCount: 3
Fore
SplineSet
325 718 m 0
 325 797 399 867 470 867 c 0
 526 867 566 826 566 771 c 0
 566 694 495 626 421 626 c 0
 363 626 325 667 325 718 c 0
EndSplineSet
Validated: 1
Layer: 2
SplineSet
325 718 m 0,0,1
 325 776 325 776 370.5 821.5 c 128,-1,2
 416 867 416 867 470 867 c 0,3,4
 512 867 512 867 539 839.5 c 128,-1,5
 566 812 566 812 566 771 c 0,6,7
 566 714 566 714 521.5 670 c 128,-1,8
 477 626 477 626 421 626 c 0,9,10
 378 626 378 626 351.5 652.5 c 128,-1,11
 325 679 325 679 325 718 c 0,0,1
EndSplineSet
EndChar

StartChar: paragraph
Encoding: 182 182 112
Width: 1295
VWidth: 2982
Flags: W
HStem: 1337 154<1179 1283>
DStem2: 687 -242 844 -242 0.207912 0.978148<32.6421 681.74> 947 -242 1104 -242 0.207912 0.978148<32.6421 1614.35>
LayerCount: 3
Fore
SplineSet
307 853 m 0
 307 1144 585 1491 1070 1491 c 2
 1473 1491 l 1
 1104 -242 l 1
 947 -242 l 1
 1283 1337 l 1
 1179 1337 l 1
 844 -242 l 1
 687 -242 l 1
 828 425 l 1
 474 430 307 626 307 853 c 0
EndSplineSet
Validated: 1
Layer: 2
SplineSet
307 853 m 0,0,1
 307 941 307 941 339 1031 c 128,-1,2
 371 1121 371 1121 436.5 1203.5 c 128,-1,3
 502 1286 502 1286 591.5 1350 c 128,-1,4
 681 1414 681 1414 805 1452.5 c 128,-1,5
 929 1491 929 1491 1070 1491 c 2,6,-1
 1473 1491 l 1,7,-1
 1104 -242 l 1,8,-1
 947 -242 l 1,9,-1
 1283 1337 l 1,10,-1
 1179 1337 l 1,11,-1
 844 -242 l 1,12,-1
 687 -242 l 1,13,-1
 828 425 l 1,14,15
 575 429 575 429 441 550.5 c 128,-1,16
 307 672 307 672 307 853 c 0,0,1
EndSplineSet
EndChar

StartChar: bullet
Encoding: 8226 8226 113
Width: 989
VWidth: 2982
Flags: W
HStem: 203 788<524.688 720.312>
VStem: 226 793<496.538 697.374>
LayerCount: 3
Fore
SplineSet
226 513 m 0
 226 752 455 991 705 991 c 0
 891 991 1019 857 1019 681 c 0
 1019 444 790 203 540 203 c 0
 354 203 226 336 226 513 c 0
EndSplineSet
Validated: 1
Layer: 2
SplineSet
226 513 m 0,0,1
 226 631 226 631 293 742 c 128,-1,2
 360 853 360 853 471.5 922 c 128,-1,3
 583 991 583 991 705 991 c 0,4,5
 843 991 843 991 931 902.5 c 128,-1,6
 1019 814 1019 814 1019 681 c 0,7,8
 1019 564 1019 564 952 453 c 128,-1,9
 885 342 885 342 773.5 272.5 c 128,-1,10
 662 203 662 203 540 203 c 0,11,12
 402 203 402 203 314 291 c 128,-1,13
 226 379 226 379 226 513 c 0,0,1
EndSplineSet
EndChar

StartChar: quotesinglbase
Encoding: 8218 8218 114
Width: 570
VWidth: 2982
Flags: W
HStem: -278 466
VStem: 179 261<-29.5197 143.54>
LayerCount: 3
Fore
SplineSet
179 45 m 0
 179 130 262 188 327 188 c 0
 387 188 440 148 440 69 c 0
 440 -81 267 -242 211 -271 c 1
 188 -278 l 1
 43 -278 l 1
 134 -215 l 2
 188 -177 244 -107 275 -51 c 1
 220 -49 179 -9 179 45 c 0
EndSplineSet
Validated: 1
Layer: 2
SplineSet
179 45 m 0,0,1
 179 105 179 105 226.5 146.5 c 128,-1,2
 274 188 274 188 327 188 c 0,3,4
 375 188 375 188 407.5 157 c 128,-1,5
 440 126 440 126 440 69 c 0,6,7
 440 16 440 16 412.5 -42.5 c 128,-1,8
 385 -101 385 -101 346 -147 c 128,-1,9
 307 -193 307 -193 270.5 -226 c 128,-1,10
 234 -259 234 -259 211 -271 c 1,11,-1
 188 -278 l 1,12,-1
 43 -278 l 1,13,-1
 134 -215 l 2,14,15
 173 -188 173 -188 211.5 -142 c 128,-1,16
 250 -96 250 -96 275 -51 c 1,17,18
 234 -49 234 -49 206.5 -22 c 128,-1,19
 179 5 179 5 179 45 c 0,0,1
EndSplineSet
EndChar

StartChar: quotedblbase
Encoding: 8222 8222 115
Width: 839
VWidth: 2982
Flags: W
HStem: -51 239<224.341 275 492.453 544>
VStem: 179 261<-29.5197 143.54> 448 261<-36.4404 143.54>
LayerCount: 3
Fore
SplineSet
448 45 m 0
 448 130 530 188 596 188 c 0
 656 188 709 148 709 69 c 0
 709 -81 534 -242 479 -271 c 1
 457 -278 l 1
 312 -278 l 1
 403 -215 l 2
 457 -177 513 -107 544 -51 c 1
 487 -49 448 -9 448 45 c 0
179 45 m 0
 179 130 262 188 327 188 c 0
 387 188 440 148 440 69 c 0
 440 -81 267 -242 211 -271 c 1
 188 -278 l 1
 43 -278 l 1
 134 -215 l 2
 188 -177 244 -107 275 -51 c 1
 220 -49 179 -9 179 45 c 0
EndSplineSet
Validated: 1
Layer: 2
SplineSet
448 45 m 0,0,1
 448 105 448 105 495.5 146.5 c 128,-1,2
 543 188 543 188 596 188 c 0,3,4
 644 188 644 188 676.5 157 c 128,-1,5
 709 126 709 126 709 69 c 0,6,7
 709 1 709 1 661.5 -77.5 c 128,-1,8
 614 -156 614 -156 563 -204.5 c 128,-1,9
 512 -253 512 -253 479 -271 c 1,10,-1
 457 -278 l 1,11,-1
 312 -278 l 1,12,-1
 403 -215 l 2,13,14
 442 -188 442 -188 480.5 -142 c 128,-1,15
 519 -96 519 -96 544 -51 c 1,16,17
 501 -50 501 -50 474.5 -23 c 128,-1,18
 448 4 448 4 448 45 c 0,0,1
179 45 m 0,19,20
 179 105 179 105 226.5 146.5 c 128,-1,21
 274 188 274 188 327 188 c 0,22,23
 375 188 375 188 407.5 157 c 128,-1,24
 440 126 440 126 440 69 c 0,25,26
 440 16 440 16 412.5 -42.5 c 128,-1,27
 385 -101 385 -101 346 -147 c 128,-1,28
 307 -193 307 -193 270.5 -226 c 128,-1,29
 234 -259 234 -259 211 -271 c 1,30,-1
 188 -278 l 1,31,-1
 43 -278 l 1,32,-1
 134 -215 l 2,33,34
 173 -188 173 -188 211.5 -142 c 128,-1,35
 250 -96 250 -96 275 -51 c 1,36,37
 234 -49 234 -49 206.5 -22 c 128,-1,38
 179 5 179 5 179 45 c 0,19,20
EndSplineSet
EndChar

StartChar: quotedblright
Encoding: 8221 8221 116
Width: 739
VWidth: 2982
Flags: W
HStem: 1288 237<449.143 506 716.056 771>
VStem: 403 262<1306.63 1478.13> 669 262<1309.12 1478.31>
LayerCount: 3
Fore
SplineSet
669 1384 m 0
 669 1464 752 1525 818 1525 c 0
 873 1525 931 1489 931 1408 c 0
 931 1258 759 1094 701 1066 c 1
 679 1059 l 1
 530 1059 l 1
 628 1124 l 2
 683 1160 743 1231 771 1288 c 1
 765 1288 l 2
 718 1288 669 1325 669 1384 c 0
403 1386 m 0
 403 1453 474 1525 551 1525 c 0
 607 1525 665 1489 665 1408 c 0
 665 1220 436 1066 436 1066 c 1
 414 1059 l 1
 267 1059 l 1
 363 1124 l 1
 419 1160 477 1231 506 1288 c 1
 502 1288 l 2
 453 1288 403 1325 403 1386 c 0
EndSplineSet
Validated: 1
Layer: 2
SplineSet
669 1384 m 0,0,1
 669 1441 669 1441 717 1483 c 128,-1,2
 765 1525 765 1525 818 1525 c 0,3,4
 864 1525 864 1525 897.5 1495 c 128,-1,5
 931 1465 931 1465 931 1408 c 0,6,7
 931 1309 931 1309 846 1202 c 128,-1,8
 761 1095 761 1095 701 1066 c 1,9,-1
 679 1059 l 1,10,-1
 530 1059 l 1,11,-1
 628 1124 l 2,12,13
 668 1150 668 1150 709 1197 c 128,-1,14
 750 1244 750 1244 771 1288 c 1,15,-1
 765 1288 l 2,16,17
 728 1288 728 1288 698.5 1315 c 128,-1,18
 669 1342 669 1342 669 1384 c 0,0,1
403 1386 m 0,19,20
 403 1437 403 1437 448.5 1481 c 128,-1,21
 494 1525 494 1525 551 1525 c 0,22,23
 597 1525 597 1525 631 1495 c 128,-1,24
 665 1465 665 1465 665 1408 c 0,25,26
 665 1370 665 1370 652.5 1330 c 128,-1,27
 640 1290 640 1290 619.5 1257.5 c 128,-1,28
 599 1225 599 1225 574.5 1194.5 c 128,-1,29
 550 1164 550 1164 526 1141 c 128,-1,30
 502 1118 502 1118 481.5 1101 c 128,-1,31
 461 1084 461 1084 448.5 1075 c 2,32,-1
 436 1066 l 1,33,-1
 414 1059 l 1,34,-1
 267 1059 l 1,35,-1
 363 1124 l 2,36,37
 403 1150 403 1150 443 1196.5 c 128,-1,38
 483 1243 483 1243 506 1288 c 1,39,-1
 502 1288 l 2,40,41
 463 1288 463 1288 433 1315 c 128,-1,42
 403 1342 403 1342 403 1386 c 0,19,20
EndSplineSet
EndChar

StartChar: guillemotright
Encoding: 187 187 117
Width: 883
VWidth: 2982
Flags: W
DStem2: 47 114 246 114 0.68159 0.731734<135.636 538.447> 414 902 215 902 0.450835 -0.892607<0 351.687> 376 114 575 114 0.68159 0.731734<135.636 538.447> 743 902 544 902 0.450835 -0.892607<0 351.687>
LayerCount: 3
Fore
SplineSet
215 902 m 1
 414 902 l 1
 613 508 l 1
 246 114 l 1
 47 114 l 1
 414 508 l 1
 215 902 l 1
544 902 m 1
 743 902 l 1
 940 508 l 1
 575 114 l 1
 376 114 l 1
 743 508 l 1
 544 902 l 1
EndSplineSet
Validated: 1
Layer: 2
SplineSet
215 902 m 1,0,-1
 414 902 l 1,1,-1
 613 508 l 1,2,-1
 246 114 l 1,3,-1
 47 114 l 1,4,-1
 414 508 l 1,5,-1
 215 902 l 1,0,-1
544 902 m 1,6,-1
 743 902 l 1,7,-1
 940 508 l 1,8,-1
 575 114 l 1,9,-1
 376 114 l 1,10,-1
 743 508 l 1,11,-1
 544 902 l 1,6,-1
EndSplineSet
EndChar

StartChar: ellipsis
Encoding: 8230 8230 118
Width: 1765
VWidth: 2982
Flags: W
HStem: -51 239<224.341 376.058 822.959 976.058 1419.4 1571.38>
VStem: 179 244<-5.44687 143.54> 779 244<-5.44687 143.54> 1374 243<-3.625 141.465>
LayerCount: 3
Fore
SplineSet
179 45 m 0
 179 130 262 188 327 188 c 0
 383 188 423 148 423 94 c 0
 423 9 340 -51 275 -51 c 0
 220 -51 179 -11 179 45 c 0
1374 43 m 0
 1374 119 1446 188 1520 188 c 0
 1576 188 1617 148 1617 94 c 0
 1617 27 1553 -51 1468 -51 c 0
 1412 -51 1374 -11 1374 43 c 0
779 45 m 0
 779 130 861 188 927 188 c 0
 983 188 1023 148 1023 94 c 0
 1023 9 940 -51 875 -51 c 0
 820 -51 779 -11 779 45 c 0
EndSplineSet
Validated: 1
Layer: 2
SplineSet
179 45 m 0,0,1
 179 105 179 105 226.5 146.5 c 128,-1,2
 274 188 274 188 327 188 c 0,3,4
 369 188 369 188 396 161.5 c 128,-1,5
 423 135 423 135 423 94 c 0,6,7
 423 34 423 34 375.5 -8.5 c 128,-1,8
 328 -51 328 -51 275 -51 c 0,9,10
 234 -51 234 -51 206.5 -24 c 128,-1,11
 179 3 179 3 179 45 c 0,0,1
1374 43 m 0,12,13
 1374 100 1374 100 1419 144 c 128,-1,14
 1464 188 1464 188 1520 188 c 0,15,16
 1562 188 1562 188 1589.5 161.5 c 128,-1,17
 1617 135 1617 135 1617 94 c 0,18,19
 1617 41 1617 41 1573 -5 c 128,-1,20
 1529 -51 1529 -51 1468 -51 c 0,21,22
 1426 -51 1426 -51 1400 -24.5 c 128,-1,23
 1374 2 1374 2 1374 43 c 0,12,13
779 45 m 0,24,25
 779 105 779 105 826.5 146.5 c 128,-1,26
 874 188 874 188 927 188 c 0,27,28
 969 188 969 188 996 161.5 c 128,-1,29
 1023 135 1023 135 1023 94 c 0,30,31
 1023 34 1023 34 975.5 -8.5 c 128,-1,32
 928 -51 928 -51 875 -51 c 0,33,34
 834 -51 834 -51 806.5 -24 c 128,-1,35
 779 3 779 3 779 45 c 0,24,25
EndSplineSet
EndChar

StartChar: perthousand
Encoding: 8240 8240 119
Width: 2213
VWidth: 2982
Flags: W
HStem: -56 163<1026.96 1246.63 1768.1 1994.21> 438 164<1075.95 1302.88 1824.26 2043.7> 880 165<481.248 709.431> 1372 166<535.524 761.067>
VStem: 286 164<1078.55 1288.49> 792 163<1126.81 1339.07> 828 163<143.813 353.69> 1335 162<194.195 404.394> 1574 163<139.746 351.051> 2080 163<191.282 400.806>
DStem2: 69 -45 269 -45 0.678124 0.734947<135.625 2129.4>
LayerCount: 3
Fore
SplineSet
1497 342 m 0xfbc0
 1497 143 1305 -54 1092 -54 c 0
 936 -54 828 58 828 205 c 0
 828 403 1016 602 1233 602 c 0
 1390 602 1497 493 1497 342 c 0xfbc0
1198 438 m 0
 1092 438 991 346 991 239 c 0
 991 166 1047 109 1128 109 c 0
 1243 109 1335 213 1335 312 c 0
 1335 383 1278 438 1198 438 c 0
2243 338 m 0
 2243 143 2055 -56 1837 -56 c 0
 1681 -56 1574 54 1574 201 c 0
 1574 403 1766 600 1978 600 c 0
 2136 600 2243 487 2243 338 c 0
1943 436 m 0
 1837 436 1737 342 1737 235 c 0
 1737 164 1793 107 1873 107 c 0
 1976 107 2080 199 2080 307 c 0
 2080 380 2023 436 1943 436 c 0
955 1276 m 0xfdc0
 955 1068 754 880 551 880 c 0
 393 880 286 991 286 1139 c 0
 286 1341 479 1538 692 1538 c 0
 848 1538 955 1426 955 1276 c 0xfdc0
656 1372 m 0
 560 1372 450 1288 450 1173 c 0
 450 1102 506 1045 587 1045 c 0
 683 1045 792 1130 792 1245 c 0
 792 1316 737 1372 656 1372 c 0
1513 1520 m 1
 1713 1520 l 1
 269 -45 l 1
 69 -45 l 1
 1513 1520 l 1
EndSplineSet
Validated: 1
Layer: 2
SplineSet
1497 342 m 0,0,1
 1497 269 1497 269 1463.5 196.5 c 128,-1,2
 1430 124 1430 124 1375 69 c 128,-1,3
 1320 14 1320 14 1245 -20 c 128,-1,4
 1170 -54 1170 -54 1092 -54 c 0,5,6
 976 -54 976 -54 902 20 c 128,-1,7
 828 94 828 94 828 205 c 0,8,9
 828 303 828 303 883.5 395 c 128,-1,10
 939 487 939 487 1033.5 544.5 c 128,-1,11
 1128 602 1128 602 1233 602 c 0,12,13
 1350 602 1350 602 1423.5 529 c 128,-1,14
 1497 456 1497 456 1497 342 c 0,0,1
1198 438 m 0,15,16
 1118 438 1118 438 1054.5 378 c 128,-1,17
 991 318 991 318 991 239 c 0,18,19
 991 184 991 184 1029.5 146.5 c 128,-1,20
 1068 109 1068 109 1128 109 c 0,21,22
 1212 109 1212 109 1273.5 172 c 128,-1,23
 1335 235 1335 235 1335 312 c 0,24,25
 1335 366 1335 366 1296.5 402 c 128,-1,26
 1258 438 1258 438 1198 438 c 0,15,16
2243 338 m 0,27,28
 2243 241 2243 241 2187.5 150 c 128,-1,29
 2132 59 2132 59 2037.5 1.5 c 128,-1,30
 1943 -56 1943 -56 1837 -56 c 0,31,32
 1721 -56 1721 -56 1647.5 17 c 128,-1,33
 1574 90 1574 90 1574 201 c 0,34,35
 1574 300 1574 300 1630 392.5 c 128,-1,36
 1686 485 1686 485 1780.5 542.5 c 128,-1,37
 1875 600 1875 600 1978 600 c 0,38,39
 2095 600 2095 600 2169 525.5 c 128,-1,40
 2243 451 2243 451 2243 338 c 0,27,28
1943 436 m 0,41,42
 1863 436 1863 436 1800 375.5 c 128,-1,43
 1737 315 1737 315 1737 235 c 0,44,45
 1737 181 1737 181 1775.5 144 c 128,-1,46
 1814 107 1814 107 1873 107 c 0,47,48
 1952 107 1952 107 2016 167 c 128,-1,49
 2080 227 2080 227 2080 307 c 0,50,51
 2080 362 2080 362 2041.5 399 c 128,-1,52
 2003 436 2003 436 1943 436 c 0,41,42
955 1276 m 0,53,54
 955 1175 955 1175 896.5 1082.5 c 128,-1,55
 838 990 838 990 744.5 935 c 128,-1,56
 651 880 651 880 551 880 c 0,57,58
 434 880 434 880 360 953.5 c 128,-1,59
 286 1027 286 1027 286 1139 c 0,60,61
 286 1238 286 1238 342.5 1330.5 c 128,-1,62
 399 1423 399 1423 493.5 1480.5 c 128,-1,63
 588 1538 588 1538 692 1538 c 0,64,65
 808 1538 808 1538 881.5 1463.5 c 128,-1,66
 955 1389 955 1389 955 1276 c 0,53,54
656 1372 m 0,67,68
 580 1372 580 1372 515 1314 c 128,-1,69
 450 1256 450 1256 450 1173 c 0,70,71
 450 1119 450 1119 488.5 1082 c 128,-1,72
 527 1045 527 1045 587 1045 c 0,73,74
 663 1045 663 1045 727.5 1103.5 c 128,-1,75
 792 1162 792 1162 792 1245 c 0,76,77
 792 1299 792 1299 754 1335.5 c 128,-1,78
 716 1372 716 1372 656 1372 c 0,67,68
1513 1520 m 1,79,-1
 1713 1520 l 1,80,-1
 269 -45 l 1,81,-1
 69 -45 l 1,82,-1
 1513 1520 l 1,79,-1
EndSplineSet
EndChar

StartChar: questiondown
Encoding: 191 191 120
Width: 1089
VWidth: 2982
Flags: W
HStem: -564 161<304.623 608.14> 790 240<693.942 843.806>
VStem: 72 163<-337.197 -79.1864> 647 244<835.341 983.271> 786 161<-242.695 -116>
DStem2: 373.376 -564 534.376 -564 0.207912 0.978148<938.628 1299.28>
LayerCount: 3
Fore
SplineSet
891 936 m 0xf0
 891 869 828 790 743 790 c 0
 687 790 647 831 647 886 c 0
 647 967 730 1030 795 1030 c 0
 850 1030 891 989 891 936 c 0xf0
643 707 m 1
 803 707 l 1
 765 521 l 1
 681 116 235 49 235 -211 c 0
 235 -329 318 -403 438 -403 c 0
 615 -403 761 -267 786 -152 c 1
 792 -116 l 1
 953 -116 l 1
 947 -152 l 1xe8
 900 -372 654 -564 406 -564 c 0
 201 -564 72 -434 72 -244 c 0
 72 126 534 199 604 521 c 1
 643 707 l 1
EndSplineSet
Validated: 1
Layer: 2
SplineSet
891 936 m 0,0,1
 891 883 891 883 847.5 836.5 c 128,-1,2
 804 790 804 790 743 790 c 0,3,4
 701 790 701 790 674 817.5 c 128,-1,5
 647 845 647 845 647 886 c 0,6,7
 647 944 647 944 695 987 c 128,-1,8
 743 1030 743 1030 795 1030 c 0,9,10
 836 1030 836 1030 863.5 1003 c 128,-1,11
 891 976 891 976 891 936 c 0,0,1
643 707 m 1,12,-1
 803 707 l 1,13,-1
 765 521 l 2,14,15
 748 439 748 439 709.5 367 c 128,-1,16
 671 295 671 295 623 243.5 c 128,-1,17
 575 192 575 192 521 145.5 c 128,-1,18
 467 99 467 99 417 58.5 c 128,-1,19
 367 18 367 18 326 -22.5 c 128,-1,20
 285 -63 285 -63 260 -110.5 c 128,-1,21
 235 -158 235 -158 235 -211 c 0,22,23
 235 -299 235 -299 291 -351 c 128,-1,24
 347 -403 347 -403 438 -403 c 0,25,26
 564 -403 564 -403 665 -324 c 128,-1,27
 766 -245 766 -245 786 -152 c 1,28,-1
 792 -116 l 1,29,-1
 953 -116 l 1,30,-1
 947 -152 l 1,31,32
 924 -260 924 -260 842.5 -355 c 128,-1,33
 761 -450 761 -450 644 -507 c 128,-1,34
 527 -564 527 -564 406 -564 c 0,35,36
 253 -564 253 -564 162.5 -476 c 128,-1,37
 72 -388 72 -388 72 -244 c 0,38,39
 72 -169 72 -169 97.5 -103 c 128,-1,40
 123 -37 123 -37 165.5 13.5 c 128,-1,41
 208 64 208 64 259.5 110.5 c 128,-1,42
 311 157 311 157 365.5 202 c 128,-1,43
 420 247 420 247 467.5 292.5 c 128,-1,44
 515 338 515 338 552.5 397 c 128,-1,45
 590 456 590 456 604 521 c 2,46,-1
 643 707 l 1,12,-1
EndSplineSet
EndChar

StartChar: grave
Encoding: 96 96 121
Width: 425
VWidth: 2982
Flags: W
HStem: 1194 364<446 542>
VStem: 344 243
LayerCount: 3
Fore
SplineSet
587 1194 m 1
 446 1194 l 1
 344 1558 l 1
 542 1558 l 1
 587 1194 l 1
EndSplineSet
Validated: 1
Layer: 2
SplineSet
587 1194 m 1,0,-1
 446 1194 l 1,1,-1
 344 1558 l 1,2,-1
 542 1558 l 1,3,-1
 587 1194 l 1,0,-1
EndSplineSet
EndChar

StartChar: acute
Encoding: 180 180 122
Width: 630
VWidth: 2982
Flags: W
HStem: 1157 430
VStem: 385 625
LayerCount: 3
Fore
SplineSet
748 1587 m 1
 1010 1587 l 1
 573 1157 l 1
 385 1157 l 1
 748 1587 l 1
EndSplineSet
Validated: 1
Layer: 2
SplineSet
748 1587 m 1,0,-1
 1010 1587 l 1,1,-1
 573 1157 l 1,2,-1
 385 1157 l 1,3,-1
 748 1587 l 1,0,-1
EndSplineSet
EndChar

StartChar: circumflex
Encoding: 710 710 123
Width: 690
VWidth: 2982
Flags: W
HStem: 1426 338
DStem2: 293 1426 513 1426 0.745448 0.666564<163.998 387.885>
LayerCount: 3
Fore
SplineSet
671 1764 m 1
 771 1764 l 1
 1006 1426 l 1
 786 1426 l 1
 681 1574 l 1
 513 1426 l 1
 293 1426 l 1
 671 1764 l 1
EndSplineSet
Validated: 1
Layer: 2
SplineSet
671 1764 m 1,0,-1
 771 1764 l 1,1,-1
 1006 1426 l 1,2,-1
 786 1426 l 1,3,-1
 681 1574 l 1,4,-1
 513 1426 l 1,5,-1
 293 1426 l 1,6,-1
 671 1764 l 1,0,-1
EndSplineSet
EndChar

StartChar: tilde
Encoding: 732 732 124
Width: 648
VWidth: 2982
Flags: W
HStem: 1269 164<681.437 796.281> 1379 159<452.594 572.873>
VStem: 810 121<1439 1525>
LayerCount: 3
Fore
SplineSet
318 1323 m 1x60
 356 1504 461 1538 526 1538 c 0x60
 638 1538 709 1437 763 1433 c 0
 771 1433 792 1444 801 1489 c 1
 810 1525 l 1
 940 1525 l 1
 931 1489 l 1
 897 1325 824 1269 730 1269 c 0xa0
 622 1269 542 1379 493 1379 c 0
 474 1379 459 1363 448 1320 c 1
 438 1288 l 1
 309 1288 l 1
 318 1323 l 1x60
EndSplineSet
Validated: 1
Layer: 2
SplineSet
318 1323 m 1,0,1
 331 1387 331 1387 356.5 1432.5 c 128,-1,2
 382 1478 382 1478 412.5 1499 c 128,-1,3
 443 1520 443 1520 470.5 1529 c 128,-1,4
 498 1538 498 1538 526 1538 c 0,5,6
 574 1538 574 1538 621.5 1512.5 c 128,-1,7
 669 1487 669 1487 705.5 1461 c 128,-1,8
 742 1435 742 1435 763 1433 c 0,9,10
 768 1433 768 1433 774.5 1437 c 128,-1,11
 781 1441 781 1441 789 1454.5 c 128,-1,12
 797 1468 797 1468 801 1489 c 2,13,-1
 810 1525 l 1,14,-1
 940 1525 l 1,15,-1
 931 1489 l 1,16,17
 907 1372 907 1372 856 1320.5 c 128,-1,18
 805 1269 805 1269 730 1269 c 0,19,20
 683 1269 683 1269 634.5 1296.5 c 128,-1,21
 586 1324 586 1324 549 1351.5 c 128,-1,22
 512 1379 512 1379 493 1379 c 0,23,24
 463 1379 463 1379 448 1320 c 2,25,-1
 438 1288 l 1,26,-1
 309 1288 l 1,27,-1
 318 1323 l 1,0,1
EndSplineSet
EndChar

StartChar: macron
Encoding: 175 175 125
Width: 899
VWidth: 2982
Flags: W
HStem: 1173 162<391 1043>
LayerCount: 3
Fore
SplineSet
1077 1335 m 1
 1043 1173 l 1
 356 1173 l 1
 391 1335 l 1
 1077 1335 l 1
EndSplineSet
Validated: 1
Layer: 2
SplineSet
1077 1335 m 1,0,-1
 1043 1173 l 1,1,-1
 356 1173 l 1,2,-1
 391 1335 l 1,3,-1
 1077 1335 l 1,0,-1
EndSplineSet
EndChar

StartChar: dotaccent
Encoding: 729 729 126
Width: 570
VWidth: 2982
Flags: W
HStem: 1202 240<490.453 644.377>
VStem: 446 244<1247.34 1397.22>
LayerCount: 3
Fore
SplineSet
446 1298 m 0
 446 1384 528 1442 593 1442 c 0
 649 1442 690 1401 690 1348 c 0
 690 1280 626 1202 542 1202 c 0
 485 1202 446 1243 446 1298 c 0
EndSplineSet
Validated: 1
Layer: 2
SplineSet
446 1298 m 0,0,1
 446 1359 446 1359 493 1400.5 c 128,-1,2
 540 1442 540 1442 593 1442 c 0,3,4
 635 1442 635 1442 662.5 1415 c 128,-1,5
 690 1388 690 1388 690 1348 c 0,6,7
 690 1294 690 1294 646.5 1248 c 128,-1,8
 603 1202 603 1202 542 1202 c 0,9,10
 500 1202 500 1202 473 1229 c 128,-1,11
 446 1256 446 1256 446 1298 c 0,0,1
EndSplineSet
EndChar

StartChar: dieresis
Encoding: 168 168 127
Width: 666
VWidth: 2982
Flags: W
HStem: 1173 239<355 504.998 713.002 862.442>
VStem: 309 242<1219.92 1365.19> 667 241<1218.68 1365.19>
LayerCount: 3
Fore
SplineSet
309 1265 m 0
 309 1343 383 1412 455 1412 c 0
 513 1412 551 1372 551 1318 c 0
 551 1243 479 1173 406 1173 c 0
 346 1173 309 1213 309 1265 c 0
667 1265 m 0
 667 1343 741 1412 812 1412 c 0
 871 1412 908 1372 908 1318 c 0
 908 1243 837 1173 763 1173 c 0
 705 1173 667 1213 667 1265 c 0
EndSplineSet
Validated: 1
Layer: 2
SplineSet
309 1265 m 0,0,1
 309 1323 309 1323 354.5 1367.5 c 128,-1,2
 400 1412 400 1412 455 1412 c 0,3,4
 498 1412 498 1412 524.5 1385.5 c 128,-1,5
 551 1359 551 1359 551 1318 c 0,6,7
 551 1262 551 1262 506 1217.5 c 128,-1,8
 461 1173 461 1173 406 1173 c 0,9,10
 362 1173 362 1173 335.5 1199 c 128,-1,11
 309 1225 309 1225 309 1265 c 0,0,1
667 1265 m 0,12,13
 667 1323 667 1323 712.5 1367.5 c 128,-1,14
 758 1412 758 1412 812 1412 c 0,15,16
 856 1412 856 1412 882 1385.5 c 128,-1,17
 908 1359 908 1359 908 1318 c 0,18,19
 908 1262 908 1262 863.5 1217.5 c 128,-1,20
 819 1173 819 1173 763 1173 c 0,21,22
 720 1173 720 1173 693.5 1199 c 128,-1,23
 667 1225 667 1225 667 1265 c 0,12,13
EndSplineSet
EndChar

StartChar: ring
Encoding: 730 730 128
Width: 570
VWidth: 2982
Flags: W
HStem: 1085 162<483.96 637.266> 1426 161<503.79 656.792>
VStem: 316 163<1253.1 1401.32> 662 164<1272.85 1419.88>
LayerCount: 3
Fore
SplineSet
826 1388 m 0
 826 1243 687 1085 517 1085 c 0
 396 1085 316 1171 316 1285 c 0
 316 1431 455 1587 624 1587 c 0
 745 1587 826 1502 826 1388 c 0
589 1426 m 0
 530 1426 479 1370 479 1318 c 0
 479 1278 510 1247 551 1247 c 0
 598 1247 662 1294 662 1354 c 0
 662 1395 632 1426 589 1426 c 0
EndSplineSet
Validated: 1
Layer: 2
SplineSet
826 1388 m 0,0,1
 826 1276 826 1276 733.5 1180.5 c 128,-1,2
 641 1085 641 1085 517 1085 c 0,3,4
 427 1085 427 1085 371.5 1141.5 c 128,-1,5
 316 1198 316 1198 316 1285 c 0,6,7
 316 1398 316 1398 408.5 1492.5 c 128,-1,8
 501 1587 501 1587 624 1587 c 0,9,10
 714 1587 714 1587 770 1530.5 c 128,-1,11
 826 1474 826 1474 826 1388 c 0,0,1
589 1426 m 0,12,13
 546 1426 546 1426 512.5 1392 c 128,-1,14
 479 1358 479 1358 479 1318 c 0,15,16
 479 1288 479 1288 499.5 1267.5 c 128,-1,17
 520 1247 520 1247 551 1247 c 0,18,19
 589 1247 589 1247 625.5 1279 c 128,-1,20
 662 1311 662 1311 662 1354 c 0,21,22
 662 1385 662 1385 641.5 1405.5 c 128,-1,23
 621 1426 621 1426 589 1426 c 0,12,13
EndSplineSet
EndChar

StartChar: cedilla
Encoding: 184 184 129
Width: 624
VWidth: 2982
Flags: W
HStem: -459 160<91.0429 297.925>
VStem: 299 169<-295.647 -197.5>
LayerCount: 3
Fore
SplineSet
468 -220 m 0
 468 -344 361 -457 199 -459 c 0
 143 -459 85 -444 38 -406 c 1
 11 -387 l 1
 128 -250 l 1
 152 -271 l 1
 179 -291 211 -299 237 -299 c 0
 269 -299 299 -289 299 -267 c 0
 299 -255 280 -242 233 -233 c 1
 116 -218 l 1
 297 11 l 1
 463 11 l 1
 380 -96 l 1
 450 -124 468 -175 468 -220 c 0
EndSplineSet
Validated: 1
Layer: 2
SplineSet
468 -220 m 0,0,1
 468 -316 468 -316 392.5 -387 c 128,-1,2
 317 -458 317 -458 199 -459 c 0,3,4
 104 -459 104 -459 38 -406 c 1,5,-1
 11 -387 l 1,6,-1
 128 -250 l 1,7,-1
 152 -271 l 2,8,9
 190 -299 190 -299 237 -299 c 0,10,11
 263 -299 263 -299 281 -291 c 128,-1,12
 299 -283 299 -283 299 -267 c 0,13,14
 299 -246 299 -246 233 -233 c 1,15,-1
 116 -218 l 1,16,-1
 297 11 l 1,17,-1
 463 11 l 1,18,-1
 380 -96 l 1,19,20
 468 -131 468 -131 468 -220 c 0,0,1
EndSplineSet
EndChar

StartChar: hungarumlaut
Encoding: 733 733 130
Width: 1017
VWidth: 2982
Flags: W
HStem: 1157 430
LayerCount: 3
Fore
SplineSet
748 1587 m 1
 1010 1587 l 1
 573 1157 l 1
 385 1157 l 1
 748 1587 l 1
1135 1587 m 1
 1397 1587 l 1
 963 1157 l 1
 773 1157 l 1
 1135 1587 l 1
EndSplineSet
Validated: 1
Layer: 2
SplineSet
748 1587 m 1,0,-1
 1010 1587 l 1,1,-1
 573 1157 l 1,2,-1
 385 1157 l 1,3,-1
 748 1587 l 1,0,-1
1135 1587 m 1,4,-1
 1397 1587 l 1,5,-1
 963 1157 l 1,6,-1
 773 1157 l 1,7,-1
 1135 1587 l 1,4,-1
EndSplineSet
EndChar

StartChar: ogonek
Encoding: 731 731 131
Width: 603
VWidth: 2982
Flags: W
HStem: -427 147<174.015 380.095>
VStem: 54 168<-273.237 -138.845>
LayerCount: 3
Fore
SplineSet
54 -271 m 0
 54 -148 173 -36 255 36 c 1
 450 36 l 1
 378 -25 l 2
 255 -130 222 -199 222 -235 c 0
 222 -271 262 -280 284 -280 c 0
 299 -280 320 -273 340 -262 c 1
 372 -239 l 1
 440 -352 l 1
 403 -374 l 2
 342 -410 280 -427 226 -427 c 0
 126 -427 54 -367 54 -271 c 0
EndSplineSet
Validated: 1
Layer: 2
SplineSet
54 -271 m 0,0,1
 54 -227 54 -227 72.5 -182.5 c 128,-1,2
 91 -138 91 -138 125 -96.5 c 128,-1,3
 159 -55 159 -55 187.5 -26.5 c 128,-1,4
 216 2 216 2 255 36 c 1,5,-1
 450 36 l 1,6,-1
 378 -25 l 2,7,8
 222 -158 222 -158 222 -235 c 0,9,10
 222 -259 222 -259 242 -269.5 c 128,-1,11
 262 -280 262 -280 284 -280 c 0,12,13
 307 -280 307 -280 340 -262 c 1,14,-1
 372 -239 l 1,15,-1
 440 -352 l 1,16,-1
 403 -374 l 2,17,18
 313 -427 313 -427 226 -427 c 0,19,20
 150 -427 150 -427 102 -384.5 c 128,-1,21
 54 -342 54 -342 54 -271 c 0,0,1
EndSplineSet
EndChar

StartChar: caron
Encoding: 711 711 132
Width: 690
VWidth: 2982
Flags: W
HStem: 1426 338
DStem2: 690 1617 698 1426 0.746322 0.665585<0 222.477>
LayerCount: 3
Fore
SplineSet
698 1426 m 1
 600 1426 l 1
 365 1764 l 1
 585 1764 l 1
 690 1617 l 1
 857 1764 l 1
 1077 1764 l 1
 698 1426 l 1
EndSplineSet
Validated: 1
Layer: 2
SplineSet
698 1426 m 1,0,-1
 600 1426 l 1,1,-1
 365 1764 l 1,2,-1
 585 1764 l 1,3,-1
 690 1617 l 1,4,-1
 857 1764 l 1,5,-1
 1077 1764 l 1,6,-1
 698 1426 l 1,0,-1
EndSplineSet
EndChar

StartChar: emdash
Encoding: 8212 8212 133
Width: 1376
VWidth: 2982
Flags: W
HStem: 427 162<233 1363>
LayerCount: 3
Fore
SplineSet
1397 589 m 1
 1363 427 l 1
 199 427 l 1
 233 589 l 1
 1397 589 l 1
EndSplineSet
Validated: 1
Layer: 2
SplineSet
1397 589 m 1,0,-1
 1363 427 l 1,1,-1
 199 427 l 1,2,-1
 233 589 l 1,3,-1
 1397 589 l 1,0,-1
EndSplineSet
EndChar

StartChar: AE
Encoding: 198 198 134
Width: 1662
VWidth: 2982
Flags: W
HStem: 0 152<1130 1553> 440 156<575 974> 784 154<1149 1638> 1339 154<1157 1815>
VStem: 965 165<152 440> 980 164<596 784> 996 153<938 1258>
DStem2: 25 0 192 0 0.537241 0.843429<89.7192 612.33 798.166 1582.69>
LayerCount: 3
Fore
SplineSet
1670 938 m 1xf2
 1638 784 l 1
 1144 784 l 1xf4
 1130 152 l 1
 1587 152 l 1
 1553 0 l 1
 965 0 l 1xf8
 974 440 l 1
 474 440 l 1
 192 0 l 1
 25 0 l 1
 976 1493 l 1
 1847 1493 l 1
 1815 1339 l 1
 1157 1339 l 1
 1149 938 l 1
 1670 938 l 1xf2
575 596 m 1
 980 596 l 1xf4
 996 1258 l 1xf2
 575 596 l 1
EndSplineSet
Validated: 1
Layer: 2
SplineSet
1670 938 m 1,0,-1
 1638 784 l 1,1,-1
 1144 784 l 1,2,-1
 1130 152 l 1,3,-1
 1587 152 l 1,4,-1
 1553 0 l 1,5,-1
 965 0 l 1,6,-1
 974 440 l 1,7,-1
 474 440 l 1,8,-1
 192 0 l 1,9,-1
 25 0 l 1,10,-1
 976 1493 l 1,11,-1
 1847 1493 l 1,12,-1
 1815 1339 l 1,13,-1
 1157 1339 l 1,14,-1
 1149 938 l 1,15,-1
 1670 938 l 1,0,-1
575 596 m 1,16,-1
 980 596 l 1,17,-1
 996 1258 l 1,18,-1
 575 596 l 1,16,-1
EndSplineSet
EndChar

StartChar: ordfeminine
Encoding: 170 170 135
Width: 836
VWidth: 2982
Flags: W
HStem: 585 149<423.861 657.479> 996 134<466.467 801.462> 1254 145<530.345 779.108>
VStem: 250 156<752.715 941.449> 754 160<611 696.834> 824 159<1108.67 1206.4>
LayerCount: 3
Fore
SplineSet
636 996 m 0xf0
 440 996 406 897 406 833 c 0
 406 767 457 734 528 734 c 0
 662 734 777 880 797 940 c 1
 803 974 l 1
 756 987 696 996 636 996 c 0xf0
250 799 m 0
 250 947 361 1130 656 1130 c 0
 716 1130 773 1124 824 1108 c 1
 818 1200 754 1254 660 1254 c 0
 553 1254 483 1179 457 1147 c 1
 340 1186 l 1
 383 1238 508 1399 698 1399 c 0
 861 1399 983 1296 983 1124 c 0xf4
 983 1094 978 1066 972 1032 c 1
 927 822 l 1
 916 765 914 698 914 656 c 2
 914 611 l 1
 756 577 l 1
 754 600 754 618 754 640 c 0xf8
 754 656 754 673 756 698 c 1
 687 636 598 585 497 585 c 0
 352 585 250 669 250 799 c 0
EndSplineSet
Validated: 1
Layer: 2
SplineSet
636 996 m 0,0,1
 567 996 567 996 518 980 c 128,-1,2
 469 964 469 964 446.5 937.5 c 128,-1,3
 424 911 424 911 415 886 c 128,-1,4
 406 861 406 861 406 833 c 0,5,6
 406 785 406 785 439.5 759.5 c 128,-1,7
 473 734 473 734 528 734 c 0,8,9
 617 734 617 734 697 807 c 128,-1,10
 777 880 777 880 797 940 c 1,11,-1
 803 974 l 1,12,13
 723 996 723 996 636 996 c 0,0,1
250 799 m 0,14,15
 250 858 250 858 273 914 c 128,-1,16
 296 970 296 970 341.5 1019.5 c 128,-1,17
 387 1069 387 1069 468.5 1099.5 c 128,-1,18
 550 1130 550 1130 656 1130 c 0,19,20
 754 1130 754 1130 824 1108 c 1,21,22
 820 1176 820 1176 775.5 1215 c 128,-1,23
 731 1254 731 1254 660 1254 c 0,24,25
 544 1254 544 1254 457 1147 c 1,26,-1
 340 1186 l 1,27,28
 412.563923771 1273.75172177 412.563923771 1273.75172177 471.042275618 1317.4527973 c 0,29,30
 580.164212644 1399 580.164212644 1399 698 1399 c 0,31,32
 823 1399 823 1399 903 1324.5 c 128,-1,33
 983 1250 983 1250 983 1124 c 0,34,35
 983 1094 983 1094 972 1032 c 2,36,-1
 927 822 l 2,37,38
 914 755 914 755 914 656 c 2,39,-1
 914 611 l 1,40,-1
 756 577 l 1,41,42
 754 600 754 600 754 640 c 0,43,44
 754 673 754 673 756 698 c 1,45,46
 630 585 630 585 497 585 c 0,47,48
 387 585 387 585 318.5 643.5 c 128,-1,49
 250 702 250 702 250 799 c 0,14,15
EndSplineSet
EndChar

StartChar: Lslash
Encoding: 321 321 136
Width: 1158
VWidth: 2877
Flags: W
HStem: 0 154<333 1066> 1473 20G<456.769 618>
DStem2: 107 504 231 414 0.800363 0.599515<0 45.2886 447.401 822.489> 143 0 300.266 0 0.207912 0.978148<190.138 423.249 821.307 1526.49>
LayerCount: 3
Fore
SplineSet
1066 0 m 1
 143 0 l 1
 231 414 l 1
 60 286 l 1
 107 504 l 1
 278 628 l 1
 461 1493 l 1
 618 1493 l 1
 466 771 l 1
 897 1094 l 1
 853 880 l 1
 419 555 l 1
 333 154 l 1
 1097 154 l 1
 1066 0 l 1
EndSplineSet
Validated: 1
Layer: 2
SplineSet
1066 0 m 1,0,-1
 143 0 l 1,1,-1
 231 414 l 1,2,-1
 60 286 l 1,3,-1
 107 504 l 1,4,-1
 278 628 l 1,5,-1
 461 1493 l 1,6,-1
 618 1493 l 1,7,-1
 466 771 l 1,8,-1
 897 1094 l 1,9,-1
 853 880 l 1,10,-1
 419 555 l 1,11,-1
 333 154 l 1,12,-1
 1097 154 l 1,13,-1
 1066 0 l 1,0,-1
EndSplineSet
EndChar

StartChar: Oslash
Encoding: 216 216 137
Width: 1749
VWidth: 2877
Flags: W
HStem: -13 152<684.766 1142.35> 1352 154<928.823 1391.46>
VStem: 239 162<415.186 830.178> 1668 163<662.558 1077.81>
DStem2: 224 -77 340 -164 0.655974 0.754784<10.4268 306.955 488.879 1818.89 1999.97 2293.12>
LayerCount: 3
Fore
SplineSet
1831 902 m 0
 1831 436 1377 -13 873 -13 c 0
 748 -13 634 15 540 67 c 1
 340 -164 l 1
 224 -77 l 1
 423 152 l 1
 309 260 239 414 239 591 c 0
 239 1053 694 1506 1198 1506 c 0
 1323 1506 1435 1478 1529 1426 c 1
 1728 1654 l 1
 1847 1570 l 1
 1647 1341 l 1
 1762 1231 1831 1079 1831 902 c 0
906 139 m 0
 1290 139 1668 481 1668 873 c 0
 1668 1008 1619 1124 1533 1209 c 1
 654 197 l 1
 726 161 810 139 906 139 c 0
1164 1352 m 0
 784 1352 401 1012 401 622 c 0
 401 487 450 369 534 282 c 1
 1417 1296 l 1
 1343 1332 1258 1352 1164 1352 c 0
EndSplineSet
Validated: 1
Layer: 2
SplineSet
1831 902 m 0,0,1
 1831 765 1831 765 1780.5 628.5 c 128,-1,2
 1730 492 1730 492 1638.5 378 c 128,-1,3
 1547 264 1547 264 1428.5 175.5 c 128,-1,4
 1310 87 1310 87 1165.5 37 c 128,-1,5
 1021 -13 1021 -13 873 -13 c 0,6,7
 685 -13 685 -13 540 67 c 1,8,-1
 340 -164 l 1,9,-1
 224 -77 l 1,10,-1
 423 152 l 1,11,12
 336 235 336 235 287.5 348 c 128,-1,13
 239 461 239 461 239 591 c 0,14,15
 239 761 239 761 319 928.5 c 128,-1,16
 399 1096 399 1096 529 1222.5 c 128,-1,17
 659 1349 659 1349 836.5 1427.5 c 128,-1,18
 1014 1506 1014 1506 1198 1506 c 0,19,20
 1384 1506 1384 1506 1529 1426 c 1,21,-1
 1728 1654 l 1,22,-1
 1847 1570 l 1,23,-1
 1647 1341 l 1,24,25
 1831 1165 1831 1165 1831 902 c 0,0,1
906 139 m 0,26,27
 1019 139 1019 139 1132 177 c 128,-1,28
 1245 215 1245 215 1340.5 285 c 128,-1,29
 1436 355 1436 355 1510 445 c 128,-1,30
 1584 535 1584 535 1626 646.5 c 128,-1,31
 1668 758 1668 758 1668 873 c 0,32,33
 1668 1076 1668 1076 1533 1209 c 1,34,-1
 654 197 l 1,35,36
 770 139 770 139 906 139 c 0,26,27
1164 1352 m 0,37,38
 1024 1352 1024 1352 885 1292 c 128,-1,39
 746 1232 746 1232 639.5 1134 c 128,-1,40
 533 1036 533 1036 467 900 c 128,-1,41
 401 764 401 764 401 622 c 0,42,43
 401 420 401 420 534 282 c 1,44,-1
 1417 1296 l 1,45,46
 1302 1352 1302 1352 1164 1352 c 0,37,38
EndSplineSet
EndChar

StartChar: OE
Encoding: 338 338 138
Width: 1998
VWidth: 2982
Flags: W
HStem: -15 154<705.217 1001.28> 0 152<891.391 996.873 1157 1890> 784 154<1320 1997> 1339 154<1408 2172> 1354 152<946.819 1252.92>
VStem: 255 161<419.036 837.308>
DStem2: 964.416 -15 1121.5 -15 0.207912 0.978148<203.391 849.648 1006.1 1395.38>
LayerCount: 3
Fore
SplineSet
255 589 m 0xa4
 255 1061 716 1506 1211 1506 c 0xac
 1262 1506 1312 1502 1359 1493 c 1
 2202 1493 l 1
 2172 1339 l 1
 1408 1339 l 1
 1320 938 l 1
 2031 938 l 1
 1997 784 l 1
 1292 784 l 1
 1157 152 l 1
 1920 152 l 1
 1890 0 l 1
 1041 0 l 1x74
 991 -9 940 -15 889 -15 c 0
 513 -15 255 244 255 589 c 0xa4
1179 1354 m 0
 790 1354 416 1003 416 620 c 0
 416 346 622 139 920 139 c 0
 947 139 974 141 998 143 c 1
 1254 1350 l 1
 1231 1352 1204 1354 1179 1354 c 0
EndSplineSet
Validated: 1
Layer: 2
SplineSet
255 589 m 0,0,1
 255 762 255 762 335.5 930.5 c 128,-1,2
 416 1099 416 1099 546.5 1225 c 128,-1,3
 677 1351 677 1351 853.5 1428.5 c 128,-1,4
 1030 1506 1030 1506 1211 1506 c 0,5,6
 1291 1506 1291 1506 1359 1493 c 1,7,-1
 2202 1493 l 1,8,-1
 2172 1339 l 1,9,-1
 1408 1339 l 1,10,-1
 1320 938 l 1,11,-1
 2031 938 l 1,12,-1
 1997 784 l 1,13,-1
 1292 784 l 1,14,-1
 1157 152 l 1,15,-1
 1920 152 l 1,16,-1
 1890 0 l 1,17,-1
 1041 0 l 1,18,19
 958 -15 958 -15 889 -15 c 0,20,21
 704 -15 704 -15 559 64 c 128,-1,22
 414 143 414 143 334.5 280.5 c 128,-1,23
 255 418 255 418 255 589 c 0,0,1
1179 1354 m 0,24,25
 1036 1354 1036 1354 896 1292.5 c 128,-1,26
 756 1231 756 1231 651 1131 c 128,-1,27
 546 1031 546 1031 481 895.5 c 128,-1,28
 416 760 416 760 416 620 c 0,29,30
 416 413 416 413 557 276 c 128,-1,31
 698 139 698 139 920 139 c 0,32,33
 950 139 950 139 998 143 c 1,34,-1
 1254 1350 l 1,35,36
 1208 1354 1208 1354 1179 1354 c 0,24,25
EndSplineSet
EndChar

StartChar: ordmasculine
Encoding: 186 186 139
Width: 818
VWidth: 2982
Flags: W
HStem: 581 160<452.208 701.98> 1175 160<527.207 778.083>
VStem: 231 165<795.423 1045.92> 835 165<868.53 1120.08>
LayerCount: 3
Fore
SplineSet
1000 1036 m 0
 1000 808 779 581 534 581 c 0
 354 581 231 709 231 878 c 0
 231 1102 446 1335 696 1335 c 0
 875 1335 1000 1207 1000 1036 c 0
662 1175 m 0
 532 1175 396 1055 396 914 c 0
 396 814 468 741 568 741 c 0
 698 741 835 861 835 1003 c 0
 835 1102 763 1175 662 1175 c 0
EndSplineSet
Validated: 1
Layer: 2
SplineSet
1000 1036 m 0,0,1
 1000 924 1000 924 935.5 818.5 c 128,-1,2
 871 713 871 713 762 647 c 128,-1,3
 653 581 653 581 534 581 c 0,4,5
 400 581 400 581 315.5 665.5 c 128,-1,6
 231 750 231 750 231 878 c 0,7,8
 231 989 231 989 294 1094.5 c 128,-1,9
 357 1200 357 1200 466 1267.5 c 128,-1,10
 575 1335 575 1335 696 1335 c 0,11,12
 829 1335 829 1335 914.5 1250 c 128,-1,13
 1000 1165 1000 1165 1000 1036 c 0,0,1
662 1175 m 0,14,15
 562 1175 562 1175 479 1096.5 c 128,-1,16
 396 1018 396 1018 396 914 c 0,17,18
 396 839 396 839 444.5 790 c 128,-1,19
 493 741 493 741 568 741 c 0,20,21
 668 741 668 741 751.5 820 c 128,-1,22
 835 899 835 899 835 1003 c 0,23,24
 835 1078 835 1078 786.5 1126.5 c 128,-1,25
 738 1175 738 1175 662 1175 c 0,14,15
EndSplineSet
EndChar

StartChar: ae
Encoding: 230 230 140
Width: 1893
VWidth: 2822
Flags: W
HStem: -17 151<351.354 645 1171.83 1481.22> 474 148<499.673 897 1102 1737> 878 152<556.75 851.929 1308.19 1620.46>
VStem: 158 162<167.675 352.769>
LayerCount: 3
Fore
SplineSet
897 481 m 1
 714 479 320 457 320 252 c 0
 320 199 361 134 481 134 c 0
 618 134 781 239 869 346 c 1
 897 481 l 1
1102 622 m 1
 1737 622 l 1
 1724 775 1617 878 1473 878 c 0
 1332 878 1179 775 1102 622 c 1
1055 474 m 1
 1050 461 1047 444 1047 423 c 0
 1047 255 1162 139 1312 139 c 0
 1439 139 1574 205 1681 338 c 1
 1800 265 l 1
 1612 22 1384 -13 1278 -13 c 0
 1104 -13 976 83 920 224 c 1
 795 85 607 -17 450 -17 c 0
 237 -17 158 105 158 224 c 0
 158 242 158 260 164 278 c 1
 233 609 698 622 925 622 c 1
 927 636 927 647 927 658 c 0
 927 808 824 882 714 882 c 0
 568 882 468 763 438 732 c 1
 329 812 l 1
 372 861 521 1032 745 1032 c 0
 891 1032 1016 955 1063 818 c 1
 1179 944 1341 1030 1504 1030 c 0
 1743 1030 1899 848 1899 620 c 0
 1899 568 1890 521 1882 474 c 1
 1055 474 l 1
EndSplineSet
Validated: 1
Layer: 2
SplineSet
897 481 m 1,0,1
 841 480 841 480 789.5 477 c 128,-1,2
 738 474 738 474 667 466.5 c 128,-1,3
 596 459 596 459 539 442.5 c 128,-1,4
 482 426 482 426 430 402 c 128,-1,5
 378 378 378 378 349 339.5 c 128,-1,6
 320 301 320 301 320 252 c 0,7,8
 320 205 320 205 359.5 169.5 c 128,-1,9
 399 134 399 134 481 134 c 0,10,11
 579 134 579 134 689 197 c 128,-1,12
 799 260 799 260 869 346 c 1,13,-1
 897 481 l 1,0,1
1102 622 m 1,14,-1
 1737 622 l 1,15,16
 1727 737 1727 737 1654 807.5 c 128,-1,17
 1581 878 1581 878 1473 878 c 0,18,19
 1367 878 1367 878 1263 807 c 128,-1,20
 1159 736 1159 736 1102 622 c 1,14,-1
1055 474 m 1,21,22
 1047 453 1047 453 1047 423 c 0,23,24
 1047 298 1047 298 1122.5 218.5 c 128,-1,25
 1198 139 1198 139 1312 139 c 0,26,27
 1410 139 1410 139 1506 189.5 c 128,-1,28
 1602 240 1602 240 1681 338 c 1,29,-1
 1800 265 l 1,30,31
 1734 179 1734 179 1656.5 120 c 128,-1,32
 1579 61 1579 61 1506.5 34 c 128,-1,33
 1434 7 1434 7 1380.5 -3 c 128,-1,34
 1327 -13 1327 -13 1278 -13 c 0,35,36
 1151 -13 1151 -13 1057 51 c 128,-1,37
 963 115 963 115 920 224 c 1,38,39
 825 118 825 118 695.5 50.5 c 128,-1,40
 566 -17 566 -17 450 -17 c 0,41,42
 302 -17 302 -17 230 53.5 c 128,-1,43
 158 124 158 124 158 224 c 0,44,45
 158 260 158 260 164 278 c 0,46,47
 178 346 178 346 217 401 c 128,-1,48
 256 456 256 456 304.5 491 c 128,-1,49
 353 526 353 526 422 552 c 128,-1,50
 491 578 491 578 551 591 c 128,-1,51
 611 604 611 604 688 611.5 c 128,-1,52
 765 619 765 619 814 620.5 c 128,-1,53
 863 622 863 622 925 622 c 1,54,55
 927 636 927 636 927 658 c 0,56,57
 927 765 927 765 865 823.5 c 128,-1,58
 803 882 803 882 714 882 c 0,59,60
 690 882 690 882 667 878 c 128,-1,61
 644 874 644 874 623 866 c 128,-1,62
 602 858 602 858 584.5 850 c 128,-1,63
 567 842 567 842 548.5 829 c 128,-1,64
 530 816 530 816 517.5 807.5 c 128,-1,65
 505 799 505 799 490 784.5 c 128,-1,66
 475 770 475 770 468.5 764 c 128,-1,67
 462 758 462 758 450 745 c 2,68,-1
 438 732 l 1,69,-1
 329 812 l 1,70,71
 522 1032 522 1032 745 1032 c 0,72,73
 856 1032 856 1032 942 975.5 c 128,-1,74
 1028 919 1028 919 1063 818 c 1,75,76
 1153 915 1153 915 1269 972.5 c 128,-1,77
 1385 1030 1385 1030 1504 1030 c 0,78,79
 1680 1030 1680 1030 1789.5 912.5 c 128,-1,80
 1899 795 1899 795 1899 620 c 0,81,82
 1899 574 1899 574 1882 474 c 1,83,-1
 1055 474 l 1,21,22
EndSplineSet
EndChar

StartChar: lslash
Encoding: 322 322 141
Width: 440
VWidth: 2877
Flags: W
HStem: 0 21G<143 306.238> 1473 20G<456.731 618>
VStem: 96 522
DStem2: 143 0 302 0 0.207912 0.978148<33.058 439.731 838.352 1526.49>
LayerCount: 3
Fore
SplineSet
302 0 m 1
 143 0 l 1
 235 430 l 1
 96 327 l 1
 141 542 l 1
 280 645 l 1
 461 1493 l 1
 618 1493 l 1
 468 788 l 1
 604 889 l 1
 557 673 l 1
 423 571 l 1
 302 0 l 1
EndSplineSet
Validated: 1
Layer: 2
SplineSet
302 0 m 1,0,-1
 143 0 l 1,1,-1
 235 430 l 1,2,-1
 96 327 l 1,3,-1
 141 542 l 1,4,-1
 280 645 l 1,5,-1
 461 1493 l 1,6,-1
 618 1493 l 1,7,-1
 468 788 l 1,8,-1
 604 889 l 1,9,-1
 557 673 l 1,10,-1
 423 571 l 1,11,-1
 302 0 l 1,0,-1
EndSplineSet
EndChar

StartChar: oslash
Encoding: 248 248 142
Width: 1282
VWidth: 2822
Flags: W
HStem: -13 150<539.291 862.014> 878 152<645.863 879.132>
VStem: 195 161<277.44 604.306> 1151 154<410.676 737.834>
DStem2: 171 -83 299 -158 0.594661 0.803977<15.8184 248.399 415.2 1191.82 1402.43 1562.23>
LayerCount: 3
Fore
SplineSet
1305 613 m 0
 1305 295 994 -13 640 -13 c 0
 564 -13 497 0 436 27 c 1
 299 -158 l 1
 171 -83 l 1
 314 109 l 1
 239 184 195 286 195 403 c 0
 195 716 508 1030 861 1030 c 0
 904 1030 944 1025 983 1016 c 1
 1100 1173 l 1
 1229 1094 l 1
 1126 955 l 1
 1238 882 1305 759 1305 613 c 0
833 878 m 0
 598 878 356 673 356 432 c 0
 356 363 378 299 419 250 c 1
 880 875 l 1
 865 878 848 878 833 878 c 0
673 137 m 0
 916 137 1151 346 1151 581 c 0
 1151 683 1104 771 1025 822 c 1
 538 161 l 1
 577 145 624 137 673 137 c 0
EndSplineSet
Validated: 1
Layer: 2
SplineSet
1305 613 m 0,0,1
 1305 496 1305 496 1250.5 381.5 c 128,-1,2
 1196 267 1196 267 1106 180.5 c 128,-1,3
 1016 94 1016 94 892.5 40.5 c 128,-1,4
 769 -13 769 -13 640 -13 c 0,5,6
 526 -13 526 -13 436 27 c 1,7,-1
 299 -158 l 1,8,-1
 171 -83 l 1,9,-1
 314 109 l 1,10,11
 195 228 195 228 195 403 c 0,12,13
 195 518 195 518 250 632.5 c 128,-1,14
 305 747 305 747 395 834 c 128,-1,15
 485 921 485 921 608.5 975.5 c 128,-1,16
 732 1030 732 1030 861 1030 c 0,17,18
 922 1030 922 1030 983 1016 c 1,19,-1
 1100 1173 l 1,20,-1
 1229 1094 l 1,21,-1
 1126 955 l 1,22,23
 1211 900 1211 900 1258 811 c 128,-1,24
 1305 722 1305 722 1305 613 c 0,0,1
833 878 m 0,25,26
 717 878 717 878 606.5 817.5 c 128,-1,27
 496 757 496 757 426 653 c 128,-1,28
 356 549 356 549 356 432 c 0,29,30
 356 325 356 325 419 250 c 1,31,-1
 880 875 l 1,32,33
 865 878 865 878 833 878 c 0,25,26
673 137 m 0,34,35
 793 137 793 137 903.5 198.5 c 128,-1,36
 1014 260 1014 260 1082.5 363 c 128,-1,37
 1151 466 1151 466 1151 581 c 0,38,39
 1151 657 1151 657 1118 720.5 c 128,-1,40
 1085 784 1085 784 1025 822 c 1,41,-1
 538 161 l 1,42,43
 596 137 596 137 673 137 c 0,34,35
EndSplineSet
EndChar

StartChar: oe
Encoding: 339 339 143
Width: 2134
VWidth: 2822
Flags: W
HStem: -13 150<498.66 867.336 1409.5 1725.83> 474 148<1343 1978> 878 152<645.912 1008.89 1548.55 1862.21>
VStem: 195 161<277.05 605.043> 1151 989<475.359 734> 1151 139<412.484 474>
LayerCount: 3
Fore
SplineSet
833 878 m 0xf8
 600 878 356 675 356 432 c 0
 356 262 485 137 673 137 c 0
 912 137 1151 342 1151 585 c 0
 1151 752 1021 878 833 878 c 0xf8
195 406 m 0
 195 714 506 1030 861 1030 c 0
 1059 1030 1209 929 1273 779 c 1
 1390 927 1565 1030 1746 1030 c 0
 1986 1030 2140 848 2140 620 c 0xf8
 2140 568 2131 521 2125 474 c 1
 1294 474 l 1
 1292 457 1290 438 1290 421 c 0xf4
 1290 255 1403 139 1553 139 c 0
 1681 139 1815 205 1923 338 c 1
 2044 265 l 1
 1854 22 1625 -13 1520 -13 c 0
 1341 -13 1211 87 1157 235 c 1
 1030 85 837 -13 640 -13 c 0
 376 -13 195 166 195 406 c 0
1343 622 m 1
 1978 622 l 1
 1965 775 1858 878 1715 878 c 0
 1574 878 1421 775 1343 622 c 1
EndSplineSet
Validated: 1
Layer: 2
SplineSet
833 878 m 0,0,1
 717 878 717 878 607 818 c 128,-1,2
 497 758 497 758 426.5 654 c 128,-1,3
 356 550 356 550 356 432 c 0,4,5
 356 304 356 304 444.5 220.5 c 128,-1,6
 533 137 533 137 673 137 c 0,7,8
 791 137 791 137 901.5 197.5 c 128,-1,9
 1012 258 1012 258 1081.5 362.5 c 128,-1,10
 1151 467 1151 467 1151 585 c 0,11,12
 1151 711 1151 711 1062 794.5 c 128,-1,13
 973 878 973 878 833 878 c 0,0,1
195 406 m 0,14,15
 195 520 195 520 250 633.5 c 128,-1,16
 305 747 305 747 394.5 834 c 128,-1,17
 484 921 484 921 608 975.5 c 128,-1,18
 732 1030 732 1030 861 1030 c 0,19,20
 1007 1030 1007 1030 1115.5 962 c 128,-1,21
 1224 894 1224 894 1273 779 c 1,22,23
 1363 893 1363 893 1488.5 961.5 c 128,-1,24
 1614 1030 1614 1030 1746 1030 c 0,25,26
 1922 1030 1922 1030 2031 912.5 c 128,-1,27
 2140 795 2140 795 2140 620 c 0,28,29
 2140 592 2140 592 2125 474 c 1,30,-1
 1294 474 l 1,31,32
 1290 440 1290 440 1290 421 c 0,33,34
 1290 297 1290 297 1365 218 c 128,-1,35
 1440 139 1440 139 1553 139 c 0,36,37
 1651 139 1651 139 1747.5 189.5 c 128,-1,38
 1844 240 1844 240 1923 338 c 1,39,-1
 2044 265 l 1,40,41
 1990 196 1990 196 1926.5 143.5 c 128,-1,42
 1863 91 1863 91 1808 62 c 128,-1,43
 1753 33 1753 33 1695 15 c 128,-1,44
 1637 -3 1637 -3 1597 -8 c 128,-1,45
 1557 -13 1557 -13 1520 -13 c 0,46,47
 1389 -13 1389 -13 1294 54 c 128,-1,48
 1199 121 1199 121 1157 235 c 1,49,50
 1060 121 1060 121 923 54 c 128,-1,51
 786 -13 786 -13 640 -13 c 0,52,53
 444 -13 444 -13 319.5 105.5 c 128,-1,54
 195 224 195 224 195 406 c 0,14,15
1343 622 m 1,55,-1
 1978 622 l 1,56,57
 1968 737 1968 737 1895 807.5 c 128,-1,58
 1822 878 1822 878 1715 878 c 0,59,60
 1609 878 1609 878 1505 807 c 128,-1,61
 1401 736 1401 736 1343 622 c 1,55,-1
EndSplineSet
EndChar

StartChar: germandbls
Encoding: 223 223 144
Width: 1107
VWidth: 2982
Flags: W
HStem: -15 139<527.365 813.246> 2 21G<143 306.247> 1511 150<734.57 1001.46>
VStem: 726 163<765.531 916.393> 967 163<286.113 528.022> 1061 165<1193.56 1448.97>
DStem2: 139.387 -15 298.387 -15 0.207912 0.978148<50.4377 1453.42>
LayerCount: 3
Fore
SplineSet
1130 448 m 0x78
 1130 265 944 -15 665 -15 c 0
 557 -15 446 30 346 130 c 1
 483 205 l 1
 540 148 604 124 669 124 c 0
 857 124 967 322 967 421 c 0xb8
 967 571 726 640 726 820 c 0
 726 1057 1061 1079 1061 1325 c 0
 1061 1446 974 1511 871 1511 c 0
 752 1511 602 1417 546 1151 c 2
 302 2 l 1
 143 2 l 1
 387 1149 l 2
 461 1493 698 1661 908 1661 c 0
 1081 1661 1226 1549 1226 1354 c 0x74
 1226 1030 889 953 889 848 c 0
 889 745 1130 656 1130 448 c 0x78
EndSplineSet
Validated: 1
Layer: 2
SplineSet
1130 448 m 0,0,1
 1130 378 1130 378 1095.5 298 c 128,-1,2
 1061 218 1061 218 1002.5 148 c 128,-1,3
 944 78 944 78 854.5 31.5 c 128,-1,4
 765 -15 765 -15 665 -15 c 0,5,6
 491 -15 491 -15 346 130 c 1,7,-1
 483 205 l 1,8,9
 564 124 564 124 669 124 c 0,10,11
 736 124 736 124 794.5 156 c 128,-1,12
 853 188 853 188 889 235.5 c 128,-1,13
 925 283 925 283 946 332.5 c 128,-1,14
 967 382 967 382 967 421 c 0,15,16
 967 462 967 462 942 502 c 128,-1,17
 917 542 917 542 881.5 575.5 c 128,-1,18
 846 609 846 609 811 644 c 128,-1,19
 776 679 776 679 751 724.5 c 128,-1,20
 726 770 726 770 726 820 c 0,21,22
 726 868 726 868 744.5 909.5 c 128,-1,23
 763 951 763 951 792.5 981.5 c 128,-1,24
 822 1012 822 1012 858 1040.5 c 128,-1,25
 894 1069 894 1069 929.5 1098 c 128,-1,26
 965 1127 965 1127 994.5 1158.5 c 128,-1,27
 1024 1190 1024 1190 1042.5 1232.5 c 128,-1,28
 1061 1275 1061 1275 1061 1325 c 0,29,30
 1061 1412 1061 1412 1006.5 1461.5 c 128,-1,31
 952 1511 952 1511 871 1511 c 0,32,33
 769 1511 769 1511 677 1423 c 128,-1,34
 585 1335 585 1335 546 1151 c 2,35,-1
 302 2 l 1,36,-1
 143 2 l 1,37,-1
 387 1149 l 2,38,39
 414 1274 414 1274 470 1373.5 c 128,-1,40
 526 1473 526 1473 597 1534.5 c 128,-1,41
 668 1596 668 1596 748 1628.5 c 128,-1,42
 828 1661 828 1661 908 1661 c 0,43,44
 1043 1661 1043 1661 1134.5 1578 c 128,-1,45
 1226 1495 1226 1495 1226 1354 c 0,46,47
 1226 1278 1226 1278 1201 1211.5 c 128,-1,48
 1176 1145 1176 1145 1138.5 1101.5 c 128,-1,49
 1101 1058 1101 1058 1057.5 1019 c 128,-1,50
 1014 980 1014 980 976.5 953.5 c 128,-1,51
 939 927 939 927 914 899.5 c 128,-1,52
 889 872 889 872 889 848 c 0,53,54
 889 820 889 820 914 787.5 c 128,-1,55
 939 755 939 755 974 721.5 c 128,-1,56
 1009 688 1009 688 1044.5 650 c 128,-1,57
 1080 612 1080 612 1105 559 c 128,-1,58
 1130 506 1130 506 1130 448 c 0,0,1
EndSplineSet
EndChar

StartChar: logicalnot
Encoding: 172 172 145
Width: 1329
VWidth: 2982
Flags: W
HStem: 786 161<255 1283>
DStem2: 1184 322 1345 322 0.207912 0.978148<33.4738 474.444>
LayerCount: 3
Fore
SplineSet
1478 947 m 1
 1345 322 l 1
 1184 322 l 1
 1283 786 l 1
 222 786 l 1
 255 947 l 1
 1478 947 l 1
EndSplineSet
Validated: 1
Layer: 2
SplineSet
1478 947 m 1,0,-1
 1345 322 l 1,1,-1
 1184 322 l 1,2,-1
 1283 786 l 1,3,-1
 222 786 l 1,4,-1
 255 947 l 1,5,-1
 1478 947 l 1,0,-1
EndSplineSet
EndChar

StartChar: trademark
Encoding: 8482 8482 146
Width: 1696
VWidth: 2982
Flags: W
HStem: 1647 143<504 681 826 1034>
VStem: 1668 147<1010 1431>
DStem2: 540.599 994 688.599 994 0.207912 0.978148<47.1284 667.921> 871 1010 1021 1010 0.399189 0.916869<59.8783 515.738> 1401 1276 1196 1431 0.325826 -0.94543<-213.336 0> 1401 1276 1337 994 0.614457 0.788951<0 290.034>
LayerCount: 3
Fore
SplineSet
1066 1790 m 1
 1034 1647 l 1
 826 1647 l 1
 692 1010 l 1
 544 1010 l 1
 681 1647 l 1
 472 1647 l 1
 504 1790 l 1
 1066 1790 l 1
1674 1431 m 1
 1337 994 l 1
 1196 1431 l 1
 1021 1010 l 1
 871 1010 l 1
 1218 1807 l 1
 1401 1276 l 1
 1813 1805 l 1
 1815 1010 l 1
 1668 1010 l 1
 1674 1431 l 1
EndSplineSet
Validated: 1
Layer: 2
SplineSet
1066 1790 m 1,0,-1
 1034 1647 l 1,1,-1
 826 1647 l 1,2,-1
 692 1010 l 1,3,-1
 544 1010 l 1,4,-1
 681 1647 l 1,5,-1
 472 1647 l 1,6,-1
 504 1790 l 1,7,-1
 1066 1790 l 1,0,-1
1674 1431 m 1,8,-1
 1337 994 l 1,9,-1
 1196 1431 l 1,10,-1
 1021 1010 l 1,11,-1
 871 1010 l 1,12,-1
 1218 1807 l 1,13,-1
 1401 1276 l 1,14,-1
 1813 1805 l 1,15,-1
 1815 1010 l 1,16,-1
 1668 1010 l 1,17,-1
 1674 1431 l 1,8,-1
EndSplineSet
EndChar

StartChar: Eth
Encoding: 208 208 147
Width: 1362
VWidth: 2982
Flags: W
HStem: 0 152<333 739.753> 669 155<173 286 477 878> 1339 154<587 987.712>
VStem: 1267 159<644.918 1067.79>
DStem2: 143 0 300.691 0 0.207912 0.978148<188.182 684.112 875.436 1402.05>
LayerCount: 3
Fore
SplineSet
508 152 m 2
 897 152 1267 487 1267 869 c 0
 1267 1141 1059 1339 759 1339 c 2
 587 1339 l 1
 477 824 l 1
 908 824 l 1
 878 669 l 1
 444 669 l 1
 333 152 l 1
 508 152 l 2
1426 900 m 0
 1426 438 978 0 474 0 c 2
 143 0 l 1
 286 669 l 1
 141 669 l 1
 173 824 l 1
 320 824 l 1
 461 1493 l 1
 792 1493 l 2
 1166 1493 1426 1243 1426 900 c 0
EndSplineSet
Validated: 1
Layer: 2
SplineSet
508 152 m 2,0,1
 651 152 651 152 790 211 c 128,-1,2
 929 270 929 270 1033.5 367 c 128,-1,3
 1138 464 1138 464 1202.5 596.5 c 128,-1,4
 1267 729 1267 729 1267 869 c 0,5,6
 1267 1074 1267 1074 1125 1206.5 c 128,-1,7
 983 1339 983 1339 759 1339 c 2,8,-1
 587 1339 l 1,9,-1
 477 824 l 1,10,-1
 908 824 l 1,11,-1
 878 669 l 1,12,-1
 444 669 l 1,13,-1
 333 152 l 1,14,-1
 508 152 l 2,0,1
1426 900 m 0,15,16
 1426 764 1426 764 1376 629.5 c 128,-1,17
 1326 495 1326 495 1235.5 383 c 128,-1,18
 1145 271 1145 271 1027.5 184 c 128,-1,19
 910 97 910 97 766 48.5 c 128,-1,20
 622 0 622 0 474 0 c 2,21,-1
 143 0 l 1,22,-1
 286 669 l 1,23,-1
 141 669 l 1,24,-1
 173 824 l 1,25,-1
 320 824 l 1,26,-1
 461 1493 l 1,27,-1
 792 1493 l 2,28,29
 1071 1493 1071 1493 1248.5 1325.5 c 128,-1,30
 1426 1158 1426 1158 1426 900 c 0,15,16
EndSplineSet
EndChar

StartChar: onehalf
Encoding: 189 189 148
Width: 1819
VWidth: 2982
Flags: W
HStem: 0 154<1249 1701> 878 154<1468.85 1677.22> 1473 20G<1600.31 1811>
VStem: 1713 165<616.767 843.748>
DStem2: 224 0 416 0 0.682719 0.730681<131.082 2043.3> 286.76 0 443.76 0 0.207912 0.978148<524.388 1275.1>
LayerCount: 3
Fore
SplineSet
1878 763 m 0
 1878 410 1395 349 1249 154 c 1
 1732 154 l 1
 1701 0 l 1
 1032 0 l 1
 1047 74 l 1
 1121 419 1666 483 1708 687 c 1
 1713 703 1713 718 1713 734 c 0
 1713 820 1654 878 1583 878 c 0
 1500 878 1401 799 1379 687 c 1
 1370 654 l 1
 1215 654 l 1
 1222 687 l 1
 1260 873 1435 1032 1619 1032 c 0
 1777 1032 1878 916 1878 763 c 0
1619 1493 m 1
 1811 1493 l 1
 416 0 l 1
 224 0 l 1
 1619 1493 l 1
553 1247 m 1
 453 1186 l 1
 391 1314 l 1
 773 1540 l 1
 546 481 l 1
 389 481 l 1
 553 1247 l 1
EndSplineSet
Validated: 1
Layer: 2
SplineSet
1878 763 m 0,0,1
 1878 679 1878 679 1841 608.5 c 128,-1,2
 1804 538 1804 538 1747.5 491.5 c 128,-1,3
 1691 445 1691 445 1618 399.5 c 128,-1,4
 1545 354 1545 354 1477.5 320.5 c 128,-1,5
 1410 287 1410 287 1346 242.5 c 128,-1,6
 1282 198 1282 198 1249 154 c 1,7,-1
 1732 154 l 1,8,-1
 1701 0 l 1,9,-1
 1032 0 l 1,10,-1
 1047 74 l 2,11,12
 1062 144 1062 144 1104.5 205.5 c 128,-1,13
 1147 267 1147 267 1203.5 311.5 c 128,-1,14
 1260 356 1260 356 1325 395.5 c 128,-1,15
 1390 435 1390 435 1454 469 c 128,-1,16
 1518 503 1518 503 1571.5 536 c 128,-1,17
 1625 569 1625 569 1662.5 607.5 c 128,-1,18
 1700 646 1700 646 1708 687 c 0,19,20
 1713 703 1713 703 1713 734 c 0,21,22
 1713 797 1713 797 1675 837.5 c 128,-1,23
 1637 878 1637 878 1583 878 c 0,24,25
 1518 878 1518 878 1456.5 823 c 128,-1,26
 1395 768 1395 768 1379 687 c 1,27,-1
 1370 654 l 1,28,-1
 1215 654 l 1,29,-1
 1222 687 l 2,30,31
 1251 828 1251 828 1366.5 930 c 128,-1,32
 1482 1032 1482 1032 1619 1032 c 0,33,34
 1736 1032 1736 1032 1807 956 c 128,-1,35
 1878 880 1878 880 1878 763 c 0,0,1
1619 1493 m 1,36,-1
 1811 1493 l 1,37,-1
 416 0 l 1,38,-1
 224 0 l 1,39,-1
 1619 1493 l 1,36,-1
553 1247 m 1,40,-1
 453 1186 l 1,41,-1
 391 1314 l 1,42,-1
 773 1540 l 1,43,-1
 546 481 l 1,44,-1
 389 481 l 1,45,-1
 553 1247 l 1,40,-1
EndSplineSet
LCarets2: 2 0 0
Ligature2: "'frac' Diagonal Fractions in Latin lookup 42" one fraction two
Ligature2: "'frac' Diagonal Fractions in Latin lookup 42" one slash two
EndChar

StartChar: plusminus
Encoding: 177 177 149
Width: 944
VWidth: 2982
Flags: W
HStem: 0 154<87 893> 640 155<222 530 720 1030>
DStem2: 394.17 0 550.17 0 0.207912 0.978148<344.248 654.255 845.371 1155.59>
LayerCount: 3
Fore
SplineSet
927 154 m 1
 893 0 l 1
 54 0 l 1
 87 154 l 1
 927 154 l 1
615 305 m 1
 459 305 l 1
 530 640 l 1
 190 640 l 1
 222 795 l 1
 564 795 l 1
 636 1130 l 1
 792 1130 l 1
 720 795 l 1
 1061 795 l 1
 1030 640 l 1
 687 640 l 1
 615 305 l 1
EndSplineSet
Validated: 1
Layer: 2
SplineSet
927 154 m 1,0,-1
 893 0 l 1,1,-1
 54 0 l 1,2,-1
 87 154 l 1,3,-1
 927 154 l 1,0,-1
615 305 m 1,4,-1
 459 305 l 1,5,-1
 530 640 l 1,6,-1
 190 640 l 1,7,-1
 222 795 l 1,8,-1
 564 795 l 1,9,-1
 636 1130 l 1,10,-1
 792 1130 l 1,11,-1
 720 795 l 1,12,-1
 1061 795 l 1,13,-1
 1030 640 l 1,14,-1
 687 640 l 1,15,-1
 615 305 l 1,4,-1
EndSplineSet
EndChar

StartChar: Thorn
Encoding: 222 222 150
Width: 1152
VWidth: 2982
Flags: W
HStem: 0 21G<143 306.14> 302 157<401 808.985> 1034 150<551 918.69> 1473 20G<456.74 618>
VStem: 1050 161<653.923 925.568>
DStem2: 143 0 302 0 0.207912 0.978148<33.058 356.924 513.371 1093.54 1232.2 1526.49>
LayerCount: 3
Fore
SplineSet
553 459 m 0
 927 459 1050 665 1050 801 c 0
 1050 949 908 1034 675 1034 c 0
 628 1034 575 1030 519 1023 c 1
 401 470 l 1
 455 461 506 459 553 459 c 0
1211 831 m 0
 1211 579 980 302 521 302 c 0
 470 302 419 305 367 314 c 1
 302 0 l 1
 143 0 l 1
 461 1493 l 1
 618 1493 l 1
 551 1173 l 1
 604 1182 658 1184 707 1184 c 0
 1025 1184 1211 1045 1211 831 c 0
EndSplineSet
Validated: 1
Layer: 2
SplineSet
553 459 m 0,0,1
 660 459 660 459 747.5 481.5 c 128,-1,2
 835 504 835 504 890 540 c 128,-1,3
 945 576 945 576 982.5 622 c 128,-1,4
 1020 668 1020 668 1035 713 c 128,-1,5
 1050 758 1050 758 1050 801 c 0,6,7
 1050 911 1050 911 950.5 972.5 c 128,-1,8
 851 1034 851 1034 675 1034 c 0,9,10
 607 1034 607 1034 519 1023 c 1,11,-1
 401 470 l 1,12,13
 467 459 467 459 553 459 c 0,0,1
1211 831 m 0,14,15
 1211 734 1211 734 1166.5 641.5 c 128,-1,16
 1122 549 1122 549 1039 472.5 c 128,-1,17
 956 396 956 396 821 349 c 128,-1,18
 686 302 686 302 521 302 c 0,19,20
 436 302 436 302 367 314 c 1,21,-1
 302 0 l 1,22,-1
 143 0 l 1,23,-1
 461 1493 l 1,24,-1
 618 1493 l 1,25,-1
 551 1173 l 1,26,27
 616 1184 616 1184 707 1184 c 0,28,29
 943 1184 943 1184 1077 1088.5 c 128,-1,30
 1211 993 1211 993 1211 831 c 0,14,15
EndSplineSet
EndChar

StartChar: onequarter
Encoding: 188 188 151
Width: 1819
VWidth: 2982
Flags: W
HStem: 0 21G<314 524.687 1419 1580.42> 154 158<1218 1453 1638 1708> 1473 20G<1689.33 1901>
DStem2: 286.76 0 443.76 0 0.207912 0.978148<524.388 1275.1> 314 0 506 0 0.682719 0.730681<131.082 2042.62> 869 154 1218 312 0.700012 0.714131<357.137 845.059> 1419 0 1576 0 0.207912 0.978148<32.6421 157.704 350.715 674.893>
LayerCount: 3
Fore
SplineSet
1708 1493 m 1
 1901 1493 l 1
 506 0 l 1
 314 0 l 1
 1708 1493 l 1
1486 312 m 1
 1560 660 l 1
 1218 312 l 1
 1486 312 l 1
553 1247 m 1
 453 1186 l 1
 391 1314 l 1
 773 1540 l 1
 546 481 l 1
 389 481 l 1
 553 1247 l 1
1453 154 m 1
 869 154 l 1
 1811 1115 l 1
 1638 312 l 1
 1790 312 l 1
 1708 154 l 1
 1610 154 l 1
 1576 0 l 1
 1419 0 l 1
 1453 154 l 1
EndSplineSet
Validated: 1
Layer: 2
SplineSet
1708 1493 m 1,0,-1
 1901 1493 l 1,1,-1
 506 0 l 1,2,-1
 314 0 l 1,3,-1
 1708 1493 l 1,0,-1
1486 312 m 1,4,-1
 1560 660 l 1,5,-1
 1218 312 l 1,6,-1
 1486 312 l 1,4,-1
553 1247 m 1,7,-1
 453 1186 l 1,8,-1
 391 1314 l 1,9,-1
 773 1540 l 1,10,-1
 546 481 l 1,11,-1
 389 481 l 1,12,-1
 553 1247 l 1,7,-1
1453 154 m 1,13,-1
 869 154 l 1,14,-1
 1811 1115 l 1,15,-1
 1638 312 l 1,16,-1
 1790 312 l 1,17,-1
 1708 154 l 1,18,-1
 1610 154 l 1,19,-1
 1576 0 l 1,20,-1
 1419 0 l 1,21,-1
 1453 154 l 1,13,-1
EndSplineSet
LCarets2: 2 0 0
Ligature2: "'frac' Diagonal Fractions in Latin lookup 42" one fraction four
Ligature2: "'frac' Diagonal Fractions in Latin lookup 42" one slash four
EndChar

StartChar: divide
Encoding: 247 247 152
Width: 1078
VWidth: 2982
Flags: W
HStem: 349 240<564.333 717.619> 665 161<284 1115> 904 240<682.579 834.659>
VStem: 517 244<394.006 542.109> 636 244<948.856 1097.9>
LayerCount: 3
Fore
SplineSet
517 444 m 0xf0
 517 515 587 589 665 589 c 0
 720 589 761 549 761 493 c 0
 761 408 681 349 613 349 c 0
 557 349 517 389 517 444 c 0xf0
636 998 m 0xe8
 636 1083 718 1144 784 1144 c 0
 839 1144 880 1104 880 1047 c 0
 880 963 797 904 732 904 c 0
 675 904 636 944 636 998 c 0xe8
1149 826 m 1
 1115 665 l 1
 248 665 l 1
 284 826 l 1
 1149 826 l 1
EndSplineSet
Validated: 1
Layer: 2
SplineSet
517 444 m 0,0,1
 517 498 517 498 562 543.5 c 128,-1,2
 607 589 607 589 665 589 c 0,3,4
 706 589 706 589 733.5 562 c 128,-1,5
 761 535 761 535 761 493 c 0,6,7
 761 432 761 432 714 390.5 c 128,-1,8
 667 349 667 349 613 349 c 0,9,10
 571 349 571 349 544 376 c 128,-1,11
 517 403 517 403 517 444 c 0,0,1
636 998 m 0,12,13
 636 1059 636 1059 683.5 1101.5 c 128,-1,14
 731 1144 731 1144 784 1144 c 0,15,16
 826 1144 826 1144 853 1117 c 128,-1,17
 880 1090 880 1090 880 1047 c 0,18,19
 880 987 880 987 832.5 945.5 c 128,-1,20
 785 904 785 904 732 904 c 0,21,22
 690 904 690 904 663 930.5 c 128,-1,23
 636 957 636 957 636 998 c 0,12,13
1149 826 m 1,24,-1
 1115 665 l 1,25,-1
 248 665 l 1,26,-1
 284 826 l 1,27,-1
 1149 826 l 1,24,-1
EndSplineSet
EndChar

StartChar: brokenbar
Encoding: 166 166 153
Width: 373
VWidth: 2982
Flags: W
VStem: -9 609
DStem2: -9 -544 152 -544 0.207912 0.978148<33.4738 896.923 1286.18 2149>
LayerCount: 3
Fore
SplineSet
414 681 m 1
 252 681 l 1
 438 1558 l 1
 600 1558 l 1
 414 681 l 1
152 -544 m 1
 -9 -544 l 1
 179 333 l 1
 340 333 l 1
 152 -544 l 1
EndSplineSet
Validated: 1
Layer: 2
SplineSet
414 681 m 1,0,-1
 252 681 l 1,1,-1
 438 1558 l 1,2,-1
 600 1558 l 1,3,-1
 414 681 l 1,0,-1
152 -544 m 1,4,-1
 -9 -544 l 1,5,-1
 179 333 l 1,6,-1
 340 333 l 1,7,-1
 152 -544 l 1,4,-1
EndSplineSet
EndChar

StartChar: degree
Encoding: 176 176 154
Width: 791
VWidth: 2982
Flags: W
HStem: 1175 166<595.499 785.853> 1591 164<632.266 820.656>
VStem: 412 167<1357.51 1540.66> 835 171<1389.66 1574.45>
LayerCount: 3
Fore
SplineSet
1006 1525 m 0
 1006 1354 842 1175 647 1175 c 0
 508 1175 412 1273 412 1406 c 0
 412 1578 579 1755 771 1755 c 0
 908 1755 1006 1657 1006 1525 c 0
734 1591 m 0
 665 1591 579 1527 579 1442 c 0
 579 1382 620 1341 683 1341 c 0
 763 1341 835 1410 835 1495 c 0
 835 1549 797 1591 734 1591 c 0
EndSplineSet
Validated: 1
Layer: 2
SplineSet
1006 1525 m 0,0,1
 1006 1440 1006 1440 957.5 1359 c 128,-1,2
 909 1278 909 1278 825 1226.5 c 128,-1,3
 741 1175 741 1175 647 1175 c 0,4,5
 543 1175 543 1175 477.5 1240.5 c 128,-1,6
 412 1306 412 1306 412 1406 c 0,7,8
 412 1538 412 1538 521 1646.5 c 128,-1,9
 630 1755 630 1755 771 1755 c 0,10,11
 873 1755 873 1755 939.5 1689.5 c 128,-1,12
 1006 1624 1006 1624 1006 1525 c 0,0,1
734 1591 m 0,13,14
 679 1591 679 1591 629 1547 c 128,-1,15
 579 1503 579 1503 579 1442 c 0,16,17
 579 1397 579 1397 607.5 1369 c 128,-1,18
 636 1341 636 1341 683 1341 c 0,19,20
 744 1341 744 1341 789.5 1386.5 c 128,-1,21
 835 1432 835 1432 835 1495 c 0,22,23
 835 1537 835 1537 807.5 1564 c 128,-1,24
 780 1591 780 1591 734 1591 c 0,13,14
EndSplineSet
EndChar

StartChar: thorn
Encoding: 254 254 155
Width: 1147
VWidth: 2982
Flags: W
HStem: -497 21G<11 175.205> -17 156<489.447 808.316> 880 150<630.118 945.563>
VStem: 1072 163<414.37 754.3>
DStem2: 11 -497 171 -497 0.207912 0.978148<33.2659 669.888 974.194 1266.82 1456.18 2032.5>
LayerCount: 3
Fore
SplineSet
1235 622 m 0
 1235 305 947 -17 611 -17 c 0
 479 -17 372 38 302 126 c 1
 171 -497 l 1
 11 -497 l 1
 434 1491 l 1
 593 1491 l 1
 466 895 l 1
 573 983 701 1030 835 1030 c 0
 1079 1030 1235 855 1235 622 c 0
643 139 m 0
 855 139 1072 356 1072 593 c 0
 1072 763 955 880 799 880 c 0
 626 880 448 741 389 540 c 1
 378 479 l 1
 376 459 374 438 374 421 c 0
 374 250 487 139 643 139 c 0
EndSplineSet
Validated: 1
Layer: 2
SplineSet
1235 622 m 0,0,1
 1235 465 1235 465 1150 317.5 c 128,-1,2
 1065 170 1065 170 919.5 76.5 c 128,-1,3
 774 -17 774 -17 611 -17 c 0,4,5
 416 -17 416 -17 302 126 c 1,6,-1
 171 -497 l 1,7,-1
 11 -497 l 1,8,-1
 434 1491 l 1,9,-1
 593 1491 l 1,10,-1
 466 895 l 1,11,12
 630 1030 630 1030 835 1030 c 0,13,14
 1015 1030 1015 1030 1125 915 c 128,-1,15
 1235 800 1235 800 1235 622 c 0,0,1
643 139 m 0,16,17
 747 139 747 139 847 202.5 c 128,-1,18
 947 266 947 266 1009.5 372 c 128,-1,19
 1072 478 1072 478 1072 593 c 0,20,21
 1072 719 1072 719 994.5 799.5 c 128,-1,22
 917 880 917 880 799 880 c 0,23,24
 667 880 667 880 550 784.5 c 128,-1,25
 433 689 433 689 389 540 c 1,26,-1
 378 479 l 2,27,28
 374 439 374 439 374 421 c 0,29,30
 374 294 374 294 449.5 216.5 c 128,-1,31
 525 139 525 139 643 139 c 0,16,17
EndSplineSet
EndChar

StartChar: threequarters
Encoding: 190 190 156
Width: 1819
VWidth: 2982
Flags: W
HStem: 0 21G<430 640.687 1480 1638.36> 156 156<1276 1511 1699 1766> 463 152<457.769 694.027> 980 155<643 755.815> 1202 21G<414 574.636> 1354 152<621.521 808.901>
VStem: 258 158<654.043 833> 414 157<1202 1303.17> 795 154<715.472 940.856> 824 154<1171.8 1337.97>
DStem2: 430 0 622 0 0.682719 0.730681<131.082 2042.62> 927 156 1276 312 0.700012 0.714131<355.709 842.902> 1480 0 1634 0 0.207912 0.978148<32.0184 159.036 350.715 672.521>
LayerCount: 3
Fore
SplineSet
949 861 m 0xfc80
 949 667 752 463 532 463 c 0
 369 463 258 577 258 730 c 0
 258 765 265 801 271 833 c 1
 427 833 l 1
 427 833 416 781 416 759 c 0
 416 675 479 615 566 615 c 0
 681 615 795 718 795 835 c 0xfe80
 795 918 734 980 645 980 c 2
 611 980 l 1
 643 1135 l 1
 679 1135 l 2
 745 1135 824 1179 824 1260 c 0
 824 1314 784 1354 724 1354 c 0
 656 1354 591 1301 577 1235 c 1
 571 1202 l 1
 414 1202 l 1
 421 1235 l 2
 453 1386 602 1506 754 1506 c 0
 886 1506 978 1414 978 1292 c 0xfd40
 978 1186 916 1106 865 1061 c 1
 918 1014 949 942 949 861 c 0xfc80
1824 1493 m 1
 2017 1493 l 1
 622 0 l 1
 430 0 l 1
 1824 1493 l 1
1544 312 m 1
 1619 658 l 1
 1276 312 l 1
 1544 312 l 1
1511 156 m 1
 927 156 l 1
 1869 1117 l 1
 1699 312 l 1
 1852 312 l 1
 1766 156 l 1
 1668 156 l 1
 1634 0 l 1
 1480 0 l 1
 1511 156 l 1
EndSplineSet
Validated: 1
Layer: 2
SplineSet
949 861 m 0,0,1
 949 765 949 765 891.5 673 c 128,-1,2
 834 581 834 581 736.5 522 c 128,-1,3
 639 463 639 463 532 463 c 0,4,5
 411 463 411 463 334.5 538.5 c 128,-1,6
 258 614 258 614 258 730 c 0,7,8
 258 764 258 764 271 833 c 1,9,-1
 427 833 l 1,10,11
 416 781 416 781 416 759 c 0,12,13
 416 696 416 696 458.5 655.5 c 128,-1,14
 501 615 501 615 566 615 c 0,15,16
 653 615 653 615 724 681.5 c 128,-1,17
 795 748 795 748 795 835 c 0,18,19
 795 898 795 898 753 939 c 128,-1,20
 711 980 711 980 645 980 c 2,21,-1
 611 980 l 1,22,-1
 643 1135 l 1,23,-1
 679 1135 l 2,24,25
 734 1135 734 1135 779 1169 c 128,-1,26
 824 1203 824 1203 824 1260 c 0,27,28
 824 1301 824 1301 796.5 1327.5 c 128,-1,29
 769 1354 769 1354 724 1354 c 0,30,31
 673 1354 673 1354 630.5 1319.5 c 128,-1,32
 588 1285 588 1285 577 1235 c 2,33,-1
 571 1202 l 1,34,-1
 414 1202 l 1,35,-1
 421 1235 l 2,36,37
 445 1348 445 1348 542.5 1427 c 128,-1,38
 640 1506 640 1506 754 1506 c 0,39,40
 852 1506 852 1506 915 1445 c 128,-1,41
 978 1384 978 1384 978 1292 c 0,42,43
 978 1161 978 1161 865 1061 c 1,44,45
 949 987 949 987 949 861 c 0,0,1
1824 1493 m 1,46,-1
 2017 1493 l 1,47,-1
 622 0 l 1,48,-1
 430 0 l 1,49,-1
 1824 1493 l 1,46,-1
1544 312 m 1,50,-1
 1619 658 l 1,51,-1
 1276 312 l 1,52,-1
 1544 312 l 1,50,-1
1511 156 m 1,53,-1
 927 156 l 1,54,-1
 1869 1117 l 1,55,-1
 1699 312 l 1,56,-1
 1852 312 l 1,57,-1
 1766 156 l 1,58,-1
 1668 156 l 1,59,-1
 1634 0 l 1,60,-1
 1480 0 l 1,61,-1
 1511 156 l 1,53,-1
EndSplineSet
LCarets2: 2 0 0
Ligature2: "'frac' Diagonal Fractions in Latin lookup 42" three fraction four
Ligature2: "'frac' Diagonal Fractions in Latin lookup 42" three slash four
EndChar

